<?xml version="1.0" encoding="UTF-8" standalone="no"?>
<!-- Created with Inkscape (http://www.inkscape.org/) -->

<svg
   version="1.1"
   id="svg62"
   width="1737.1987"
   height="661.85919"
   viewBox="0 0 1737.1987 661.85919"
   sodipodi:docname="projects.bmp"
   xml:space="preserve"
   xmlns:inkscape="http://www.inkscape.org/namespaces/inkscape"
   xmlns:sodipodi="http://sodipodi.sourceforge.net/DTD/sodipodi-0.dtd"
   xmlns="http://www.w3.org/2000/svg"
   xmlns:svg="http://www.w3.org/2000/svg"><defs
     id="defs66" /><sodipodi:namedview
     id="namedview64"
     pagecolor="#ffffff"
     bordercolor="#000000"
     borderopacity="0.25"
     inkscape:showpageshadow="2"
     inkscape:pageopacity="0.0"
     inkscape:pagecheckerboard="0"
     inkscape:deskcolor="#d1d1d1"
     showgrid="false" /><g
     inkscape:groupmode="layer"
     inkscape:label="Image"
     id="g68"><path
       style="fill:#000000"
       d="M 25.83418,661.06561 C 13.493879,657.31191 5.5016591,644.99499 1.7210291,623.90454 -1.5605009,605.59831 -0.38434086,589.78104 7.2908891,549 c 1.915,-10.175 4.4251299,-24.8 5.5780599,-32.5 1.15294,-7.7 2.9216,-17.6 3.93035,-22 1.00875,-4.4 2.16218,-10.46592 2.563171,-13.47983 0.40099,-3.01391 1.37575,-7.28891 2.16613,-9.5 C 22.31898,469.30908 24.06303,463 25.40426,457.5 26.74549,452 29.45824,442.325 31.4326,436 c 1.97435,-6.325 5.27858,-17.125 7.34273,-24 2.06415,-6.875 6.04819,-19.7 8.85343,-28.5 6.57444,-20.62396 14.24144,-45.2019 18.24886,-58.5 5.25352,-17.43312 8.07246,-26.12357 11.02865,-34 1.5482,-4.125 5.53218,-15.04204 8.85328,-24.26009 3.32111,-9.21805 8.48056,-22.49305 11.46545,-29.5 2.98489,-7.00695 8.64088,-20.74171 12.56887,-30.5217 3.92799,-9.77998 9.17584,-22.15498 11.66191,-27.5 2.48606,-5.34501 8.73293,-19.61821 13.88193,-31.71821 17.51611,-41.16233 42.92946,-82.860186 67.08245,-110.067926 7.09314,-7.99025 17.87067,-15.68725 25.93386,-18.521244 6.20355,-2.18037 20.40404,-2.60508 26.98663,-0.80712 6.34711,1.73364 19.43107,11.055214 27.77316,19.786784 9.49082,9.93392 15.06769,20.90265 23.19862,45.62754 4.59609,13.97601 6.21029,20.876156 9.11932,38.981966 4.96744,30.91733 6.80725,40.99752 10.40348,57 1.73043,7.7 4.22069,19.9569 5.53393,27.23756 1.31323,7.28065 2.83048,14.93065 3.37166,17 0.54117,2.06934 2.36813,11.41244 4.05991,20.76244 1.69177,9.35 5.26354,26.675 7.93725,38.5 2.67372,11.825 6.03761,27.8 7.47532,35.5 1.4377,7.7 5.3382,22.775 8.66778,33.5 6.59968,21.25848 13.23522,52.10081 14.9525,69.5 0.59713,6.05 1.93963,17.75 2.98333,26 1.0437,8.25 2.19489,19.5 2.55819,25 0.3633,5.5 1.51985,15.85 2.57011,23 1.05026,7.15 2.59802,19.525 3.43947,27.5 0.84145,7.975 2.40185,19.675 3.46755,26 3.94135,23.3922 4.86718,41.8322 2.99316,59.61562 -1.74103,16.52135 -6.13948,22.48486 -22.78951,30.89843 -8.6692,4.38072 -10.55722,4.95208 -17.53537,5.30669 -10.78054,0.54784 -14.91059,-1.19991 -24.02775,-10.16801 -5.31577,-5.22888 -8.15441,-9.03211 -10.5538,-14.14012 -4.17157,-8.88074 -11.95152,-32.8489 -21.43706,-66.04242 -4.35356,-15.23476 -10.33115,-33.27501 -14.41361,-43.5 -3.83636,-9.6086 -9.11485,-23.54519 -11.72998,-30.97019 -5.4615,-15.50655 -7.35017,-19.50614 -12.50274,-26.47691 -6.59559,-8.92297 -12.99426,-13.84041 -22.26605,-17.11169 -10.21066,-3.60253 -48.14277,-5.77019 -58.63709,-3.35086 -12.91732,2.97792 -23.32066,11.92238 -37.14893,31.93946 -17.8389,25.82265 -21.2151,31.28046 -30.31138,49 -14.21975,27.70006 -15.50985,31.16319 -26.63538,71.5 -4.54736,16.48691 -11.04578,33.69864 -17.33573,45.91541 -3.07733,5.977 -6.41719,10.29689 -13.63818,17.64009 -8.25501,8.3947 -10.30426,9.94485 -14.98402,11.33459 -5.76505,1.71202 -9.99013,1.91502 -14.06463,0.67552 z M 256.80965,337.51055 c 10.18556,-3.46434 15.39406,-6.76838 20.19954,-12.8137 8.1682,-10.27564 10.52782,-20.72285 9.49279,-42.02927 -1.26282,-25.99549 -5.03582,-35.5322 -20.59793,-52.06366 -14.64015,-15.55208 -16.58618,-16.99095 -29.21158,-21.59865 -13.50738,-4.92959 -21.22725,-3.79094 -28.67201,4.22898 -6.79258,7.31735 -15.71379,19.8534 -21.53845,30.26575 -6.71906,12.01118 -7.59324,16.64477 -7.67932,40.70375 -0.0611,17.06982 1.01459,22.85752 5.73783,30.8727 3.71783,6.30904 18.27207,15.2249 32.30013,19.78692 17.45443,5.67629 28.84499,6.43069 39.969,2.64718 z m 289.031,310.8254 c -16.15681,-1.43978 -52.65286,-10.1476 -65.83973,-15.70912 -8.79555,-3.70949 -12.67407,-6.3445 -15.38183,-10.45021 -2.96723,-4.49914 -2.96386,-4.52968 6.13568,-55.61493 2.24723,-12.61608 4.08588,-24.79862 4.08588,-27.07233 0,-2.27371 1.18406,-11.75146 2.63125,-21.06169 2.51794,-16.19872 2.62487,-18.52345 2.48305,-53.9847 -0.11679,-29.20605 -0.48965,-38.9517 -1.75993,-46 -2.07433,-11.50976 -3.08434,-75.07679 -1.45817,-91.77272 0.59839,-6.14364 1.32339,-20.62025 1.61112,-32.17025 0.28772,-11.55 0.97136,-28.875 1.51919,-38.5 1.68615,-29.62458 3.2624,-100.81209 3.49846,-157.999996 0.2502,-60.61162 0.46809,-63.03845 6.85141,-76.30992 C 497.50469,6.53841 509.04543,0 528.50153,0 c 11.55173,0 17.36498,1.47291 28.735,7.28061 13.50625,6.89888 19.22514,12.71463 28.4901,28.972704 10.97146,19.25259 11.64277,21.49146 11.46795,38.24669 -0.1393,13.35112 -2.27377,30.050426 -9.13897,71.499996 -1.10522,6.6729 -1.58599,16.49335 -1.61555,33 -0.0394,22.02865 0.16314,24.72091 3.23572,43 3.82538,22.75764 7.24513,40.21418 10.11885,51.65288 1.12653,4.48408 3.44467,15.73408 5.15142,25 2.73834,14.86639 3.05233,18.40801 2.6706,30.12322 -0.23792,7.30185 -0.16277,13.15185 0.167,13 10.95455,-5.04441 38.55221,-16.23417 43.22337,-17.52537 5.3109,-1.46803 10.69351,-1.75073 33.33363,-1.75073 31.09938,0 41.61319,1.36899 53.20368,6.92757 12.97537,6.22274 29.77263,21.74448 40.70317,37.61232 18.17735,26.38803 23.64762,51.33698 21.69943,98.96729 -0.86246,21.08589 -0.9531,21.72817 -4.62752,32.78939 -6.66695,20.06976 -23.40892,50.35004 -40.21163,72.72857 -17.88508,23.82008 -42.17629,46.20926 -63.0259,58.09093 -8.80557,5.01807 -20.28147,9.34531 -34.01881,12.82755 -21.46543,5.4412 -25.98782,5.84399 -68.22242,6.07618 -21.725,0.11943 -41.525,0.0367 -44,-0.18385 z m 112.39689,-87.88474 c 12.93648,-3.36229 16.99405,-5.0163 23.7207,-9.66935 12.80269,-8.85606 26.0761,-30.43318 27.51124,-44.72198 1.01489,-10.10458 -2.25436,-39.22347 -6.01996,-53.61917 C 696.02319,424.05014 690.28908,418 670.8078,418 c -4.77123,0 -8.35312,0.96496 -18.27444,4.92312 -11.14335,4.44569 -19.11439,6.62194 -31.37988,8.56733 -5.66997,0.8993 -13.56538,5.83383 -24.80493,15.50275 -15.17774,13.0568 -19.05148,19.71487 -21.90201,37.6445 -2.20263,13.85441 -2.03507,25.27062 0.54901,37.40622 2.52087,11.8387 4.45009,15.12145 11.87248,20.20211 8.59244,5.88157 32.29699,17.63787 38.68285,19.18481 9.47453,2.29514 21.47011,1.93563 32.68666,-0.97963 z m 338.60314,78.38266 c -10.5087,-2.22304 -38.0042,-9.11478 -44,-11.02859 -19.8714,-6.34278 -47.34033,-23.09817 -62.19393,-37.93692 -16.33909,-16.32272 -29.15889,-39.3974 -35.33988,-63.60914 l -3.63551,-14.24078 0.40449,-21.75922 c 0.4369,-23.50247 1.272,-28.29649 8.62642,-49.52177 1.58603,-4.57737 3.60768,-11.50564 4.49256,-15.39616 4.99844,-21.97646 18.19011,-43.6454 40.14582,-65.94443 7.7228,-7.84357 10.3804,-9.8204 18.72763,-13.93018 10.2085,-5.02624 9.301,-4.8329 34.7724,-7.40883 5.225,-0.52841 13.4088,-0.98259 18.1863,-1.00929 5.7073,-0.0319 12.2235,-0.90716 19,-2.55206 13.07322,-3.17334 24.87992,-3.75569 50.71652,-2.50153 36.4101,1.76743 44.3842,3.20731 59.5971,10.7615 13.5537,6.73028 38.8982,25.31698 46.813,34.33086 5.9621,6.79012 13.6835,21.29128 21.0165,39.47034 l 5.6705,14.05767 -0.018,21.44233 c -0.011,13.26625 -0.5674,25.25539 -1.4583,31.44233 -2.9812,20.70415 -14.4949,56.54881 -26.8324,83.53553 -6.7742,14.8176 -25.627,41.07916 -33.961,47.3069 -9.1349,6.82617 -33.5707,17.72713 -51.1091,22.80007 -9.8579,2.85135 -9.9386,2.85727 -37.5,2.75041 -15.1915,-0.0589 -29.64582,-0.53547 -32.12082,-1.05904 z m 35.99992,-81.16655 c 6.4846,-0.98374 10.9896,-2.49424 19,-6.37068 18.5751,-8.98892 27.9964,-17.85956 33.113,-31.17744 4.2748,-11.12675 3.4766,-39.894 -1.4864,-53.56681 -5.1879,-14.29262 -9.3627,-17.90104 -30.1903,-26.09446 l -14.4726,-5.6934 -17.9034,0.0561 c -17.7018,0.0555 -17.9871,0.091 -25.36442,3.16222 -21.1732,8.81442 -28.0699,16.11969 -35.7189,37.83518 -5.1103,14.50769 -6.9771,24.95551 -6.9761,39.04242 7e-4,10.84781 0.2042,12.0695 2.9912,17.96075 3.7477,7.92198 12.5613,16.8947 20.077,20.43949 3.0629,1.44464 8.9129,3.28405 13,4.08757 9.3954,1.84715 32.74032,2.01669 43.93092,0.31904 z m 588.1877,74.26462 c -21.3235,-4.19777 -43.6571,-15.76697 -54.4987,-28.23137 -13.931,-16.01627 -28.1369,-47.86877 -33.2437,-74.53926 -2.5431,-13.28127 -2.6047,-14.52369 -2.2173,-44.66131 0.3787,-29.45895 0.5531,-31.84509 3.5089,-48 3.9489,-21.58225 8.8314,-52.50789 10.7359,-68 3.7392,-30.41637 4.4736,-40.99596 4.9461,-71.25 l 0.5037,-32.25 -9.7113,-0.008 c -17.2419,-0.0134 -28.4932,-2.6886 -49.7113,-11.8197 -18.3091,-7.87922 -23.8764,-11.34842 -33.0222,-20.57752 -10.2112,-10.30427 -15.9645,-21.03882 -15.8618,-29.59523 0.082,-6.87546 1.9484,-10.52396 8.305,-16.23903 12.4243,-11.17057 35.9988,-19.73935 87.829,-31.92383 4.9666,-1.16756 4.8725,-0.61876 3.1878,-18.60326 -0.5804,-6.19637 -1.1414,-19.47137 -1.2466,-29.5 -0.1854,-17.679336 -0.2748,-18.404176 -2.9412,-23.833546 -3.1576,-6.42972 -3.3479,-9.15556 -1.2171,-17.44023 2.0188,-7.84933 7.3413,-15.44428 14.6995,-20.97557 8.3331,-6.26409 14.6069,-7.91459 27.2471,-7.16808 23.233,1.3721 34.4965,10.20758 40.2006,31.53488 2.8514,10.66117 3.1837,31.313416 0.7425,46.148666 -2.1853,13.28051 -2.9501,31.8716 -1.4928,36.28724 1.2905,3.91036 5.1221,8.23157 7.956,8.97264 2.7584,0.72135 7.9477,-1.38488 17.3421,-7.03892 13.6073,-8.18952 18.7022,-9.50621 34.7721,-8.98619 14.7553,0.47749 20.0455,1.90758 26.701,7.21814 7.5288,6.00742 9.9703,18.80311 8.4044,44.04709 -1.4136,22.7895 -4.6186,31.43549 -13.825,37.29513 -4.6246,2.94338 -46.2582,17.24462 -60.3653,20.73556 -9.1958,2.27561 -16.9475,6.36055 -19.1161,10.07375 -1.8802,3.2193 -5.001,16.71769 -6.8035,29.42726 -0.5799,4.08895 -1.0486,21.19071 -1.0416,38.00391 0.015,36.48083 1.3022,48.51941 9.5638,89.46439 2.9963,14.85 6.3601,33.24244 7.475,40.87209 3.1808,21.76746 6.918,34.35215 11.8738,39.98432 3.3123,3.76436 9.1243,5.90247 14.2104,5.22777 10.1908,-1.35185 24.8736,-7.99208 40.8081,-18.45522 C 1705.9763,481.398 1712.4857,479 1720.5063,479 c 4.3814,0 5.8414,0.48133 8.4031,2.77016 2.7351,2.44385 3.2003,3.66174 3.9492,10.33896 0.4668,4.16284 0.8754,12.99246 0.9079,19.62139 0.033,6.62893 0.8177,17.3889 1.7449,23.91104 1.1701,8.23077 1.6863,18.58859 1.6873,33.85845 0,24.76049 -1.0526,30.80464 -6.4448,36.94601 -6.6403,7.56279 -38.9991,19.70102 -65.5002,24.56995 -11.4675,2.10689 -35.6335,2.6074 -44.2254,0.91598 z m -328.6877,-11.81879 c -22.3065,-5.75723 -25.7951,-7.0356 -34.6612,-12.70127 -17.6267,-11.26386 -23.6578,-20.98841 -28.8654,-46.54228 -1.785,-8.75949 -2.0597,-14.80006 -2.4384,-53.62058 -0.6884,-70.58712 -0.8884,-73.66623 -6.6699,-102.6767 -3.7037,-18.58464 -4.9963,-27.37246 -5.08,-34.53551 -0.1345,-11.50842 0.9424,-13.72549 8.495,-17.48909 8.5952,-4.28316 22.3973,-3.21963 26.7892,2.06426 4.9729,5.98287 12.9115,30.45238 14.4008,44.38802 0.3233,3.025 1.2286,10.45 2.0118,16.5 0.7832,6.05 1.9235,15.725 2.5339,21.5 1.7676,16.72113 7.9767,37.10637 16.3921,53.81721 8.7003,17.27634 43.8491,58.18279 49.9936,58.18279 7.7639,0 21.2806,-13.00405 26.1572,-25.16513 l 2.9413,-7.33487 -0.233,-27 c -0.1282,-14.85 -0.8283,-36.45 -1.5559,-48 -2.0735,-32.91579 -0.086,-55.96339 6.2663,-72.68251 2.5141,-6.61675 10.4495,-20.44097 13.8876,-24.19359 6.8515,-7.47841 17.2252,-8.50487 34.635,-3.42709 9.8808,2.88187 11.4686,3.6769 15.606,7.8141 6.1136,6.11336 7.6809,11.23851 8.4065,27.48909 0.8121,18.18872 2.2756,32.32656 4.5547,44 2.7883,14.28118 6.9088,43.18887 6.9218,48.55986 0.01,2.50792 0.9211,13.49487 2.0335,24.41543 1.1124,10.92057 2.4649,26.41863 3.0055,34.44014 0.5406,8.02151 1.8804,20.10685 2.9774,26.8563 3.7855,23.29063 1.9893,45.59349 -4.4564,55.33365 -4.6164,6.97581 -16.8154,10.66249 -29.9044,9.03748 -9.324,-1.15759 -15.6498,-4.24251 -21.0769,-10.27874 -4.9462,-5.50142 -6.708,-10.51108 -7.4914,-21.30218 l -0.5763,-7.93805 -3.9652,6.43805 c -7.9367,12.88614 -25.4122,27.77458 -41.4304,35.29713 -6.4712,3.03901 -6.9472,3.10717 -23.6044,3.37974 l -17,0.27817 z"
       id="path1495" /></g></svg>
