<?xml version="1.0" encoding="UTF-8" standalone="no"?>
<!-- Created with Inkscape (http://www.inkscape.org/) -->

<svg
   version="1.1"
   id="svg62"
   width="1737.1987"
   height="661.85919"
   viewBox="0 0 1737.1987 661.85919"
   sodipodi:docname="projects.bmp"
   xml:space="preserve"
   xmlns:inkscape="http://www.inkscape.org/namespaces/inkscape"
   xmlns:sodipodi="http://sodipodi.sourceforge.net/DTD/sodipodi-0.dtd"
   xmlns="http://www.w3.org/2000/svg"
   xmlns:svg="http://www.w3.org/2000/svg"><defs
     id="defs66" /><sodipodi:namedview
     id="namedview64"
     pagecolor="#ffffff"
     bordercolor="#000000"
     borderopacity="0.25"
     inkscape:showpageshadow="2"
     inkscape:pageopacity="0.0"
     inkscape:pagecheckerboard="0"
     inkscape:deskcolor="#d1d1d1"
     showgrid="false" /><g
     inkscape:groupmode="layer"
     inkscape:label="Image"
     id="g68"><path
       style="fill:#000000"
       d="M 25.834179,661.06566 C 13.493879,657.31191 5.5016591,644.99499 1.7210291,623.90454 -1.5605009,605.59831 -0.38434086,589.78104 7.2908891,549 c 1.915,-10.175 4.4251299,-24.8 5.5780599,-32.5 1.15294,-7.7 2.9216,-17.6 3.93035,-22 1.00875,-4.4 2.16218,-10.46592 2.56317,-13.47983 0.40099,-3.01391 1.37575,-7.28891 2.16613,-9.5 0.79038,-2.21109 2.53443,-8.52017 3.87566,-14.02017 1.34123,-5.5 4.05398,-15.175 6.02834,-21.5 1.97435,-6.325 5.27858,-17.125 7.34273,-24 2.06415,-6.875 6.04819,-19.7 8.85343,-28.5 6.57444,-20.62396 14.24144,-45.2019 18.24886,-58.5 5.25352,-17.43312 8.07246,-26.12357 11.02865,-34 1.5482,-4.125 5.53218,-15.04204 8.85328,-24.26009 3.32111,-9.21805 8.48056,-22.49305 11.46545,-29.5 2.984891,-7.00695 8.640881,-20.74171 12.568871,-30.5217 3.92799,-9.77998 9.17584,-22.15498 11.66191,-27.5 2.48606,-5.34501 8.73293,-19.61821 13.88193,-31.71821 17.51611,-41.16233 42.92946,-82.86019 67.08245,-110.06793 7.09314,-7.99025 17.87067,-15.68725 25.93386,-18.52124 6.20355,-2.18037 20.40404,-2.60508 26.98663,-0.80712 6.34711,1.73364 19.43107,11.05521 27.77316,19.78678 9.49082,9.93392 15.06769,20.90265 23.19862,45.627542 4.59609,13.97601 6.21029,20.876158 9.11932,38.981968 4.96744,30.91733 6.80725,40.99752 10.40348,57 1.73043,7.7 4.22069,19.9569 5.53393,27.23756 1.31323,7.28065 2.83048,14.93065 3.37166,17 0.54117,2.06934 2.36813,11.41244 4.05991,20.76244 1.69177,9.35 5.26354,26.675 7.93725,38.5 2.67372,11.825 6.03761,27.8 7.47532,35.5 1.4377,7.7 5.3382,22.775 8.66778,33.5 6.59968,21.25848 13.23522,52.10081 14.9525,69.5 0.59713,6.05 1.93963,17.75 2.98333,26 1.0437,8.25 2.19489,19.5 2.55819,25 0.3633,5.5 1.51985,15.85 2.57011,23 1.05026,7.15 2.59802,19.525 3.43947,27.5 0.84145,7.975 2.40185,19.675 3.46755,26 3.94135,23.3922 4.86718,41.8322 2.99316,59.61562 -1.74103,16.52135 -6.13948,22.48486 -22.78951,30.89843 -8.6692,4.38072 -10.55722,4.95208 -17.53537,5.30669 -10.78054,0.54784 -14.91059,-1.19991 -24.02775,-10.16801 -5.31577,-5.22888 -8.15441,-9.03211 -10.5538,-14.14012 -4.17157,-8.88074 -11.95152,-32.8489 -21.43706,-66.04242 -4.35356,-15.23476 -10.33115,-33.27501 -14.41361,-43.5 -3.83636,-9.6086 -9.11485,-23.54519 -11.72998,-30.97019 -5.4615,-15.50655 -7.35017,-19.50614 -12.50274,-26.47691 -6.59559,-8.92297 -12.99426,-13.84041 -22.26605,-17.11169 -10.21066,-3.60253 -48.14277,-5.77019 -58.63709,-3.35086 -12.91732,2.97792 -23.32066,11.92238 -37.14893,31.93946 -17.8389,25.82265 -21.2151,31.28046 -30.31138,49 -14.219751,27.70006 -15.509851,31.16319 -26.635381,71.5 -4.54736,16.48691 -11.04578,33.69864 -17.33573,45.91541 -3.07733,5.977 -6.41719,10.29689 -13.63818,17.64009 -8.25501,8.3947 -10.30426,9.94485 -14.98402,11.33459 -5.76505,1.71203 -9.99013,1.91498 -14.06463,0.67557 z m 12.77882,-4.61501 c 5.998,-2.50612 20.26947,-18.02348 24.96456,-27.14392 6.23675,-12.11522 12.74589,-29.3708 17.27918,-45.80673 7.74033,-28.06339 10.17373,-35.99198 13.65773,-44.5 5.543801,-13.53809 21.891171,-44.63872 28.909571,-55 28.88044,-42.63632 36.24911,-50.14965 53.03193,-54.07309 11.19406,-2.61692 55.44307,-0.28734 66.12439,3.48125 9.3206,3.2885 16.33403,8.74846 23.269,18.11493 5.15566,6.9633 7.04351,10.9592 12.50895,26.47691 2.61513,7.425 7.89362,21.36159 11.72998,30.97019 4.08246,10.22499 10.06005,28.26524 14.41361,43.5 9.49678,33.23285 17.2693,57.17261 21.44198,66.04242 4.04586,8.6002 14.54815,19.42503 21.37619,22.03268 6.19228,2.36485 10.51624,1.56104 21.64868,-4.02444 16.96834,-8.51353 20.37282,-13.65772 22.13719,-33.44941 1.26489,-14.18879 0.11681,-32.8207 -3.20859,-52.07144 -1.09259,-6.325 -2.67413,-18.025 -3.51455,-26 -0.84041,-7.975 -2.38733,-20.35 -3.43759,-27.5 -1.05026,-7.15 -2.20681,-17.5 -2.57011,-23 -0.3633,-5.5 -1.51449,-16.75 -2.55819,-25 -1.0437,-8.25 -2.3862,-19.95 -2.98333,-26 -1.71728,-17.39919 -8.35282,-48.24152 -14.9525,-69.5 -3.32958,-10.725 -7.23008,-25.8 -8.66778,-33.5 -1.43771,-7.7 -4.8016,-23.675 -7.47532,-35.5 -2.67371,-11.825 -6.24548,-29.15 -7.93725,-38.5 -1.69178,-9.35 -3.51874,-18.6931 -4.05991,-20.76244 -0.54118,-2.06935 -2.05843,-9.71935 -3.37166,-17 C 325.05592,201.4569 322.56566,189.2 320.83523,181.5 317.239,165.49752 315.39919,155.41733 310.43175,124.5 307.52272,106.39419 305.90852,99.494042 301.31243,85.518032 293.35378,61.31699 287.58449,49.84184 278.64344,40.42924 270.7693,32.13982 257.5887,22.81029 251.34065,21.10371 234.39775,16.47595 217.12765,26.11875 197.74851,51.02703 175.18228,80.03174 155.45106,113.93997 140.1561,150 c -5.2489,12.375 -11.46018,26.55 -13.80287,31.5 -2.34268,4.95 -7.50881,17.1 -11.48029,27 -3.97147,9.9 -9.66305,23.73296 -12.64794,30.73991 -2.984891,7.00695 -8.144341,20.28195 -11.465451,29.5 -3.3211,9.21805 -7.30508,20.13509 -8.85328,24.26009 -2.95619,7.87643 -5.77513,16.56688 -11.02865,34 -4.00742,13.2981 -11.67442,37.87604 -18.24886,58.5 -2.80524,8.8 -6.78928,21.625 -8.85343,28.5 -2.06415,6.875 -5.36838,17.675 -7.34273,24 -1.97436,6.325 -4.68711,16 -6.02834,21.5 -1.34123,5.5 -3.08528,11.80908 -3.87566,14.02017 -0.79038,2.21109 -1.76514,6.48609 -2.16613,9.5 -0.40099,3.01391 -1.55687,9.07983 -2.56862,13.47983 -1.01174,4.4 -2.81212,14.525 -4.00083,22.5 -1.18872,7.975 -3.66288,22.375 -5.49815,32 -6.7587999,35.44639 -8.3758799,51.70909 -6.5161299,65.53183 4.07834,30.31271 17.3136399,46.40375 32.8342599,39.91882 z M 225.84065,341.38819 c -15.18695,-3.2967 -28.62151,-9.0176 -38.25305,-16.28949 -6.39059,-4.82494 -8.78783,-8.18764 -11.93921,-16.74761 -1.94572,-5.28504 -2.13636,-7.62117 -1.97065,-24.14808 0.25282,-25.21435 1.15071,-30.64323 6.77442,-40.96006 4.21581,-7.73402 11.14199,-18.48262 14.75445,-22.89715 0.83074,-1.01519 3.55008,-4.38678 6.04297,-7.49243 6.38959,-7.96014 11.39371,-10.20522 22.49379,-10.09177 6.9992,0.0715 10.13884,0.66049 16.8905,3.1684 12.82253,4.76295 15.19148,6.52695 30.10868,22.41985 16.23983,17.30206 19.71453,26.53142 20.76308,55.15015 0.89727,24.48975 -1.44331,33.9781 -11.16399,45.25705 -4.43449,5.14536 -9.85661,8.44087 -19.33806,11.75349 -5.99989,2.09624 -8.82634,2.4736 -17.89415,2.38905 -5.92283,-0.0552 -13.69378,-0.73535 -17.26878,-1.5114 z m 30.969,-3.87764 c 10.18556,-3.46434 15.39406,-6.76838 20.19954,-12.8137 8.1682,-10.27564 10.52782,-20.72285 9.49279,-42.02927 -1.26282,-25.99549 -5.03582,-35.5322 -20.59793,-52.06366 -14.64015,-15.55208 -16.58618,-16.99095 -29.21158,-21.59865 -13.50738,-4.92959 -21.22725,-3.79094 -28.67201,4.22898 -6.79258,7.31735 -15.71379,19.8534 -21.53845,30.26575 -6.71906,12.01118 -7.59324,16.64477 -7.67932,40.70375 -0.0611,17.06982 1.01459,22.85752 5.73783,30.8727 3.71783,6.30904 18.27207,15.2249 32.30013,19.78692 17.45443,5.67629 28.84499,6.43069 39.969,2.64718 z m 289.031,310.8254 c -16.15681,-1.43978 -52.65286,-10.1476 -65.83973,-15.70912 -8.79555,-3.70949 -12.67407,-6.3445 -15.38183,-10.45021 -2.96723,-4.49914 -2.96386,-4.52968 6.13568,-55.61493 2.24723,-12.61608 4.08588,-24.79862 4.08588,-27.07233 0,-2.27371 1.18406,-11.75146 2.63125,-21.06169 2.51794,-16.19872 2.62487,-18.52345 2.48305,-53.9847 -0.11679,-29.20605 -0.48965,-38.9517 -1.75993,-46 -2.07433,-11.50976 -3.08434,-75.07679 -1.45817,-91.77272 0.59839,-6.14364 1.32339,-20.62025 1.61112,-32.17025 0.28772,-11.55 0.97136,-28.875 1.51919,-38.5 1.68615,-29.62458 3.2624,-100.81209 3.49846,-157.999998 0.2502,-60.611622 0.46809,-63.038452 6.85141,-76.309922 C 497.50469,6.53841 509.04543,0 528.50153,0 c 11.55173,0 17.36498,1.47291 28.735,7.28061 13.50625,6.89888 19.22514,12.71463 28.4901,28.9727 10.97146,19.25259 11.64277,21.49146 11.46795,38.24669 -0.1393,13.351122 -2.27377,30.05043 -9.13897,71.5 -1.10522,6.6729 -1.58599,16.49335 -1.61555,33 -0.0394,22.02865 0.16314,24.72091 3.23572,43 3.82538,22.75764 7.24513,40.21418 10.11885,51.65288 1.12653,4.48408 3.44467,15.73408 5.15142,25 2.73834,14.86639 3.05233,18.40801 2.6706,30.12322 -0.23792,7.30185 -0.16277,13.15185 0.167,13 10.95455,-5.04441 38.55221,-16.23417 43.22337,-17.52537 5.3109,-1.46803 10.69351,-1.75073 33.33363,-1.75073 31.09938,0 41.61319,1.36899 53.20368,6.92757 12.97537,6.22274 29.77263,21.74448 40.70317,37.61232 18.17735,26.38803 23.64762,51.33698 21.69943,98.96729 -0.86246,21.08589 -0.9531,21.72817 -4.62752,32.78939 -6.66695,20.06976 -23.40892,50.35004 -40.21163,72.72857 -17.88508,23.82008 -42.17629,46.20926 -63.0259,58.09093 -8.80557,5.01807 -20.28147,9.34531 -34.01881,12.82755 -21.46543,5.4412 -25.98782,5.84399 -68.22242,6.07618 -21.725,0.11943 -41.525,0.0367 -44,-0.18385 z m 88.98606,-4.73624 c 12.86687,-2.28488 27.27596,-6.00866 37.3364,-9.64895 25.14224,-9.09753 55.21533,-34.01858 78.18294,-64.78886 16.93227,-22.68458 33.30024,-52.30762 39.98884,-72.37251 3.61974,-10.85871 3.79073,-11.99515 4.48228,-29.78939 1.83552,-47.22984 -3.57582,-71.83847 -21.52763,-97.89907 -7.12743,-10.34688 -15.48901,-19.36196 -25.21662,-27.18742 -15.84765,-12.74878 -26.42619,-15.73863 -58.73227,-16.59969 -29.69045,-0.79135 -35.00582,0.42162 -68,15.51765 -7.73719,3.54004 -13.42094,5.52206 -16,5.57948 -3.8414,0.0855 -3.99177,-0.0299 -3.7924,-2.91095 1.65078,-23.85575 1.58512,-25.61922 -1.59528,-42.84712 -1.71056,-9.26592 -4.03181,-20.51592 -5.15834,-25 -2.86711,-11.41241 -6.28615,-28.85669 -10.12384,-51.65288 -3.12783,-18.57956 -3.28084,-20.70365 -3.24154,-45 0.0297,-18.38951 0.48161,-28.149 1.62053,-35 9.64076,-57.992548 11.15613,-76.56749 7.11772,-87.24669 C 586.32908,46.60297 573.84098,25.88935 568.24867,20.39723 561.80168,14.06574 545.9033,5.68689 537.04965,3.95457 524.93244,1.58369 511.05104,4.99958 503.1293,12.30158 c -5.2894,4.8756 -10.79908,15.81868 -12.78337,25.38979 -1.08816,5.24863 -1.52796,20.78496 -1.91954,67.80863 -0.27938,33.55 -1.20363,81.7 -2.0539,107 -0.85027,25.3 -1.95892,58.6 -2.46367,74 -0.50474,15.4 -1.45093,34.075 -2.10264,41.5 -1.6841,19.18729 -0.76549,76.40947 1.42074,88.5 1.28904,7.12884 1.67092,17.0044 1.83678,47.5 0.2038,37.47257 0.1369,38.96537 -2.50683,55.93836 -1.49392,9.5911 -2.7207,19.2661 -2.72619,21.5 -0.009,3.57453 -6.29161,42.63802 -7.48881,46.56164 -0.79793,2.61505 -4.49034,25.40335 -4.49589,27.74712 -0.01,4.20272 6.41846,9.81164 15.69652,13.69552 13.79022,5.77269 49.8473,14.41832 66.29815,15.8967 2.475,0.22242 20.475,0.30101 40,0.17465 28.07001,-0.18167 37.48539,-0.58232 44.98606,-1.91428 z m -13.17962,-79.14702 c -6.99065,-1.69523 -27.48036,-11.85544 -38.38091,-19.0319 -9.25869,-6.09552 -10.34792,-7.87523 -13.41619,-21.92079 -2.44785,-11.20551 -2.604,-27.02094 -0.40345,-40.8623 2.86329,-18.00994 6.79541,-24.72165 22.26696,-38.00739 16.88614,-14.50048 16.85705,-14.48582 35.99891,-18.14164 4.60447,-0.87939 13.94934,-3.82409 20.76638,-6.54378 C 660.41728,415.18197 661.23898,415 670.8078,415 c 13.99697,0 19.37228,1.34992 24.61373,6.18132 5.26638,4.85438 9.04813,13.49275 13.32299,30.43273 3.79127,15.02365 5.27857,27.66492 5.45753,46.38595 0.13058,13.66072 -0.0224,14.91121 -2.64313,21.60426 -6.94379,17.73369 -21.78539,34.38578 -35.36656,39.68082 -2.28156,0.88953 -8.56123,2.76429 -13.95482,4.16613 -8.12763,2.11243 -11.95432,2.53453 -22.35172,2.46548 -6.94553,-0.0461 -15.08654,-0.6996 -18.23873,-1.464 z m 36.59045,-4.00148 c 12.93648,-3.36229 16.99405,-5.0163 23.7207,-9.66935 12.80269,-8.85606 26.0761,-30.43318 27.51124,-44.72198 1.01489,-10.10458 -2.25436,-39.22347 -6.01996,-53.61917 C 696.02319,424.05014 690.28908,418 670.8078,418 c -4.77123,0 -8.35312,0.96496 -18.27444,4.92312 -11.14335,4.44569 -19.11439,6.62194 -31.37988,8.56733 -5.66997,0.8993 -13.56538,5.83383 -24.80493,15.50275 -15.17774,13.0568 -19.05148,19.71487 -21.90201,37.6445 -2.20263,13.85441 -2.03507,25.27062 0.54901,37.40622 2.52087,11.8387 4.45009,15.12145 11.87248,20.20211 8.59244,5.88157 32.29699,17.63787 38.68285,19.18481 9.47453,2.29514 21.47011,1.93563 32.68666,-0.97963 z m 338.60311,78.38266 c -10.5087,-2.22304 -38.0042,-9.11478 -44,-11.02859 -19.8714,-6.34278 -47.3403,-23.09817 -62.1939,-37.93692 -16.33909,-16.32272 -29.15889,-39.3974 -35.33988,-63.60914 l -3.63551,-14.24078 0.40449,-21.75922 c 0.4369,-23.50247 1.272,-28.29649 8.62642,-49.52177 1.58603,-4.57737 3.60768,-11.50564 4.49256,-15.39616 4.99844,-21.97646 18.19011,-43.6454 40.14582,-65.94443 7.7228,-7.84357 10.3804,-9.8204 18.7276,-13.93018 10.2085,-5.02624 9.301,-4.8329 34.7724,-7.40883 5.225,-0.52841 13.4088,-0.98259 18.1863,-1.00929 5.7073,-0.0319 12.2235,-0.90716 19,-2.55206 13.07325,-3.17334 24.87995,-3.75569 50.71655,-2.50153 36.4101,1.76743 44.3842,3.20731 59.5971,10.7615 13.5537,6.73028 38.8982,25.31698 46.813,34.33086 5.9621,6.79012 13.6835,21.29128 21.0165,39.47034 l 5.6705,14.05767 -0.018,21.44233 c -0.011,13.26625 -0.5674,25.25539 -1.4583,31.44233 -2.9812,20.70415 -14.4949,56.54881 -26.8324,83.53553 -6.7742,14.8176 -25.627,41.07916 -33.961,47.3069 -9.1349,6.82617 -33.5707,17.72713 -51.1091,22.80007 -9.8579,2.85135 -9.9386,2.85727 -37.5,2.75041 -15.1915,-0.0589 -29.64585,-0.53547 -32.12085,-1.05904 z m 65.62085,-4.69137 c 16.8249,-4.86655 40.8019,-15.45287 50.6466,-22.36151 7.5351,-5.28783 26.7669,-32.18495 33.4235,-46.74546 12.3375,-26.98672 23.8512,-62.83138 26.8324,-83.53553 0.8534,-5.92637 1.4474,-17.92009 1.4583,-29.44233 l 0.018,-19.44233 -5.6635,-14.05767 c -7.1615,-17.77583 -14.3945,-31.53935 -20.2123,-38.46155 -5.0508,-6.0095 -13.7243,-13.04444 -29.2557,-23.72877 -25.44,-17.50058 -35.3453,-20.06213 -81.3685,-21.04225 -26.4385,-0.56304 -27.2184,-0.52244 -37.5,1.95215 -6.61755,1.59274 -15.30665,2.79115 -23.49995,3.24114 -7.15,0.3927 -13.45,1.07219 -14,1.50999 -0.55,0.43779 -6.4455,0.94801 -13.1012,1.13381 l -12.1012,0.33781 -9.8988,4.88058 c -8.4195,4.15121 -11.1691,6.17243 -18.3988,13.52492 -21.5902,21.95677 -33.53693,41.62418 -39.48697,65.00565 -1.34208,5.27387 -3.57868,12.8347 -4.97022,16.80185 -6.73074,19.18867 -7.86086,25.51919 -8.3055,46.52447 l -0.4178,19.73748 3.64111,14.26252 c 6.12935,24.00915 18.58003,46.52409 34.86368,63.04499 14.039,14.24356 41.9577,31.22902 61.6757,37.52282 5.9958,1.91381 33.4913,8.80555 43.99995,11.02859 2.475,0.52357 15.1294,1.00014 28.1209,1.05904 23.1676,0.10504 23.8104,0.0523 33.5,-2.75041 z m -77.55185,-73.79422 c -4.0871,-0.80352 -9.9371,-2.64078 -13,-4.08279 -7.3102,-3.4416 -16.9605,-13.12664 -20.9455,-21.02092 -3.052,-6.04588 -3.1235,-6.50616 -3.1235,-20.10559 0,-16.51889 1.6199,-26.11264 6.9769,-41.32093 7.0716,-20.07619 13.4266,-27.56098 30.4667,-35.883 10.8578,-5.30275 19.48645,-7.46055 25.66155,-6.41728 2.7756,0.46894 3.8948,0.30386 3.8948,-0.57448 0,-0.92871 1.6637,-1.04839 6.75,-0.48555 3.7125,0.41083 10.575,1.06223 15.25,1.44757 6.9355,0.57167 10.9547,1.68029 21.837,6.0233 7.3353,2.92748 15.2103,6.74361 17.5,8.4803 12.1283,9.19924 17.5049,28.02424 16.4303,57.52754 -0.5359,14.71197 -2.3533,20.56428 -9.3285,30.03951 -8.6353,11.73019 -30.4436,24.26483 -46.4388,26.69136 -11.5213,1.74783 -42.38235,1.55824 -51.93095,-0.31904 z m 47.93095,-2.68096 c 6.4846,-0.98374 10.9896,-2.49424 19,-6.37068 18.5751,-8.98892 27.9964,-17.85956 33.113,-31.17744 4.2748,-11.12675 3.4766,-39.894 -1.4864,-53.56681 -5.1879,-14.29262 -9.3627,-17.90104 -30.1903,-26.09446 l -14.4726,-5.6934 -17.9034,0.0561 c -17.7019,0.0555 -17.9872,0.091 -25.36445,3.16222 -21.1732,8.81442 -28.0699,16.11969 -35.7189,37.83518 -5.1103,14.50769 -6.9771,24.95551 -6.9761,39.04242 7e-4,10.84781 0.2042,12.0695 2.9912,17.96075 3.7477,7.92198 12.5613,16.8947 20.077,20.43949 3.0629,1.44464 8.9129,3.28405 13,4.08757 9.3954,1.84715 32.74035,2.01669 43.93095,0.31904 z m 588.1877,74.26462 c -21.3235,-4.19777 -43.6571,-15.76697 -54.4987,-28.23137 -13.931,-16.01627 -28.1369,-47.86877 -33.2437,-74.53926 -2.5431,-13.28127 -2.6047,-14.52369 -2.2173,-44.66131 0.3787,-29.45895 0.5531,-31.84509 3.5089,-48 3.9489,-21.58225 8.8314,-52.50789 10.7359,-68 3.7392,-30.41637 4.4736,-40.99596 4.9461,-71.25 l 0.5037,-32.25 -9.7113,-0.008 c -17.2419,-0.0134 -28.4932,-2.6886 -49.7113,-11.8197 -18.3091,-7.87922 -23.8764,-11.34842 -33.0222,-20.57752 -10.2112,-10.30427 -15.9645,-21.03882 -15.8618,-29.59523 0.082,-6.87546 1.9484,-10.52396 8.305,-16.23903 12.4243,-11.17057 35.9988,-19.73935 87.829,-31.92383 4.9666,-1.16756 4.8725,-0.61876 3.1878,-18.60326 -0.5804,-6.19637 -1.1414,-19.47137 -1.2466,-29.5 -0.1854,-17.679338 -0.2748,-18.404178 -2.9412,-23.833548 -3.1576,-6.429722 -3.3479,-9.155562 -1.2171,-17.440232 2.0188,-7.84933 7.3413,-15.44428 14.6995,-20.97557 8.3331,-6.26409 14.6069,-7.91459 27.2471,-7.16808 23.233,1.3721 34.4965,10.20758 40.2006,31.53488 2.8514,10.66117 3.1837,31.31342 0.7425,46.14867 -2.1853,13.28051 -2.9501,31.8716 -1.4928,36.28724 1.2905,3.91036 5.1221,8.23157 7.956,8.97264 2.7584,0.72135 7.9477,-1.38488 17.3421,-7.03892 13.6073,-8.18952 18.7022,-9.50621 34.7721,-8.98619 14.7553,0.47749 20.0455,1.90758 26.701,7.21814 7.5288,6.00742 9.9703,18.80311 8.4044,44.04709 -1.4136,22.7895 -4.6186,31.43549 -13.825,37.29513 -4.6246,2.94338 -46.2582,17.24462 -60.3653,20.73556 -9.1958,2.27561 -16.9475,6.36055 -19.1161,10.07375 -1.8802,3.2193 -5.001,16.71769 -6.8035,29.42726 -0.5799,4.08895 -1.0486,21.19071 -1.0416,38.00391 0.015,36.48083 1.3022,48.51941 9.5638,89.46439 2.9963,14.85 6.3601,33.24244 7.475,40.87209 3.1808,21.76746 6.918,34.35215 11.8738,39.98432 3.3123,3.76436 9.1243,5.90247 14.2104,5.22777 10.1908,-1.35185 24.8736,-7.99208 40.8081,-18.45522 C 1705.9763,481.398 1712.4857,479 1720.5063,479 c 4.3814,0 5.8414,0.48133 8.4031,2.77016 2.7351,2.44385 3.2003,3.66174 3.9492,10.33896 0.4668,4.16284 0.8754,12.99246 0.9079,19.62139 0.033,6.62893 0.8177,17.3889 1.7449,23.91104 1.1701,8.23077 1.6863,18.58859 1.6873,33.85845 0,24.76049 -1.0526,30.80464 -6.4448,36.94601 -6.6403,7.56279 -38.9991,19.70102 -65.5002,24.56995 -11.4675,2.10689 -35.6335,2.6074 -44.2254,0.91598 z m 40.2254,-3.91598 c 25.8314,-4.74589 59.1142,-17.10021 65.0397,-24.14218 4.6308,-5.50341 5.691,-11.86256 5.69,-34.12691 -6e-4,-12.40124 -0.5901,-24.7031 -1.5212,-31.74687 -0.8361,-6.325 -1.799,-19.825 -2.1397,-30 -0.6551,-19.56232 -1.3043,-22.48707 -5.5157,-24.84749 -3.848,-2.1568 -11.8624,0.6098 -23.0533,7.9581 -18.7579,12.31711 -31.9763,17.78778 -44.9542,18.60509 -7.3517,0.46299 -9.1099,0.24781 -12.6242,-1.54505 -9.8413,-5.02067 -14.0209,-15.22901 -18.3418,-44.79856 -1.1149,-7.62965 -4.4787,-26.02209 -7.475,-40.87209 -8.2942,-41.10677 -9.5024,-52.55237 -9.6418,-91.34518 -0.072,-20.15078 0.3213,-35.50807 1.0283,-40.1062 1.9233,-12.50861 4.9364,-25.83977 6.5423,-28.94518 2.5993,-5.02646 9.1624,-8.68299 20.9525,-11.6733 13.9369,-3.5348 55.4053,-17.78607 59.694,-20.51477 4.8225,-3.06841 8.7459,-9.00516 10.8482,-16.41537 0.6242,-2.2 1.5425,-10.51319 2.0407,-18.47376 1.0103,-16.14244 0.01,-27.99785 -2.9251,-34.63069 -3.5257,-7.97051 -12.8135,-12.40096 -27.5568,-13.14516 -11.0547,-0.55801 -17.7233,1.41812 -30.2721,8.97057 -9.9419,5.98353 -14.2598,7.67521 -19.7435,7.73515 -5.6619,0.0619 -10.5091,-2.8622 -13.2095,-7.96873 -1.9886,-3.76061 -2.2747,-5.76072 -2.2735,-15.89466 7e-4,-6.376 0.714,-15.41772 1.585,-20.09272 0.8711,-4.675 1.8294,-15.31979 2.1297,-23.655078 0.4507,-12.51449 0.2334,-16.434862 -1.2477,-22.500002 -4.4617,-18.27157 -10.6834,-26.2742 -23.9847,-30.85052 -13.7433,-4.7284 -24.8994,-3.31917 -35.1327,4.43794 -7.4271,5.62987 -11.8648,12.24529 -13.9825,20.844 l -1.6689,6.77634 2.9002,5.723662 c 2.8895,5.70256 2.9026,5.81211 3.5585,29.723658 0.3621,13.2 0.9887,28.77135 1.3924,34.60301 0.81,11.70121 0.8281,11.65832 -5.4736,12.97772 -13.7672,2.88243 -45.5043,11.46551 -54.9558,14.86239 -19.9779,7.18012 -33.8235,15.71279 -37.7185,23.24489 -4.1657,8.05558 1.1667,21.36956 13.5791,33.90414 8.6433,8.72839 14.4015,12.28421 32.5181,20.0806 21.4265,9.22081 32.4324,11.8066 50.308,11.8197 l 10.308,0.008 -0.5737,34.75 c -0.5426,32.86411 -1.1758,42.07662 -5.0695,73.75 -1.8966,15.42812 -6.7728,46.33068 -10.7298,68 -2.9063,15.91522 -3.1303,18.85051 -3.5111,46 -0.3924,27.97989 -0.3152,29.47777 2.1961,42.58212 3.0924,16.13618 6.7638,27.10151 14.6232,43.67495 13.5321,28.53537 21.6667,37.61552 43.4736,48.52645 6.9984,3.50157 20.4643,8.03443 28.6629,9.64842 8.0456,1.58387 24.9448,1.15656 36.2254,-0.91598 z m -368.9131,-7.90281 c -22.3065,-5.75723 -25.7951,-7.0356 -34.6612,-12.70127 -17.6267,-11.26386 -23.6578,-20.98841 -28.8654,-46.54228 -1.785,-8.75949 -2.0597,-14.80006 -2.4384,-53.62058 -0.6884,-70.58712 -0.8884,-73.66623 -6.6699,-102.6767 -3.7037,-18.58464 -4.9963,-27.37246 -5.08,-34.53551 -0.1345,-11.50842 0.9424,-13.72549 8.495,-17.48909 8.5952,-4.28316 22.3973,-3.21963 26.7892,2.06426 4.9729,5.98287 12.9115,30.45238 14.4008,44.38802 0.3233,3.025 1.2286,10.45 2.0118,16.5 0.7832,6.05 1.9235,15.725 2.5339,21.5 1.7676,16.72113 7.9767,37.10637 16.3921,53.81721 8.7003,17.27634 43.8491,58.18279 49.9936,58.18279 7.7639,0 21.2806,-13.00405 26.1572,-25.16513 l 2.9413,-7.33487 -0.233,-27 c -0.1282,-14.85 -0.8283,-36.45 -1.5559,-48 -2.0735,-32.91579 -0.086,-55.96339 6.2663,-72.68251 2.5141,-6.61675 10.4495,-20.44097 13.8876,-24.19359 6.8515,-7.47841 17.2252,-8.50487 34.635,-3.42709 9.8808,2.88187 11.4686,3.6769 15.606,7.8141 6.1136,6.11336 7.6809,11.23851 8.4065,27.48909 0.8121,18.18872 2.2756,32.32656 4.5547,44 2.7883,14.28118 6.9088,43.18887 6.9218,48.55986 0.01,2.50792 0.9211,13.49487 2.0335,24.41543 1.1124,10.92057 2.4649,26.41863 3.0055,34.44014 0.5406,8.02151 1.8804,20.10685 2.9774,26.8563 3.7855,23.29063 1.9893,45.59349 -4.4564,55.33365 -4.6164,6.97581 -16.8154,10.66249 -29.9044,9.03748 -9.324,-1.15759 -15.6498,-4.24251 -21.0769,-10.27874 -4.9462,-5.50142 -6.708,-10.51108 -7.4914,-21.30218 l -0.5763,-7.93805 -3.9652,6.43805 c -7.9367,12.88614 -25.4122,27.77458 -41.4304,35.29713 -6.4712,3.03901 -6.9472,3.10717 -23.6044,3.37974 l -17,0.27817 z m 55.6044,-1.77617 c 10.3226,-4.81321 21.7093,-12.93816 29.8956,-21.33185 8.5248,-8.74073 12.9999,-15.69121 16.8724,-26.20535 2.3469,-6.37178 3.0311,-7.33968 5.3818,-7.61366 l 2.6931,-0.31388 -0.014,13.60488 c -0.017,16.69613 1.6226,23.60078 7.0753,29.7954 5.9517,6.76154 11.8287,9.22748 21.9913,9.22748 10.1293,0 16.6652,-2.60421 19.9745,-7.95875 5.9806,-9.67686 7.5327,-29.22473 4.0309,-50.76952 -1.097,-6.74945 -2.4368,-18.83479 -2.9774,-26.8563 -0.5406,-8.02151 -1.8931,-23.51957 -3.0055,-34.44014 -1.1124,-10.92056 -2.0225,-21.83051 -2.0225,-24.24433 0,-5.37186 -4.3736,-35.93978 -6.943,-48.52621 -1.8534,-9.07876 -3.2779,-23.11768 -4.8534,-47.82983 -1.3175,-20.66546 -5.0819,-25.57581 -23.7488,-30.97791 -18.8641,-5.45915 -23.4751,-2.86981 -34.9084,19.60299 -10.6847,21.00144 -12.1144,38.16602 -8.5455,102.59717 0.6275,11.32845 0.9965,27.75345 0.82,36.5 -0.3006,14.89541 -0.508,16.36952 -3.2748,23.26986 -2.2728,5.66825 -4.5562,9.08273 -9.9024,14.80743 -9.723,10.41128 -16.9691,13.68814 -25.2345,11.41172 -8.2233,-2.26484 -42.133,-41.65902 -50.9784,-59.22361 -8.4387,-16.75701 -14.6455,-37.12346 -16.415,-53.86257 -0.6104,-5.775 -1.7507,-15.45 -2.5339,-21.5 -0.7832,-6.05 -1.6885,-13.475 -2.0118,-16.5 -1.1417,-10.68337 -5.604,-26.4556 -10.119,-35.76632 -3.8454,-7.92997 -5.0056,-9.4803 -8.0444,-10.75 -4.6676,-1.95024 -7.9179,-1.84339 -12.9117,0.42448 -10.5105,4.7732 -10.9306,10.63603 -3.4332,47.91829 4.936,24.54555 4.9664,24.81621 5.8599,52.17355 0.494,15.125 0.9554,42.47562 1.0253,60.77915 0.1108,29.0424 0.3823,34.53206 2.1326,43.12058 3.0146,14.79319 5.6129,22.26214 10.0625,28.9254 4.6633,6.98341 8.8339,10.86179 17.9274,16.6713 8.7232,5.57297 12.2754,6.87159 34.5305,12.62356 18.6788,4.82767 19.2198,4.90549 32,4.60358 12.0905,-0.28562 13.4621,-0.52256 19.6044,-3.38659 z"
       id="path1386" /></g></svg>
