<?xml version="1.0" encoding="UTF-8" standalone="no"?>
<!-- Created with Inkscape (http://www.inkscape.org/) -->

<svg
   version="1.1"
   id="svg62"
   width="1437.5349"
   height="639.23389"
   viewBox="0 0 1437.5349 639.23389"
   sodipodi:docname="projects.bmp"
   inkscape:export-filename="mati_black.svg"
   inkscape:export-xdpi="96"
   inkscape:export-ydpi="96"
   xml:space="preserve"
   xmlns:inkscape="http://www.inkscape.org/namespaces/inkscape"
   xmlns:sodipodi="http://sodipodi.sourceforge.net/DTD/sodipodi-0.dtd"
   xmlns="http://www.w3.org/2000/svg"
   xmlns:svg="http://www.w3.org/2000/svg"><defs
     id="defs66" /><sodipodi:namedview
     id="namedview64"
     pagecolor="#ffffff"
     bordercolor="#000000"
     borderopacity="0.25"
     inkscape:showpageshadow="2"
     inkscape:pageopacity="0.0"
     inkscape:pagecheckerboard="0"
     inkscape:deskcolor="#d1d1d1"
     showgrid="false" /><g
     inkscape:groupmode="layer"
     inkscape:label="Image"
     id="g68"><path
       style="fill:#000000"
       d="m 329.08648,636.86924 c -1.40334,-1.30057 -2.55152,-2.70853 -2.55152,-3.1288 0,-0.42027 -1.59759,-2.61867 -3.55019,-4.88533 -5.15466,-5.98372 -5.44919,-6.40636 -5.45597,-7.82899 -0.003,-0.71072 -0.69967,-2.62217 -1.54729,-4.24767 -0.84763,-1.62551 -1.80602,-4.88801 -2.12977,-7.25 -0.32374,-2.362 -0.90908,-4.29454 -1.30074,-4.29454 -0.39166,0 -1.0027,-4.74937 -1.35787,-10.55415 -0.35517,-5.80478 -1.11659,-11.43391 -1.69206,-12.50917 -2.10004,-3.92397 0.35474,-58.62414 3.20181,-71.34629 0.60429,-2.70028 1.51903,-8.10028 2.03275,-12 2.48126,-18.83551 3.75622,-27.4687 4.66531,-31.59039 1.30786,-5.92971 5.08917,-19.11842 5.82081,-20.30224 0.31737,-0.51351 0.96767,-2.45558 1.44512,-4.31571 1.70733,-6.65171 2.74635,-9.98141 5.26797,-16.88205 1.40687,-3.85 2.58174,-8.125 2.61083,-9.5 0.0291,-1.375 0.71359,-3.37351 1.52109,-4.44113 0.80751,-1.06762 1.4682,-3.21957 1.4682,-4.78212 0,-1.56254 0.675,-4.45649 1.5,-6.43099 0.825,-1.97451 1.5,-5.0217 1.5,-6.77154 0,-1.74984 1.07742,-5.40739 2.39426,-8.12788 1.31684,-2.72049 2.63874,-6.07134 2.93754,-7.44634 0.2988,-1.375 1.50968,-5.18494 2.69083,-8.46652 2.00936,-5.58259 2.07283,-6.61217 0.98637,-16 -3.19836,-27.63629 -8.11907,-38.38892 -19.0692,-41.66966 -3.8833,-1.16347 -4.47909,-1.03554 -11.60962,2.49274 -6.60038,3.26595 -16.18146,9.63628 -20.16674,13.40857 -0.73511,0.69582 -2.98511,2.49582 -5,4 -2.01489,1.50418 -4.15189,3.18487 -4.74888,3.73487 -1.048,0.9655 -3.87114,3.2582 -13.41456,10.8941 -15.5942,12.47726 -23.47784,15.60744 -39.29549,15.60216 -9.66264,-0.003 -11.68615,-0.29662 -14.70451,-2.13206 -8.02528,-4.88011 -9.8878,-8.4592 -12.93906,-24.8642 -5.87522,-31.58791 -7.60911,-39.41261 -11.13151,-50.23451 -4.21569,-12.95188 -7.20114,-17.57071 -13.52579,-20.92593 l -4.11361,-2.18227 -3.39502,2.38044 c -1.86725,1.30923 -3.96753,3.16422 -4.66729,4.1222 -0.69975,0.95797 -1.85,2.32638 -2.55611,3.04092 -4.1795,4.22935 -19.21112,40.43597 -21.19368,51.04915 -0.38528,2.0625 -1.06468,3.75 -1.50977,3.75 -0.44509,0 -1.10576,1.35 -1.46816,3 -0.3624,1.65 -1.0336,3 -1.49156,3 -0.45795,0 -1.14297,1.83678 -1.52225,4.08173 -0.37928,2.24496 -1.31606,5.28246 -2.08174,6.75 -0.76567,1.46755 -1.3949,4.35577 -1.39829,6.41827 -0.003,2.0625 -0.42859,3.75 -0.94489,3.75 -0.5163,0 -1.24239,2.025 -1.61354,4.5 -0.37115,2.475 -1.07372,4.5 -1.56127,4.5 -0.48755,0 -0.88646,1.36445 -0.88646,3.03212 0,1.66766 -0.60438,4.48016 -1.34308,6.25 -0.73869,1.76983 -1.67121,4.97004 -2.07227,7.11158 -0.40106,2.14153 -1.37167,4.53618 -2.15692,5.32143 -0.78525,0.78525 -1.42773,2.26903 -1.42773,3.29728 0,1.02826 -0.45,2.14767 -1,2.48759 -0.55,0.33992 -1,1.40283 -1,2.36201 0,0.95919 -1.25829,3.52014 -2.79621,5.69099 -1.53792,2.17085 -3.84437,6.422 -5.12545,9.447 -1.28108,3.025 -3.34343,7.75 -4.58299,10.5 -1.23956,2.75 -2.59373,6.125 -3.00925,7.5 -0.41552,1.375 -1.36988,3.38763 -2.1208,4.47251 -0.75091,1.08487 -1.3653,2.71727 -1.3653,3.62755 0,0.91028 -0.675,2.21525 -1.5,2.89994 -0.825,0.68469 -1.5,2.50229 -1.5,4.03911 0,1.53682 -0.3375,2.94422 -0.75,3.12756 -0.98933,0.4397 -3.807012,6.38357 -5.247442,11.0694 -0.63166,2.05484 -1.56564,3.9939 -2.07552,4.30902 -0.50987,0.31512 -0.92704,1.37725 -0.92704,2.36029 0,2.0712 -2.68873,7.78421 -4.06332,8.63376 -0.51518,0.31839 -0.95195,1.33984 -0.97061,2.26988 -0.0187,0.93004 -0.90339,3.49098 -1.96607,5.69098 -1.06268,2.2 -1.94741,4.59464 -1.96607,5.32143 -0.0187,0.72678 -0.70893,1.99643 -1.53393,2.82143 -0.825,0.825 -1.51431,2.48035 -1.5318,3.67857 -0.0175,1.19821 -0.6925,3.05208 -1.5,4.1197 -0.80751,1.06762 -1.4682,2.94262 -1.4682,4.16667 0,1.22404 -0.46061,2.37907 -1.02358,2.56673 -0.56296,0.18765 -1.31447,2.13381 -1.67002,4.32478 -0.35555,2.19098 -1.24494,4.58209 -1.97642,5.31357 -0.73149,0.73149 -1.32998,2.19783 -1.32998,3.25855 0,1.06071 -0.41425,1.92857 -0.92054,1.92857 -0.5063,0 -1.23327,1.4625 -1.61548,3.25 -0.38221,1.7875 -1.041,3.7 -1.46398,4.25 -0.42298,0.55 -1.08177,2.4625 -1.46398,4.25 -0.38221,1.7875 -1.10918,3.25 -1.61548,3.25 -0.50629,0 -0.92054,1.02487 -0.92054,2.27749 0,1.25263 -0.6175,3.16513 -1.37223,4.25 -0.75472,1.08488 -1.69047,3.43501 -2.07945,5.22251 -0.38898,1.7875 -1.08572,3.25 -1.54832,3.25 -0.4626,0 -1.1376,1.35 -1.5,3 -0.3624,1.65 -1.02307,3 -1.46816,3 -0.44509,0 -1.08994,1.49618 -1.433,3.32484 -0.34306,1.82866 -1.96814,4.61285 -3.61129,6.18709 -1.64315,1.57424 -2.98755,3.4852 -2.98755,4.24659 0,2.25235 -2.73301,4.32389 -6.51407,4.93748 -1.94397,0.31546 -3.77513,0.96291 -4.06923,1.43878 -0.2941,0.47587 -2.93503,0.86522 -5.86873,0.86522 -3.81884,0 -5.4975,-0.42609 -5.9096,-1.5 -0.31658,-0.825 -1.71472,-1.5 -3.10699,-1.5 -1.39226,0 -2.53138,-0.45 -2.53138,-1 0,-0.55 -0.60769,-1 -1.35043,-1 -0.74274,0 -2.38505,-1.35 -3.64957,-3 -1.26452,-1.65 -2.80451,-3 -3.42218,-3 -1.05754,0 -2.6127101,-5.42125 -4.1595501,-14.5 -0.37484,-2.2 -1.15108,-4.9 -1.72498,-6 -0.5739,-1.1 -1.42335,-3.8 -1.88765,-6 -0.46431,-2.2 -1.60069,-7.375 -2.52529,-11.5 -2.41605996,-10.77896 -2.42174996,-54.27004 -0.009,-68.5 2.90937,-17.15863 3.8148,-21.90069 4.78692,-25.071 0.51793,-1.68905 0.94168,-4.22487 0.94168,-5.63516 0,-2.43122 1.86296,-9.7208 4.1641201,-16.29384 0.57766,-1.65 1.37197,-4.8 1.76515,-7 0.39317,-2.2 1.46993,-5.44015 2.3928,-7.20034 0.92286,-1.76019 1.67793,-4.14061 1.67793,-5.28984 0,-1.14922 0.88049,-3.81541 1.95666,-5.92486 2.45049,-4.80337 6.04217,-14.18883 6.04284,-15.79064 2.7e-4,-0.66312 2.7005,-6.83404 6.0005,-13.71315 3.3,-6.87911 6,-12.70052 6,-12.93647 0,-0.23595 2.025,-4.0299 4.5,-8.43099 2.475,-4.40109 4.5,-8.40229 4.5,-8.89154 0,-0.48926 3.375,-7.32478 7.5,-15.19005 4.125,-7.86526 7.5,-15.09981 7.5,-16.07676 0,-0.97694 1.02907,-3.30156 2.28681,-5.16581 3.7637,-5.57853 7.71324,-13.04425 7.71324,-14.58004 0,-0.79123 1.97731,-5.34705 4.39403,-10.12405 8.21492,-16.23803 13.60597,-27.43892 13.60597,-28.26889 0,-0.45526 1.125,-2.48553 2.5,-4.51171 1.375,-2.02617 2.5,-4.65616 2.5,-5.84441 0,-1.18825 0.52554,-2.68599 1.16788,-3.32833 1.18668,-1.18668 3.28224,-6.29564 4.812212,-11.73212 1.00774,-3.58086 2.66699,-8.37359 5.01991,-14.5 2.42752,-6.32066 4.04138,-11.00732 4.99311,-14.5 1.81901,-6.67553 9.88734,-25.35961 12.0912,-28 0.91814,-1.1 2.23824,-3.8 2.93356,-6 0.69532,-2.2 5.02575,-11.5325 9.62318,-20.73889 4.59742,-9.20639 8.35895,-17.39909 8.35895,-18.206 0,-0.8069 1.35,-3.7567 3,-6.555108 1.65,-2.79841 3,-5.5282 3,-6.0662 0,-0.53801 1.73759,-4.45571 3.86132,-8.706 2.12372,-4.25029 4.43587,-9.5278 5.13812,-11.7278 0.70224,-2.2 2.78965,-7.02627 4.63868,-10.72504 1.84904,-3.69877 3.36188,-7.64067 3.36188,-8.75978 0,-1.11912 0.9,-2.80536 2,-3.74721 1.1,-0.94185 2,-2.44965 2,-3.35066 0,-0.90102 1.03398,-3.16351 2.29774,-5.02776 2.56575,-3.78492 5.71827,-9.61462 8.05179,-14.88955 1.45609,-3.29149 6.58036,-9.10573 13.35975,-15.158622 1.63775,-1.46224 6.31065,-4.35961 10.38422,-6.4386 7.26229,-3.70639 7.66524,-3.78833 20.69501,-4.20834 L 238.61197,0 l 5.7115,5.97806 c 7.43779,7.78493 14.60821,16.138362 15.10621,17.598522 0.21709,0.63653 1.86435,2.60241 3.66057,4.36862 1.79622,1.7662 4.0677,5.0287 5.04773,7.25 0.98003,2.22129 2.094,4.03871 2.47549,4.03871 0.38148,0 1.44099,1.575 2.35447,3.5 0.91347,1.925 2.04751,3.5 2.5201,3.5 0.47258,0 1.16863,2.2495 1.54677,4.99888 0.37813,2.74939 1.04277,5.21844 1.47696,5.48679 0.43419,0.26834 1.1104,3.08135 1.50269,6.25111 0.39229,3.16977 1.13374,6.27603 1.64767,6.9028 0.55206,0.67325 0.76529,12.54027 0.52108,29 -0.40919,27.580878 -1.77709,47.526808 -3.59088,52.360418 -0.51596,1.375 -1.237,6.21503 -1.60232,10.75562 -0.36531,4.54058 -1.06715,8.50464 -1.55963,8.80901 -0.49248,0.30437 -0.89164,1.53935 -0.88702,2.74439 0.009,2.30237 -2.23098,12.72679 -4.55312,21.19098 -0.75446,2.75 -1.65061,7.18749 -1.99145,9.8611 -0.34083,2.6736 -1.72775,8.25553 -3.08204,12.40428 -1.35429,4.14875 -2.73139,9.61126 -3.06022,12.1389 -0.32883,2.52765 -0.96596,5.06805 -1.41586,5.64533 -0.44989,0.57729 -1.12416,3.05229 -1.49837,5.5 -0.37421,2.44772 -1.18145,5.08205 -1.79386,5.85408 -0.71545,0.90192 -1.1074,7.1576 -1.09648,17.5 0.0142,13.40135 0.30613,16.59859 1.74384,19.09631 0.94976,1.65 1.72961,3.5625 1.733,4.25 0.0143,2.90561 7.75561,-0.9092 9.6996,-4.77983 0.65639,-1.30693 2.02677,-3.07237 3.0453,-3.9232 3.25039,-2.71524 9.26126,-10.82599 9.26126,-12.49665 0,-0.8872 0.675,-1.87211 1.5,-2.18869 0.825,-0.31659 1.5,-1.37236 1.5,-2.34617 0,-0.97382 0.675,-2.33077 1.5,-3.01546 0.825,-0.68469 1.5,-2.02004 1.5,-2.96746 0,-0.94741 0.82721,-2.47118 1.83824,-3.38615 1.01104,-0.91498 3.59854,-5.5264 5.75,-10.24761 9.61217,-21.09309 23.81217,-49.05873 26.81092,-52.8017 1.80534,-2.25339 5.40264,-8.03458 7.99401,-12.84708 2.59136,-4.8125 5.11345,-8.75 5.60463,-8.75 0.49119,0 1.48012,-1.06605 2.19763,-2.369 0.71752,-1.30295 2.31064,-4.19742 3.54028,-6.43215 1.22964,-2.23473 2.65565,-4.32269 3.16891,-4.6399 0.51326,-0.31722 2.51032,-3.39689 4.4379,-6.84373 1.92757,-3.44683 4.48513,-7.15426 5.68346,-8.23873 1.19833,-1.08447 2.86867,-3.32283 3.71188,-4.97413 0.8432,-1.6513 2.14713,-3.36222 2.89762,-3.80205 0.75049,-0.43983 1.36452,-1.38259 1.36452,-2.09501 0,-0.71243 0.95837,-2.15257 2.12971,-3.20031 1.17134,-1.04775 3.14343,-3.47999 4.38242,-5.40499 1.23899,-1.925 4.44312,-6.06441 7.12029,-9.19868 2.67717,-3.13427 6.66758,-8.2353 8.86758,-11.335608 2.2,-3.10031 6.1375,-8.2787 8.75,-11.50752 2.6125,-3.22882 4.76703,-6.22779 4.78784,-6.66438 0.0208,-0.4366 3.3967,-4.39381 7.50196,-8.79381 4.10526,-4.4 7.71856,-8.7875 8.02954,-9.75 0.31099,-0.9625 1.02862,-1.75 1.59473,-1.75 0.56611,0 3.97587,-2.7 7.57724,-6 3.60136,-3.3 6.96288,-6 7.47004,-6 0.50715,0 2.39704,-1.125 4.19976,-2.5 3.02226,-2.30519 4.10801,-2.5 13.93328,-2.5 6.2991,0 10.65561,0.40106 10.65561,0.98095 0,0.53952 1.2375,1.28451 2.75,1.65553 1.5125,0.37102 3.65,1.624 4.75,2.78439 1.1,1.16039 3.4625,3.14604 5.25,4.41256 1.7875,1.26652 3.25,3.18176 3.25,4.2561 0,1.11315 1.07533,2.4433 2.5,3.09242 1.375,0.6265 2.5,1.91175 2.5,2.85612 0,0.94437 0.60549,2.21955 1.34553,2.83373 2.44787,2.03155 8.65447,18.09362 8.65447,22.39691 0,1.86888 0.3375,3.73317 0.75,4.14287 3.64363,3.61894 5.01264,49.707308 1.9928,67.088418 -2.29533,13.21106 -6.21497,28.51196 -8.36507,32.65429 -0.75775,1.45986 -1.39204,3.70986 -1.40953,5 -0.0175,1.29014 -0.6925,3.21922 -1.5,4.28684 -0.80751,1.06762 -1.4682,3.17856 -1.4682,4.69098 0,1.51242 -0.40784,3.00192 -0.90632,3.30999 -0.49847,0.30807 -1.2287,2.90417 -1.62273,5.76911 -0.39403,2.86494 -1.05087,5.90194 -1.45964,6.74889 -1.57588,3.2651 -3.24598,8.79771 -4.54003,15.0399 -0.74112,3.575 -2.08049,9.875 -2.97637,14 -0.89588,4.125 -2.1961,10.90486 -2.88937,15.06635 -0.69328,4.16149 -1.61749,8.14397 -2.05381,8.84995 -0.43633,0.70599 -1.15126,3.82613 -1.58875,6.93366 -1.24265,8.82667 -2.65675,13.45093 -6.96485,22.77581 -2.19897,4.75966 -3.99813,9.40499 -3.99813,10.32295 0,0.91796 -0.66069,2.54253 -1.4682,3.61015 -0.8075,1.06762 -1.4825,2.8535 -1.5,3.96862 -0.0175,1.11513 -0.71129,2.99761 -1.54179,4.18331 -0.83049,1.18569 -1.79284,4.32332 -2.13856,6.9725 -0.34571,2.64919 -1.10943,5.7167 -1.69715,6.8167 -0.58772,1.1 -1.40609,4.475 -1.8186,7.5 -1.32967,9.75056 -3.31064,19.46102 -4.27663,20.96343 -1.07282,1.66857 -2.14239,6.83775 -3.93892,19.03657 -0.68849,4.675 -1.78468,9.48292 -2.43598,10.68426 -0.65129,1.20134 -1.18417,3.39913 -1.18417,4.88398 0,1.48485 -0.47593,4.55193 -1.05762,6.81574 -1.83481,7.1407 -4.03381,14.95754 -5.51829,19.61602 -0.78869,2.475 -1.43176,5.45754 -1.42904,6.62788 0.003,1.17033 -0.67005,3.74337 -1.49505,5.71788 -0.825,1.9745 -1.50168,4.84196 -1.50374,6.37212 -0.002,1.53017 -0.90205,4.2555 -2,6.05629 -1.09794,1.80079 -1.99626,4.61329 -1.99626,6.25 0,1.63671 -0.45661,2.97583 -1.0147,2.97583 -1.70983,0 -4.9776,6.31542 -4.98156,9.62756 -0.002,1.72015 -0.63312,3.64989 -1.40236,4.2883 -0.76924,0.63841 -1.6488,2.83101 -1.95457,4.87244 -0.99929,6.67145 -3.13414,16.68975 -3.77427,17.7117 -0.34451,0.55 -0.94702,4.07887 -1.3389,7.84193 -0.39189,3.76307 -1.34727,8.36111 -2.12308,10.21789 -0.77581,1.85677 -1.41056,5.1904 -1.41056,7.40806 0,2.21767 -0.42243,4.03212 -0.93873,4.03212 -0.5163,0 -1.24322,2.03053 -1.61538,4.5123 -0.37217,2.48176 -1.04325,4.73885 -1.49129,5.01576 -0.44804,0.27691 -1.12665,3.08387 -1.50801,6.2377 -0.38135,3.15383 -1.08726,6.22964 -1.56867,6.83513 -0.48142,0.60549 -1.16802,3.30549 -1.52578,6 -0.35776,2.69451 -1.25835,5.78674 -2.00131,6.87162 -0.74295,1.08487 -1.35083,2.77848 -1.35083,3.76357 0,1.79894 -0.25494,2.45679 -3.3308,8.59496 -0.91806,1.83207 -1.67197,4.08207 -1.67536,5 -0.003,0.91793 -0.72013,3.01896 -1.59277,4.66896 -0.87263,1.65 -2.45993,5.25 -3.52733,8 -2.84469,7.32892 -5.20661,11.89308 -6.62374,12.79969 -0.6875,0.43983 -1.25,1.90233 -1.25,3.25 0,1.34767 -0.43617,2.45031 -0.96927,2.45031 -1.38902,0 -8.03073,10.67906 -8.03073,12.91243 0,1.03048 -0.675,2.13261 -1.5,2.4492 -0.825,0.31658 -1.5,1.06203 -1.5,1.65655 0,0.59452 -1.50796,2.63365 -3.35102,4.53139 -3.27673,3.37394 -3.53052,3.45043 -11.44848,3.45043 -7.1277,0 -8.40303,-0.28319 -10.64898,-2.36467 z m 718.94842,-22.27979 c -2.2,-0.2251 -4.9,-0.82094 -6,-1.32409 -1.1,-0.50315 -4.025,-1.34843 -6.5,-1.87841 -4.1039,-0.87876 -8.1313,-2.14087 -13.5,-4.23062 -1.1,-0.42817 -3.6423,-1.04778 -5.6495,-1.37692 -2.0073,-0.32913 -4.1999,-1.26152 -4.8725,-2.07196 -0.6726,-0.81045 -1.7794,-1.47354 -2.4597,-1.47354 -1.0933,0 -3.429,-1.14905 -16.03398,-7.88778 -6.2004,-3.3148 -24.4694,-21.43568 -24.497,-24.29845 -0.01,-0.72257 -1.3136,-3.87871 -2.9036,-7.01364 -1.59,-3.13493 -3.2144,-7.63493 -3.6098,-10 -0.3954,-2.36507 -1.2095,-4.61091 -1.8093,-4.99074 -1.4841,-0.93994 -2.1593,-66.68766 -0.7887,-76.80939 0.5585,-4.125 1.7312,-11.325 2.606,-16 0.8748,-4.675 2.2225,-13.225 2.9949,-19 0.7723,-5.775 2.1202,-15.45 2.9952,-21.5 2.205,-15.24568 3.3902,-30.00874 3.4647,-43.15828 l 0.063,-11.15829 -14.8232,-0.34171 c -12.4869,-0.28786 -15.0988,-0.61754 -16.5714,-2.09172 -0.9616,-0.9625 -2.4155,-1.75 -3.2311,-1.75 -0.8155,0 -2.9209,-1.34792 -4.6785,-2.99537 -1.7577,-1.64746 -3.5033,-2.99746 -3.8791,-3 -1.1381,-0.008 -10.8167,-9.79638 -10.8167,-10.93971 0,-0.5857 -0.675,-1.06492 -1.5,-1.06492 -0.825,0 -1.5,-0.50796 -1.5,-1.1288 0,-0.62084 -1.5976,-2.98334 -3.5502,-5.25 -5.0588,-5.87249 -5.4498,-6.41621 -5.4498,-7.57899 0,-0.57322 -0.675,-1.04221 -1.5,-1.04221 -0.825,0 -1.5,-0.61844 -1.5,-1.37431 0,-0.75587 -1.5578,-3.11837 -3.4617,-5.25 -5.3259,-5.96293 -5.5383,-6.23558 -5.5383,-7.11062 0,-0.45064 -1.2779,-2.21846 -2.8398,-3.92848 -3.1852,-3.48767 -7.1599,-10.63053 -7.1599,-12.86738 0,-0.80807 -0.45,-1.46921 -1,-1.46921 -0.6032,0 -1,-4.16667 -1,-10.5 0,-5.775 0.3849,-10.5 0.8554,-10.5 0.4705,0 1.1212,-2.84621 1.446,-6.32491 0.8608,-9.21824 2.6227,-12.02824 16.4921,-26.30285 4.0114,-4.12863 8.6239,-7.97039 10.25,-8.53725 1.6261,-0.56685 2.9565,-1.41623 2.9565,-1.8875 0,-0.47128 1.6875,-1.16093 3.75,-1.53257 2.0625,-0.37163 4.2678,-1.08501 4.9006,-1.58527 0.6416,-0.50719 10.1529,-0.74451 21.5,-0.53646 20.5163,0.37618 30.5838,1.74361 32.1491,4.36673 0.4398,0.73704 1.2619,1.34008 1.8269,1.34008 1.4858,0 6.8706,5.60711 6.8887,7.17308 0.011,0.98697 0.2637,0.94263 0.9847,-0.17308 0.5332,-0.825 0.9763,-4.28594 0.9847,-7.69098 0.01,-3.40504 0.4653,-6.4691 1.0153,-6.80902 0.5721,-0.35357 1,-5.49874 1,-12.02407 0,-7.04826 0.5334,-13.04314 1.396,-15.69098 0.7679,-2.35672 1.6164,-7.32683 1.8857,-11.04468 0.2692,-3.71785 0.9391,-7.31785 1.4885,-8 0.5493,-0.68215 1.3324,-2.81527 1.74,-4.74027 0.4076,-1.925 1.022,-3.725 1.3654,-4 0.852,-0.68229 2.9404,-4.0699 4.00708,-6.5 1.131,-2.57679 9.6657,-11.5 10.9992,-11.5 0.5603,0 1.3786,-0.5625 1.8184,-1.25 2.2376,-3.4976 7.3476,-4.75 19.3807,-4.75 6.5555,0 11.919,0.39891 11.919,0.88646 0,0.48755 2.1375,1.20466 4.75,1.59358 2.6125,0.38892 5.2,1.06306 5.75,1.49807 0.55,0.43502 2.4625,1.10366 4.25,1.48587 1.7875,0.38221 3.25,1.10918 3.25,1.61548 0,0.50629 0.517,0.92054 1.149,0.92054 1.7094,0 7.4927,6.28441 8.3499,9.0733 0.4102,1.33469 1.1336,2.91416 1.6075,3.50995 0.474,0.59578 1.1615,5.65828 1.528,11.25 0.3664,5.59171 1.0486,10.16675 1.5159,10.16675 1.2251,0 1.0828,33.75516 -0.1441,34.16667 -0.5466,0.18333 -1.2255,4.60833 -1.5088,9.83333 -0.2832,5.225 -0.2485,8.9375 0.077,8.25 0.6824,-1.44046 17.4255,-1.81755 17.4255,-0.39246 0,0.47165 2.6343,1.13289 5.854,1.46941 5.5604,0.58117 16.7749,5.29397 19.9674,8.3911 0.7268,0.70507 1.7857,1.28195 2.3532,1.28195 1.3559,0 14.8254,13.61929 14.8254,14.99033 0,0.58254 1.125,1.4869 2.5,2.00967 1.375,0.52277 2.5,1.60449 2.5,2.40382 0,0.79933 0.7875,2.24157 1.75,3.20499 1.4959,1.49729 1.75,3.73647 1.75,15.41898 0,8.70118 -0.4122,14.1769 -1.1345,15.06976 -0.624,0.77135 -1.464,2.94121 -1.8667,4.82193 -0.4027,1.88071 -1.8096,4.58071 -3.1265,6 -1.3169,1.41928 -2.6447,3.36802 -2.9507,4.33052 -0.306,0.9625 -1.2011,1.75 -1.989,1.75 -0.7879,0 -1.4326,0.45 -1.4326,1 0,1.23268 -3.6751,5 -4.8776,5 -0.4826,0 -1.3986,0.62793 -2.0356,1.39539 -0.6369,0.76747 -2.717,1.68786 -4.6224,2.04532 -1.9054,0.35745 -3.4644,1.07953 -3.4644,1.6046 0,0.52508 -1.0125,0.969 -2.25,0.98649 -1.2375,0.0175 -3.1235,0.6925 -4.1911,1.5 -1.3949,1.05501 -4.6524,1.4682 -11.5751,1.4682 -10.295,0 -9.7526,0.22125 -15.5493,-6.34244 -3.0404,-3.44267 -5.4345,-2.89111 -5.4345,1.25204 0,1.6348 -0.3844,3.20996 -0.8543,3.50035 -0.4699,0.2904 -1.1471,3.32927 -1.5049,6.75306 -0.3579,3.42379 -1.1683,6.54494 -1.8008,6.93588 -3.6866,2.27844 -0.8149,123.40948 2.9555,124.66628 0.6625,0.22082 1.2045,1.039 1.2045,1.81816 0,0.77917 0.6269,1.41667 1.393,1.41667 0.7662,0 1.652,0.675 1.9686,1.5 0.3166,0.825 1.2273,1.5 2.0237,1.5 0.7964,0 1.6323,0.55267 1.8574,1.22816 0.2815,0.8445 3.9782,1.34635 11.8334,1.60648 6.2831,0.20807 11.8739,0.72093 12.4239,1.13969 0.55,0.41876 5.725,1.07161 11.5,1.45077 5.775,0.37917 10.65,1.11364 10.8333,1.63215 0.1834,0.51851 2.0251,0.94275 4.0927,0.94275 2.1534,0 5.6422,1.06084 8.1667,2.48327 2.424,1.3658 5.4198,2.92966 6.6573,3.47525 1.2375,0.54559 2.25,1.45312 2.25,2.01673 0,0.56361 0.6134,1.02475 1.3632,1.02475 1.151,0 5.5345,4.41685 12.1572,12.25 0.8138,0.9625 1.4796,2.27707 1.4796,2.92126 0,0.64419 0.6239,1.88169 1.3864,2.75 0.7625,0.86831 2.7875,4.22959 4.5,7.46951 3.0517,5.77359 3.1136,6.16646 3.1136,19.75 0,7.77533 -0.4041,13.85923 -0.9205,13.85923 -0.5063,0 -1.2373,1.4625 -1.6244,3.25 -0.3871,1.7875 -1.4877,4.375 -2.4458,5.75 -0.958,1.375 -2.9936,5.07414 -4.5233,8.2203 -1.5406,3.16844 -5.9498,9.06676 -9.8837,13.22179 -3.9063,4.12582 -9.1273,9.75546 -11.6023,12.51032 -2.475,2.75485 -5.0625,5.01755 -5.75,5.02821 -0.6875,0.0107 -1.25,0.69438 -1.25,1.51938 0,0.825 -0.5748,1.5 -1.2773,1.5 -0.7025,0 -2.4094,1.29011 -3.793,2.86691 -1.3836,1.5768 -3.5088,3.18212 -4.7227,3.56739 -1.2138,0.38526 -2.207,1.06218 -2.207,1.50426 0,0.44208 -2.2162,1.09776 -4.9248,1.45708 -2.7087,0.35932 -5.1086,1.20479 -5.3332,1.87883 -0.3097,0.92951 -8.1178,1.25751 -32.3252,1.35793 -17.5542,0.0728 -33.7168,-0.0518 -35.9168,-0.27686 z M 589.53496,589.23391 c -0.825,-0.53316 -3.75,-0.99221 -6.5,-1.02012 -2.75,-0.0279 -6.125,-0.69386 -7.5,-1.47988 -1.375,-0.78602 -3.98043,-1.44508 -5.78984,-1.46456 -1.80941,-0.0195 -5.05398,-0.93544 -7.21016,-2.03544 -2.15618,-1.1 -5.06325,-2 -6.46016,-2 -1.39691,0 -3.35497,-0.81513 -4.35125,-1.81141 -0.99628,-0.99628 -5.38378,-3.72929 -9.75,-6.07336 -4.36622,-2.34407 -8.91884,-5.49605 -10.11691,-7.00439 -1.19808,-1.50835 -3.95856,-3.54522 -6.13441,-4.52639 -2.17584,-0.98117 -4.5269,-2.85054 -5.22458,-4.15416 -0.69767,-1.30362 -3.11219,-3.60031 -5.36559,-5.10376 -2.25341,-1.50345 -8.1471,-6.51787 -13.0971,-11.14315 -4.95,-4.62529 -9.36202,-8.69621 -9.80449,-9.04649 -2.19876,-1.74067 -8.78194,-11.6871 -9.26583,-13.99959 -0.30353,-1.45051 -1.19937,-4.11507 -1.99077,-5.92123 -2.04885,-4.67594 -2.02392,-40.00864 0.0323,-45.71607 0.79258,-2.2 1.46081,-5.45253 1.48495,-7.22785 0.0241,-1.77531 1.14521,-5.60031 2.49127,-8.5 1.34606,-2.89968 2.6831,-6.42388 2.97121,-7.83155 0.28811,-1.40767 1.66001,-4.10767 3.04867,-6 1.38866,-1.89233 3.68915,-5.9156 5.11221,-8.9406 1.42306,-3.025 3.39441,-6.4 4.38078,-7.5 0.98637,-1.1 2.29965,-3.58424 2.9184,-5.52054 0.61875,-1.93629 2.961,-5.74236 5.20501,-8.45792 2.24401,-2.71556 4.68852,-6.11409 5.43224,-7.55229 0.74373,-1.43821 2.11024,-3.24401 3.0367,-4.0129 0.92645,-0.76889 3.95665,-4.78612 6.73376,-8.92717 13.83152,-20.62464 34.36226,-41.23237 50.71364,-50.90383 3.025,-1.78921 7.02905,-4.34937 8.89788,-5.68923 1.86884,-1.33987 4.42978,-2.43612 5.69099,-2.43612 1.2612,0 2.57121,-0.45 2.91113,-1 0.77297,-1.2507 38.5,-1.36848 38.5,-0.12019 0,0.48389 2.73576,1.0777 6.07946,1.31956 3.34371,0.24186 6.38121,0.91258 6.75,1.49048 0.41196,0.64553 7.97652,1.23015 19.61572,1.51598 13.15963,0.32317 19.06371,0.82085 19.33333,1.62971 0.21349,0.64045 0.91316,1.17973 1.55482,1.19839 0.64167,0.0187 2.96667,0.90339 5.16667,1.96607 2.2,1.06268 4.7875,1.94741 5.75,1.96607 0.9625,0.0187 1.75,0.44818 1.75,0.95447 0,0.5063 1.35,1.21706 3,1.57946 1.65,0.3624 3,1.07316 3,1.57946 0,0.50629 0.60526,0.92054 1.34501,0.92054 0.73976,0 2.1595,0.9 3.15499,2 0.99549,1.1 2.41523,2 3.15499,2 0.73975,0 1.34501,0.45 1.34501,1 0,0.55 0.6199,1 1.37756,1 0.75765,0 1.93775,0.675 2.62244,1.5 1.84565,2.22387 2.44169,1.89304 4.33957,-2.40859 2.28323,-5.17505 13.18915,-14.75663 21.43982,-18.83631 6.14366,-3.03785 7.27171,-3.2551 16.90179,-3.2551 6.21251,0 10.31873,0.39794 10.31873,1 0,0.55 1.0929,1 2.4286,1 1.3357,0 3.1035,0.675 3.9285,1.5 0.825,0.825 1.8697,1.50129 2.3215,1.50288 0.4518,0.002 1.7214,1.35028 2.8214,2.99712 1.1,1.64684 2.3375,2.99554 2.75,2.99712 0.4125,0.002 0.75,0.62974 0.75,1.39589 0,0.76616 0.5676,1.61082 1.2613,1.87703 0.6938,0.26621 2.3003,2.56435 3.5702,5.10699 1.2698,2.54263 2.6286,4.62297 3.0194,4.62297 0.3909,0 1.2266,1.2375 1.8572,2.75 1.8081,4.3366 5.6714,10.67291 7.0419,11.54969 0.6875,0.43983 1.25,1.85418 1.25,3.14301 0,1.28883 0.675,2.60234 1.5,2.91893 0.825,0.31658 1.5,1.44343 1.5,2.50412 0,1.54705 6.2744,15.35333 11.0755,24.37068 0.5085,0.95504 0.9245,2.29634 0.9245,2.98067 0,1.0618 1.8259,6.20481 5.0709,14.2829 0.4419,1.1 1.0876,3.125 1.4349,4.5 0.6296,2.49228 2.5881,7.1181 5.1461,12.15429 0.7414,1.45986 1.3481,3.57081 1.3481,4.69099 0,1.12018 0.45,2.3148 1,2.65472 0.55,0.33992 1,1.533 1,2.65129 0,1.11829 0.9,3.17742 2,4.57584 1.1,1.39842 2,3.40425 2,4.45739 0,1.05314 0.7332,3.3326 1.6293,5.06547 1.4006,2.70844 1.5644,6.07471 1.1675,23.98277 -0.3098,13.97851 -0.8458,21.21622 -1.6292,21.99967 -0.6422,0.64216 -1.1676,1.9955 -1.1676,3.00741 0,1.01191 -0.9,3.60398 -2,5.76016 -1.1,2.15618 -2,4.86967 -2,6.02999 0,1.16031 -1.35,4.07182 -3,6.47001 -1.65,2.39819 -3,4.78667 -3,5.30773 0,0.52106 -0.675,1.50758 -1.5,2.19227 -0.825,0.68469 -1.5,1.87803 -1.5,2.65186 0,0.77384 -1.8023,3.68705 -4.0051,6.47382 -2.2028,2.78676 -4.2766,6.14852 -4.6084,7.47058 -0.3318,1.32206 -1.1749,2.40374 -1.8736,2.40374 -0.6986,0 -1.7843,1.2375 -2.4125,2.75 -0.6283,1.5125 -2.4871,3.51902 -4.1308,4.45894 -1.6437,0.93992 -3.9288,3.30242 -5.0779,5.25 -1.1491,1.94758 -2.5153,3.54106 -3.0359,3.54106 -0.5207,0 -2.1638,1.2375 -3.6513,2.75 -2.7004,2.74585 -2.7256,2.74992 -16.7045,2.70018 -12.65882,-0.0451 -14.40709,-0.27026 -18.24996,-2.35097 -2.3375,-1.26563 -4.25,-2.70571 -4.25,-3.20018 0,-0.49447 -1.125,-0.89903 -2.5,-0.89903 -1.5119,0 -2.5,-0.57045 -2.5,-1.4433 0,-0.79381 -0.82346,-2.03131 -1.82992,-2.75 -1.00645,-0.71868 -2.68356,-2.6567 -3.7269,-4.3067 -1.04334,-1.65 -2.13238,-3.225 -2.42008,-3.5 -1.67685,-1.6028 -6.42096,-17.80553 -7.38708,-25.22933 l -1.13602,-8.72933 -1.75,3.06037 c -0.9625,1.6832 -1.75,3.8864 -1.75,4.896 0,1.00959 -0.35554,1.98562 -0.79009,2.16896 -0.43455,0.18333 -1.67205,1.73908 -2.75,3.45722 -5.31253,8.46762 -8.12408,12.11743 -13.31183,17.2807 -6.32445,6.29464 -13.68387,12.59907 -16.81089,14.40103 -3.55842,2.05056 -7.66656,4.96513 -12.33719,8.75277 -3.04922,2.47276 -7.72396,4.70357 -14.5,6.91948 -5.5,1.79861 -13.71777,4.78939 -18.26171,6.64617 -5.88706,2.40561 -9.82224,3.37596 -13.69098,3.37596 -2.9861,0 -5.70739,0.45 -6.04731,1 -0.80951,1.30982 -39.4732,1.30982 -41.5,0 z m 50.4421,-97.90632 c 0.30807,-0.49847 2.90417,-1.2287 5.76911,-1.62273 2.86494,-0.39403 5.90194,-1.05757 6.74889,-1.47454 0.84694,-0.41697 3.7899,-1.77249 6.5399,-3.01227 6.30663,-2.8432 12.5,-8.6338 12.5,-11.68709 0,-1.26338 0.41968,-2.29705 0.93261,-2.29705 0.51294,0 1.24731,-0.99151 1.63193,-2.20336 0.38463,-1.21185 1.31495,-2.81899 2.06739,-3.57143 0.75244,-0.75244 1.36807,-2.20937 1.36807,-3.23762 0,-1.02826 0.41538,-2.12627 0.92306,-2.44004 0.50769,-0.31377 1.21844,-1.91532 1.57946,-3.55902 0.36101,-1.64369 1.07064,-2.98853 1.57694,-2.98853 1.09558,0 1.25466,-6.68484 0.17054,-7.16667 -0.86102,-0.38267 -5.25,-6.47946 -5.25,-7.29284 0,-0.7567 -3.86282,-4.54049 -4.63533,-4.54049 -0.34943,0 -1.62615,-1.06911 -2.83715,-2.37581 -1.211,-1.30669 -3.83356,-3.15011 -5.82791,-4.09649 -1.99435,-0.94638 -3.87708,-2.5115 -4.18385,-3.47803 -0.30676,-0.96654 -2.23581,-2.61062 -4.28676,-3.65351 -2.05095,-1.04289 -4.01543,-2.29009 -4.36552,-2.77156 -0.35008,-0.48147 -3.8489,-1.10525 -7.77514,-1.38617 -3.92624,-0.28092 -7.37886,-0.89949 -7.6725,-1.3746 -0.74487,-1.20523 -11.16037,-1.08621 -11.91584,0.13617 -0.33992,0.55 -2.13433,1 -3.98759,1 -1.85325,0 -3.9642,0.5625 -4.69098,1.25 -0.72679,0.6875 -3.45893,2.29407 -6.07143,3.57015 -2.6125,1.27609 -4.75,2.70283 -4.75,3.17055 0,0.46771 -1.35,1.1469 -3,1.5093 -1.65,0.3624 -3,1.29816 -3,2.07946 0,0.78129 -0.5625,1.42094 -1.25,1.42143 -1.42838,10e-4 -8.50173,7.02797 -10.37715,10.30908 -5.584,9.76944 -5.62382,9.91533 -6.12454,22.44003 -0.34011,8.50695 -0.15516,12.25 0.60529,12.25 0.60227,0 1.79315,1.35 2.6464,3 0.85325,1.65 2.22893,3 3.05706,3 0.82814,0 1.75418,0.6475 2.05786,1.43889 0.30369,0.79139 1.86457,1.72715 3.46862,2.07946 1.60405,0.35231 2.91646,1.03441 2.91646,1.51579 0,0.48138 1.57997,1.17164 3.51105,1.53391 1.93107,0.36227 3.7358,1.02235 4.01052,1.46685 0.27471,0.44449 3.41974,1.1209 6.98895,1.50313 3.56921,0.38223 6.48948,1.09254 6.48948,1.57847 0,1.16897 23.71922,1.14684 24.4421,-0.0228 z m 649.55784,82.32301 c -1.375,-0.76296 -3.2964,-1.39384 -4.2699,-1.40195 -3.8841,-0.0324 -17.7301,-10.74492 -17.7301,-13.71769 0,-0.71338 -0.4001,-1.29705 -0.8891,-1.29705 -1.5243,0 -14.1109,-26.72318 -14.1109,-29.95941 0,-1.67232 -0.45,-3.04059 -1,-3.04059 -1.2565,0 -1.3846,-61.64427 -0.1297,-62.41983 0.4786,-0.29583 1.0802,-4.16393 1.3367,-8.59578 0.2566,-4.43184 0.99,-8.58136 1.6298,-9.22115 0.6397,-0.63978 1.1632,-3.00134 1.1632,-5.2479 0,-2.24656 0.9,-6.64532 2,-9.77502 1.1,-3.12969 2,-6.58633 2,-7.68141 0,-1.09508 0.6318,-3.46882 1.4039,-5.27498 0.7721,-1.80616 1.9404,-5.30893 2.5961,-7.78393 0.6557,-2.475 1.824,-5.97777 2.5961,-7.78393 0.7721,-1.80616 1.4039,-3.93162 1.4039,-4.72325 0,-0.79162 0.859,-3.36386 1.9089,-5.71607 1.05,-2.35221 2.4339,-6.30175 3.0755,-8.77675 0.6416,-2.475 1.8076,-5.77397 2.5911,-7.33104 0.7835,-1.55707 1.4245,-3.49095 1.4245,-4.2975 0,-0.80656 2.25,-6.23646 5,-12.06646 2.75,-5.83 5,-11.25813 5,-12.06252 0,-0.80439 1.2941,-4.00051 2.8758,-7.1025 3.023,-5.92865 7.2232,-14.91051 10.1195,-21.63998 0.9468,-2.2 2.8781,-6.49346 4.2916,-9.54103 1.4136,-3.04756 2.8944,-6.87256 3.2908,-8.5 0.3964,-1.62743 1.3286,-3.8466 2.0715,-4.93148 0.7429,-1.08487 1.3508,-2.76447 1.3508,-3.73244 0,-2.28913 11.4688,-13.79505 13.7506,-13.79505 0.5955,0 1.2623,-0.5387 1.4818,-1.1971 0.2744,-0.82316 3.6693,-1.21363 10.8682,-1.25 l 10.4693,-0.0529 3.715,3.60102 c 2.4456,2.37045 3.7151,4.50625 3.7151,6.25 0,1.45694 0.45,2.64898 1,2.64898 0.6133,0 1,4.83333 1,12.5 0,6.875 -0.3854,12.5 -0.8564,12.5 -0.471,0 -1.1578,3.24324 -1.5262,7.2072 -0.3685,3.96396 -1.0536,7.45146 -1.5226,7.75 -0.469,0.29854 -1.1574,3.0178 -1.5298,6.0428 -0.3723,3.025 -1.0862,6.4 -1.5863,7.5 -0.9127,2.00727 -2.103,7.40684 -4.2986,19.5 -0.649,3.575 -1.4843,6.96564 -1.8561,7.53476 -0.3718,0.56912 -0.9936,3.84169 -1.3817,7.27238 -0.3881,3.43069 -1.0607,6.45701 -1.4946,6.72516 -0.4338,0.26815 -1.1075,4.98308 -1.4971,10.47762 -0.3895,5.49454 -1.1003,9.99008 -1.5794,9.99008 -0.4792,0 -0.891,1.9125 -0.9151,4.25 -0.024,2.3375 -0.7081,6.05 -1.5198,8.25 -0.8118,2.2 -1.7532,7.825 -2.092,12.5 -0.3389,4.675 -1.0736,9.0788 -1.6327,9.78623 -0.5591,0.70742 -1.2289,4.75742 -1.4884,9 -0.2594,4.24257 -0.9459,8.30639 -1.5254,9.0307 -0.5796,0.72431 -1.2561,6.22812 -1.5034,12.2307 -0.3682,8.9348 -0.1546,11.36421 1.1779,13.39789 0.8953,1.36626 1.6277,3.53894 1.6277,4.82817 0,1.28923 0.6607,3.21756 1.4682,4.28518 0.8075,1.06762 1.4825,2.73026 1.5,3.69475 0.017,0.9645 0.9318,3.43283 2.0318,5.4852 1.1,2.05236 2,4.25352 2,4.89147 0,1.89488 8.7391,10.60089 9.4639,9.4281 0.3598,-0.58211 1.3304,-1.05839 2.157,-1.05839 1.2663,0 7.5425,-2.7612 13.3791,-5.88606 4.616,-2.47135 6.1078,-3.041 9.6269,-3.67592 2.1302,-0.38434 4.3231,-1.04986 4.8731,-1.47892 0.55,-0.42907 2.6925,-1.09641 4.761,-1.48298 2.0686,-0.38656 4.0077,-1.10183 4.3091,-1.58948 0.7181,-1.16198 34.4299,-1.15713 34.4299,0.005 0,0.49038 1.2147,1.19647 2.6994,1.56909 1.4846,0.37262 3.7131,1.77141 4.9522,3.10841 1.2391,1.337 2.5664,2.43091 2.9496,2.43091 0.3832,0 2.2047,1.5527 4.0478,3.45043 l 3.351,3.45044 v 12.54956 c 0,6.90227 -0.4012,12.54957 -0.8916,12.54957 -0.4904,0 -1.1684,1.10312 -1.5068,2.45137 -0.6856,2.73161 -9.7912,12.15665 -12.6085,13.05083 -0.9946,0.31566 -2.0608,1.2318 -2.3693,2.03587 -0.3086,0.80406 -1.166,1.46193 -1.9053,1.46193 -0.7394,0 -2.6178,1.32924 -4.1743,2.95386 -1.5565,1.62463 -4.3407,3.67074 -6.1871,4.54692 -1.8464,0.87618 -3.3571,2.02194 -3.3571,2.54614 0,0.52419 -1.039,0.95308 -2.3089,0.95308 -1.2698,0 -3.1823,0.66019 -4.25,1.46709 -1.0676,0.8069 -4.0786,1.76487 -6.6911,2.12883 -2.6125,0.36396 -4.75,1.01795 -4.75,1.45332 0,0.43536 -2.9313,1.10548 -6.5139,1.48915 -3.5826,0.38367 -6.7592,1.09449 -7.059,1.5796 -0.3018,0.48834 -18.4837,0.83825 -40.7361,0.78396 -32.264,-0.0787 -40.6841,-0.37165 -42.691,-1.48526 z m 51.7821,-379.81557 c -1.4948,-0.79705 -5.1938,-1.75853 -8.2201,-2.13663 -3.0262,-0.37811 -6.0207,-1.31229 -6.6545,-2.07598 -0.6338,-0.76368 -1.6143,-1.38851 -2.1789,-1.38851 -1.0989,0 -7.7286,-6.4703 -7.7286,-7.5427 0,-0.35301 -0.9,-1.78601 -2,-3.18443 -1.1,-1.39842 -2,-3.40339 -2,-4.45548 0,-1.05209 -1.125,-2.9555 -2.5,-4.22981 -1.375,-1.27431 -2.5,-2.77272 -2.5,-3.32981 0,-0.55708 -0.675,-1.57308 -1.5,-2.25777 -1.7527,-1.45465 -2.1853,-17.45844 -0.5,-18.5 0.55,-0.33992 1,-2.10579 1,-3.92416 0,-1.81837 0.9,-4.45029 2,-5.84871 1.1,-1.39842 2,-2.97253 2,-3.49802 0,-2.0171 14.882,-14.22911 17.3401,-14.22911 0.838,0 2.485,-1.35 3.6599,-3 1.6631,-2.3356 2.8962,-3 5.5681,-3 1.8875,0 3.4319,-0.45 3.4319,-1 0,-0.55 1.8,-1 4,-1 3.5478,0 4,0.26944 4,2.38337 0,2.81217 2.0861,3.58304 9.75,3.60298 2.8875,0.008 5.25,0.40614 5.25,0.88584 0,0.47971 1.8,1.16003 4,1.51182 2.2,0.35179 4,1.04245 4,1.5348 0,0.98739 11.9148,15.29065 15.6469,18.78344 1.2942,1.21124 2.3531,3.12374 2.3531,4.25 0,1.12626 0.6262,2.04775 1.3916,2.04775 0.7654,0 1.701,1.23299 2.0793,2.73998 0.3782,1.50699 0.9895,2.96983 1.3584,3.25076 0.3689,0.28092 1.4582,2.0094 2.4207,3.84106 1.3071,2.48741 1.75,5.71415 1.75,12.74924 0,5.18043 -0.3999,9.41896 -0.8887,9.41896 -0.4888,0 -1.1842,1.575 -1.5453,3.5 -0.3931,2.09508 -1.2405,3.5 -2.1113,3.5 -0.8001,0 -1.4547,0.48553 -1.4547,1.07895 0,0.59342 -2.1009,3.18092 -4.6687,5.75 l -4.6688,4.67105 -19.5812,0.27515 c -15.5873,0.21903 -20.1357,-0.0204 -22.2992,-1.17403 z"
       id="path685" /></g></svg>
