<?xml version="1.0" encoding="UTF-8" standalone="no"?>
<!-- Created with Inkscape (http://www.inkscape.org/) -->

<svg
   version="1.1"
   id="svg62"
   width="1437.535"
   height="639.23389"
   viewBox="0 0 1437.535 639.23389"
   sodipodi:docname="projects.bmp"
   inkscape:export-filename="mati.svg"
   inkscape:export-xdpi="96"
   inkscape:export-ydpi="96"
   xml:space="preserve"
   xmlns:inkscape="http://www.inkscape.org/namespaces/inkscape"
   xmlns:sodipodi="http://sodipodi.sourceforge.net/DTD/sodipodi-0.dtd"
   xmlns="http://www.w3.org/2000/svg"
   xmlns:svg="http://www.w3.org/2000/svg"><defs
     id="defs66" /><sodipodi:namedview
     id="namedview64"
     pagecolor="#ffffff"
     bordercolor="#000000"
     borderopacity="0.25"
     inkscape:showpageshadow="2"
     inkscape:pageopacity="0.0"
     inkscape:pagecheckerboard="0"
     inkscape:deskcolor="#d1d1d1"
     showgrid="false" /><g
     inkscape:groupmode="layer"
     inkscape:label="Image"
     id="g68"><path
       style="fill:#000000"
       d="m 329.08648,636.86924 c -1.40334,-1.30057 -2.55152,-2.70853 -2.55152,-3.1288 0,-0.42027 -1.59758,-2.61867 -3.55019,-4.88533 -5.15466,-5.98372 -5.44919,-6.40636 -5.45597,-7.82899 -0.003,-0.71072 -0.69967,-2.62217 -1.54729,-4.24767 -0.84763,-1.62551 -1.80602,-4.88801 -2.12977,-7.25 -0.32374,-2.362 -0.90908,-4.29454 -1.30074,-4.29454 -0.39166,0 -1.0027,-4.74937 -1.35787,-10.55415 -0.35517,-5.80478 -1.11659,-11.43391 -1.69206,-12.50917 -2.10004,-3.92397 0.35474,-58.62414 3.20181,-71.34629 0.60429,-2.70028 1.51903,-8.10028 2.03275,-12 2.48126,-18.83551 3.75622,-27.4687 4.66531,-31.59039 1.30786,-5.92971 5.08917,-19.11842 5.82081,-20.30224 0.31737,-0.51351 0.96767,-2.45558 1.44512,-4.31571 1.70733,-6.65171 2.74635,-9.98141 5.26797,-16.88205 1.40687,-3.85 2.58174,-8.125 2.61083,-9.5 0.0291,-1.375 0.71359,-3.37351 1.52109,-4.44113 0.80751,-1.06762 1.4682,-3.21957 1.4682,-4.78212 0,-1.56254 0.675,-4.45649 1.5,-6.43099 0.825,-1.97451 1.5,-5.0217 1.5,-6.77154 0,-1.74984 1.07742,-5.40739 2.39426,-8.12788 1.31684,-2.72049 2.63874,-6.07134 2.93754,-7.44634 0.2988,-1.375 1.50968,-5.18494 2.69083,-8.46652 2.00936,-5.58259 2.07283,-6.61217 0.98637,-16 -3.19836,-27.63629 -8.11907,-38.38892 -19.0692,-41.66966 -3.8833,-1.16347 -4.47909,-1.03554 -11.60962,2.49274 -6.60038,3.26595 -16.18146,9.63628 -20.16674,13.40857 -0.73511,0.69582 -2.98511,2.49582 -5,4 -2.01489,1.50418 -4.15189,3.18487 -4.74888,3.73487 -1.048,0.9655 -3.87114,3.2582 -13.41456,10.8941 -15.5942,12.47726 -23.47784,15.60744 -39.29549,15.60216 -9.66264,-0.003 -11.68615,-0.29662 -14.70451,-2.13206 -8.02528,-4.88011 -9.8878,-8.4592 -12.93906,-24.8642 -5.87522,-31.58791 -7.60911,-39.41261 -11.13151,-50.23451 -4.21569,-12.95188 -7.20114,-17.57071 -13.52579,-20.92593 l -4.11361,-2.18227 -3.39502,2.38044 c -1.86725,1.30923 -3.96753,3.16422 -4.66729,4.1222 -0.69975,0.95797 -1.85,2.32638 -2.55611,3.04092 -4.1795,4.22935 -19.21112,40.43597 -21.19368,51.04915 -0.38528,2.0625 -1.06468,3.75 -1.50977,3.75 -0.44509,0 -1.10576,1.35 -1.46816,3 -0.3624,1.65 -1.0336,3 -1.49156,3 -0.45795,0 -1.14297,1.83678 -1.52225,4.08173 -0.37928,2.24496 -1.31606,5.28246 -2.08174,6.75 -0.76567,1.46755 -1.3949,4.35577 -1.39829,6.41827 -0.003,2.0625 -0.42859,3.75 -0.94489,3.75 -0.5163,0 -1.24239,2.025 -1.61354,4.5 -0.37115,2.475 -1.07372,4.5 -1.56127,4.5 -0.48755,0 -0.88646,1.36445 -0.88646,3.03212 0,1.66766 -0.60438,4.48016 -1.34308,6.25 -0.73869,1.76983 -1.67121,4.97004 -2.07227,7.11158 -0.40106,2.14153 -1.37167,4.53618 -2.15692,5.32143 -0.78525,0.78525 -1.42773,2.26903 -1.42773,3.29728 0,1.02826 -0.45,2.14767 -1,2.48759 -0.55,0.33992 -1,1.40283 -1,2.36201 0,0.95919 -1.25829,3.52014 -2.79621,5.69099 -1.53792,2.17085 -3.84437,6.422 -5.12545,9.447 -1.28108,3.025 -3.34343,7.75 -4.58299,10.5 -1.23956,2.75 -2.59373,6.125 -3.00925,7.5 -0.41552,1.375 -1.36988,3.38763 -2.1208,4.47251 -0.75091,1.08487 -1.3653,2.71727 -1.3653,3.62755 0,0.91028 -0.675,2.21525 -1.5,2.89994 -0.825,0.68469 -1.5,2.50229 -1.5,4.03911 0,1.53682 -0.3375,2.94422 -0.75,3.12756 -0.98933,0.4397 -3.807014,6.38357 -5.247444,11.0694 -0.63166,2.05484 -1.56563,3.9939 -2.07551,4.30902 -0.50987,0.31512 -0.92704,1.37725 -0.92704,2.36029 0,2.0712 -2.68873,7.78421 -4.06332,8.63376 -0.51518,0.31839 -0.95195,1.33984 -0.97061,2.26988 -0.0187,0.93004 -0.90339,3.49098 -1.96607,5.69098 -1.06268,2.2 -1.94741,4.59464 -1.96607,5.32143 -0.0187,0.72678 -0.70893,1.99643 -1.53393,2.82143 -0.825,0.825 -1.51431,2.48035 -1.5318,3.67857 -0.0175,1.19821 -0.6925,3.05208 -1.5,4.1197 -0.80751,1.06762 -1.4682,2.94262 -1.4682,4.16667 0,1.22404 -0.46061,2.37907 -1.02358,2.56673 -0.56296,0.18765 -1.31447,2.13381 -1.67002,4.32478 -0.35555,2.19098 -1.24494,4.58209 -1.97642,5.31357 -0.7315,0.73149 -1.32999,2.19783 -1.32999,3.25855 0,1.06071 -0.41425,1.92857 -0.92054,1.92857 -0.5063,0 -1.23327,1.4625 -1.61548,3.25 -0.38221,1.7875 -1.041,3.7 -1.46398,4.25 -0.42298,0.55 -1.08177,2.4625 -1.46398,4.25 -0.38221,1.7875 -1.10918,3.25 -1.61548,3.25 -0.50628,0 -0.92054,1.02487 -0.92054,2.27749 0,1.25263 -0.6175,3.16513 -1.37223,4.25 -0.75472,1.08488 -1.69047,3.43501 -2.07945,5.22251 -0.38898,1.7875 -1.08572,3.25 -1.54832,3.25 -0.4626,0 -1.1376,1.35 -1.5,3 -0.3624,1.65 -1.02307,3 -1.46816,3 -0.44509,0 -1.08994,1.49618 -1.433,3.32484 -0.34306,1.82866 -1.96814,4.61285 -3.61129,6.18709 -1.64315,1.57424 -2.98755,3.4852 -2.98755,4.24659 0,2.25235 -2.73301,4.32389 -6.51407,4.93748 -1.94397,0.31546 -3.77513,0.96291 -4.06923,1.43878 -0.2941,0.47587 -2.93503,0.86522 -5.86873,0.86522 -3.81884,0 -5.4975,-0.42609 -5.9096,-1.5 -0.31658,-0.825 -1.71472,-1.5 -3.10699,-1.5 -1.39226,0 -2.53138,-0.45 -2.53138,-1 0,-0.55 -0.60769,-1 -1.35042,-1 -0.74275,0 -2.38506,-1.35 -3.64958,-3 -1.26452,-1.65 -2.80451,-3 -3.42217,-3 -1.05755,0 -2.6127098,-5.42125 -4.1595598,-14.5 -0.37484,-2.2 -1.151082,-4.9 -1.724972,-6 -0.57391,-1.1 -1.42336,-3.8 -1.88765,-6 -0.46432,-2.2 -1.60069,-7.375 -2.5253,-11.5 -2.41605,-10.77896 -2.42175,-54.27004 -0.009,-68.5 2.90936,-17.15863 3.8148,-21.90069 4.78692,-25.071 0.51792,-1.68905 0.941672,-4.22487 0.941672,-5.63516 0,-2.43122 1.86296,-9.7208 4.1641298,-16.29384 0.57765,-1.65 1.37196,-4.8 1.76515,-7 0.39317,-2.2 1.46992,-5.44015 2.39279,-7.20034 0.92286,-1.76019 1.67793,-4.14061 1.67793,-5.28984 0,-1.14922 0.88049,-3.81541 1.95666,-5.92486 2.45049,-4.80337 6.04217,-14.18883 6.04284,-15.79064 2.7e-4,-0.66312 2.70051,-6.83404 6.0005,-13.71315 3.3,-6.87911 6,-12.70052 6,-12.93647 0,-0.23595 2.025,-4.0299 4.5,-8.43099 2.47501,-4.40109 4.5,-8.40229 4.5,-8.89154 0,-0.48926 3.375,-7.32478 7.5,-15.19005 4.125,-7.86526 7.5,-15.09981 7.5,-16.07676 0,-0.97694 1.02907,-3.30156 2.28681,-5.16581 3.7637,-5.57853 7.71324,-13.04425 7.71324,-14.58004 0,-0.79123 1.97731,-5.34705 4.39403,-10.12405 8.21492,-16.23803 13.60597,-27.43892 13.60597,-28.26889 0,-0.45526 1.125,-2.48553 2.5,-4.51171 1.375,-2.02617 2.5,-4.65616 2.5,-5.84441 0,-1.18825 0.52554,-2.68599 1.16788,-3.32833 1.18669,-1.18668 3.28224,-6.29564 4.812214,-11.73212 1.00775,-3.58086 2.66699,-8.37359 5.01991,-14.5 2.42752,-6.32066 4.04138,-11.00732 4.99311,-14.5 1.81901,-6.67553 9.88734,-25.35961 12.0912,-28 0.91814,-1.1 2.23825,-3.8 2.93356,-6 0.69532,-2.2 5.02576,-11.5325 9.62318,-20.73889 4.59742,-9.20639 8.35895,-17.39909 8.35895,-18.206 0,-0.8069 1.35,-3.7567 3,-6.55511 1.65,-2.79841 3,-5.5282 3,-6.0662 0,-0.53801 1.73759,-4.45571 3.86132,-8.706 2.12372,-4.25029 4.43587,-9.5278 5.13812,-11.7278 0.70224,-2.2 2.78965,-7.02627 4.63868,-10.72504 1.84904,-3.69877 3.36188,-7.64067 3.36188,-8.75978 0,-1.11912 0.9,-2.80536 2,-3.74721 1.1,-0.94185 2,-2.44965 2,-3.35066 0,-0.90102 1.03398,-3.16351 2.29774,-5.02776 2.56575,-3.78492 5.71827,-9.61462 8.05179,-14.88955 1.45609,-3.29149 6.58036,-9.10573 13.35975,-15.15862 1.63775,-1.46224 6.31065,-4.35961 10.38422,-6.4386 7.26229,-3.70639 7.66524,-3.78833 20.69501,-4.20834 L 238.61196,0 l 5.7115,5.97806 c 7.43779,7.78493 14.60821,16.13836 15.10621,17.59852 0.21709,0.63653 1.86435,2.60241 3.66057,4.36862 1.79622,1.7662 4.0677,5.0287 5.04773,7.25 0.98003,2.22129 2.094,4.03871 2.47549,4.03871 0.38148,0 1.44099,1.575 2.35447,3.5 0.91347,1.925 2.04751,3.5 2.5201,3.5 0.47258,0 1.16863,2.2495 1.54677,4.99888 0.37813,2.74939 1.04277,5.21844 1.47696,5.48679 0.43419,0.26834 1.1104,3.08135 1.50269,6.25111 0.39229,3.16977 1.13374,6.27603 1.64767,6.9028 0.55206,0.67325 0.76529,12.54027 0.52108,29 -0.40919,27.58088 -1.77709,47.52681 -3.59088,52.36042 -0.51596,1.375 -1.237,6.21503 -1.60232,10.75562 -0.36531,4.54058 -1.06715,8.50464 -1.55963,8.80901 -0.49248,0.30437 -0.89164,1.53935 -0.88702,2.74439 0.009,2.30237 -2.23098,12.72679 -4.55312,21.19098 -0.75446,2.75 -1.65061,7.18749 -1.99145,9.8611 -0.34083,2.6736 -1.72775,8.25553 -3.08204,12.40428 -1.35429,4.14875 -2.73139,9.61126 -3.06022,12.1389 -0.32883,2.52765 -0.96596,5.06805 -1.41586,5.64533 -0.44989,0.57729 -1.12416,3.05229 -1.49837,5.5 -0.37421,2.44772 -1.18145,5.08205 -1.79386,5.85408 -0.71545,0.90192 -1.1074,7.1576 -1.09648,17.5 0.0142,13.40135 0.30613,16.59859 1.74384,19.09631 0.94976,1.65 1.72961,3.5625 1.733,4.25 0.0143,2.90561 7.75561,-0.9092 9.6996,-4.77983 0.65639,-1.30693 2.02677,-3.07237 3.0453,-3.9232 3.25039,-2.71524 9.26126,-10.82599 9.26126,-12.49665 0,-0.8872 0.675,-1.87211 1.5,-2.18869 0.825,-0.31659 1.5,-1.37236 1.5,-2.34617 0,-0.97382 0.675,-2.33077 1.5,-3.01546 0.82501,-0.68469 1.5,-2.02004 1.5,-2.96746 0,-0.94741 0.82722,-2.47118 1.83825,-3.38615 1.01103,-0.91498 3.59853,-5.5264 5.75,-10.24761 9.61217,-21.09309 23.81217,-49.05873 26.81092,-52.8017 1.80534,-2.25339 5.40264,-8.03458 7.99401,-12.84708 2.59136,-4.8125 5.11345,-8.75 5.60463,-8.75 0.49119,0 1.48012,-1.06605 2.19763,-2.369 0.71752,-1.30295 2.31064,-4.19742 3.54028,-6.43215 1.22964,-2.23473 2.65565,-4.32269 3.16891,-4.6399 0.51326,-0.31722 2.51032,-3.39689 4.4379,-6.84373 1.92757,-3.44683 4.48513,-7.15426 5.68346,-8.23873 1.19833,-1.08447 2.86867,-3.32283 3.71188,-4.97413 0.8432,-1.6513 2.14712,-3.36222 2.89761,-3.80205 0.7505,-0.43983 1.36452,-1.38259 1.36452,-2.09501 0,-0.71243 0.95837,-2.15257 2.12972,-3.20031 1.17134,-1.04775 3.14343,-3.47999 4.38242,-5.40499 1.23899,-1.925 4.44312,-6.06441 7.12029,-9.19868 2.67717,-3.13427 6.66758,-8.2353 8.86758,-11.33561 2.2,-3.10031 6.1375,-8.2787 8.75,-11.50752 2.61249,-3.22882 4.76703,-6.22779 4.78783,-6.66438 0.0208,-0.4366 3.3967,-4.39381 7.50197,-8.79381 4.10526,-4.4 7.71856,-8.7875 8.02954,-9.75 0.31098,-0.9625 1.02862,-1.75 1.59473,-1.75 0.56611,0 3.97587,-2.7 7.57724,-6 3.60136,-3.3 6.96288,-6 7.47004,-6 0.50715,0 2.39704,-1.125 4.19976,-2.5 3.02225,-2.30519 4.10801,-2.5 13.93328,-2.5 6.29909,0 10.65561,0.40106 10.65561,0.98095 0,0.53952 1.23749,1.28451 2.75,1.65553 1.5125,0.37102 3.65,1.624 4.75,2.78439 1.1,1.16039 3.4625,3.14604 5.25,4.41256 1.7875,1.26652 3.25,3.18176 3.25,4.2561 0,1.11315 1.07533,2.4433 2.5,3.09242 1.375,0.6265 2.5,1.91175 2.5,2.85612 0,0.94437 0.60549,2.21955 1.34553,2.83373 2.44787,2.03155 8.65447,18.09362 8.65447,22.39691 0,1.86888 0.3375,3.73317 0.75,4.14287 3.64363,3.61894 5.01264,49.70731 1.9928,67.08842 -2.29534,13.21106 -6.21497,28.51196 -8.36507,32.65429 -0.75775,1.45986 -1.39204,3.70986 -1.40953,5 -0.0175,1.29014 -0.6925,3.21922 -1.5,4.28684 -0.80751,1.06762 -1.4682,3.17856 -1.4682,4.69098 0,1.51242 -0.40784,3.00192 -0.90633,3.30999 -0.49847,0.30807 -1.2287,2.90417 -1.62273,5.76911 -0.39403,2.86494 -1.05087,5.90194 -1.45964,6.74889 -1.57588,3.2651 -3.24598,8.79771 -4.54003,15.0399 -0.74112,3.575 -2.08049,9.875 -2.97637,14 -0.89588,4.125 -2.1961,10.90486 -2.88937,15.06635 -0.69328,4.16149 -1.61749,8.14397 -2.05381,8.84995 -0.43633,0.70599 -1.15126,3.82613 -1.58875,6.93366 -1.24265,8.82667 -2.65675,13.45093 -6.96485,22.77581 -2.19897,4.75966 -3.99812,9.40499 -3.99812,10.32295 0,0.91796 -0.6607,2.54253 -1.4682,3.61015 -0.80751,1.06762 -1.4825,2.8535 -1.5,3.96862 -0.0175,1.11513 -0.71129,2.99761 -1.54179,4.18331 -0.8305,1.18569 -1.79284,4.32332 -2.13856,6.9725 -0.34572,2.64919 -1.10943,5.7167 -1.69715,6.8167 -0.58772,1.1 -1.40609,4.475 -1.8186,7.5 -1.32967,9.75056 -3.31064,19.46102 -4.27663,20.96343 -1.07282,1.66857 -2.14239,6.83775 -3.93892,19.03657 -0.68849,4.675 -1.78468,9.48292 -2.43598,10.68426 -0.65129,1.20134 -1.18417,3.39913 -1.18417,4.88398 0,1.48485 -0.47593,4.55193 -1.05762,6.81574 -1.83481,7.1407 -4.03381,14.95754 -5.51829,19.61602 -0.78869,2.475 -1.43176,5.45754 -1.42904,6.62788 0.003,1.17033 -0.67005,3.74337 -1.49505,5.71788 -0.825,1.9745 -1.50168,4.84196 -1.50374,6.37212 -0.002,1.53017 -0.90205,4.2555 -2,6.05629 -1.09794,1.80079 -1.99626,4.61329 -1.99626,6.25 0,1.63671 -0.45661,2.97583 -1.0147,2.97583 -1.70983,0 -4.9776,6.31542 -4.98156,9.62756 -0.002,1.72015 -0.63312,3.64989 -1.40236,4.2883 -0.76924,0.63841 -1.6488,2.83101 -1.95457,4.87244 -0.99929,6.67145 -3.13414,16.68975 -3.77427,17.7117 -0.34451,0.55 -0.94702,4.07887 -1.3389,7.84193 -0.39189,3.76307 -1.34727,8.36111 -2.12308,10.21789 -0.77581,1.85677 -1.41056,5.1904 -1.41056,7.40806 0,2.21767 -0.42243,4.03212 -0.93873,4.03212 -0.5163,0 -1.24322,2.03053 -1.61538,4.5123 -0.37217,2.48176 -1.04325,4.73885 -1.49129,5.01576 -0.44804,0.27691 -1.12665,3.08387 -1.50801,6.2377 -0.38135,3.15383 -1.08726,6.22964 -1.56867,6.83513 -0.48142,0.60549 -1.16802,3.30549 -1.52578,6 -0.35776,2.69451 -1.25835,5.78674 -2.00131,6.87162 -0.74295,1.08487 -1.35083,2.77848 -1.35083,3.76357 0,1.79894 -0.25494,2.45679 -3.3308,8.59496 -0.91806,1.83207 -1.67197,4.08207 -1.67536,5 -0.003,0.91793 -0.72013,3.01896 -1.59277,4.66896 -0.87263,1.65 -2.45993,5.25 -3.52733,8 -2.84469,7.32892 -5.20661,11.89308 -6.62374,12.79969 -0.6875,0.43983 -1.25,1.90233 -1.25,3.25 -1e-5,1.34767 -0.43617,2.45031 -0.96928,2.45031 -1.38902,0 -8.03073,10.67906 -8.03073,12.91243 0,1.03048 -0.67499,2.13261 -1.5,2.4492 -0.825,0.31658 -1.5,1.06203 -1.5,1.65655 0,0.59452 -1.50796,2.63365 -3.35101,4.53139 -3.27674,3.37394 -3.53053,3.45043 -11.44848,3.45043 -7.12771,0 -8.40303,-0.28319 -10.64899,-2.36467 z m 15.08685,-4.13533 c 0.31659,-0.825 1.20246,-1.5 1.96862,-1.5 0.76616,0 1.39301,-0.46964 1.39301,-1.04364 0,-0.57401 1.125,-2.25691 2.5,-3.73979 1.375,-1.48287 2.5,-3.25449 2.5,-3.93693 0,-0.68244 1.6875,-3.78524 3.75,-6.8951 2.0625,-3.10986 4.0875,-6.2686 4.5,-7.01942 0.4125,-0.75081 1.21402,-2.15262 1.78115,-3.11512 0.56712,-0.9625 2.61379,-5.125 4.54814,-9.25 1.93435,-4.125 4.39534,-9.34929 5.46886,-11.60953 1.07352,-2.26024 1.95186,-5.04619 1.95186,-6.19098 0,-1.1448 0.40837,-2.33385 0.90751,-2.64233 0.49913,-0.30848 1.6885,-3.14754 2.64306,-6.30902 0.95453,-3.16148 2.27508,-6.64814 2.93453,-7.74814 0.65946,-1.1 1.49568,-4.2046 1.85826,-6.89911 0.36258,-2.69451 1.04649,-5.39451 1.51979,-6 0.4733,-0.60549 1.13948,-3.24119 1.48041,-5.85711 0.6555,-5.02959 3.17247,-14.06791 4.7286,-16.98021 0.51031,-0.95504 0.92783,-3.06324 0.92783,-4.6849 0,-1.62166 0.51896,-4.21527 1.15324,-5.76357 0.63429,-1.54831 1.73059,-6.4151 2.43624,-10.8151 0.70565,-4.4 2.0187,-11.15 2.91788,-15 0.89919,-3.85 1.8735,-8.67026 2.16515,-10.7117 0.29164,-2.04143 1.15963,-4.23403 1.92887,-4.87244 0.76924,-0.63841 1.39862,-2.478 1.39862,-4.08796 0,-3.26907 2.05515,-7.79886 4.43406,-9.77318 0.86127,-0.71478 1.56594,-2.35863 1.56594,-3.653 0,-1.29436 0.89832,-3.82676 1.99626,-5.62755 1.09795,-1.80079 1.99795,-4.52612 2,-6.05629 0.002,-1.53016 0.67874,-4.39762 1.50374,-6.37212 0.825,-1.97451 1.49777,-4.54755 1.49505,-5.71788 -0.003,-1.17034 0.64035,-4.15288 1.42904,-6.62788 1.48448,-4.65848 3.68348,-12.47532 5.51829,-19.61602 0.58169,-2.26381 1.05762,-5.33089 1.05762,-6.81574 0,-1.48485 0.53288,-3.68264 1.18417,-4.88398 0.6513,-1.20134 1.74749,-6.00926 2.43598,-10.68426 1.76241,-11.96714 2.86052,-17.35069 3.87338,-18.98953 0.90378,-1.46235 2.94603,-11.37274 4.32966,-21.01047 0.43428,-3.025 1.26437,-6.4 1.84465,-7.5 0.58028,-1.1 1.3379,-4.16751 1.68361,-6.8167 0.34572,-2.64918 1.30807,-5.78681 2.13856,-6.9725 0.8305,-1.1857 1.5243,-3.06818 1.54179,-4.18331 0.0175,-1.11512 0.6925,-2.901 1.5,-3.96862 0.80751,-1.06762 1.4682,-2.69219 1.4682,-3.61015 0,-0.91796 1.77981,-5.52141 3.95513,-10.22989 2.17533,-4.70847 4.66977,-11.8589 5.54322,-15.88984 0.87344,-4.03095 2.0426,-9.12899 2.59811,-11.32899 0.55551,-2.2 1.65263,-7.6 2.43804,-12 0.78542,-4.4 2.1467,-11.15 3.02507,-15 0.87837,-3.85 2.17054,-9.97326 2.8715,-13.60725 0.70095,-3.63398 1.62507,-7.17456 2.05361,-7.86794 0.76342,-1.23524 1.24105,-2.90351 4.01533,-14.02481 1.92008,-7.69707 3.12816,-11.94153 4.55399,-16 6.83279,-19.44883 7.72562,-22.75584 10.6642,-39.5 2.89798,-16.51276 1.59779,-55.54661 -1.96819,-59.08842 -0.4125,-0.4097 -0.75,-2.27399 -0.75,-4.14287 0,-3.08184 -0.9027,-5.83275 -5.74869,-17.51871 -0.85528,-2.0625 -1.92814,-3.75 -2.38414,-3.75 -0.45599,0 -1.10549,-1.10131 -1.44332,-2.44737 -0.33784,-1.34605 -1.69641,-3.15642 -3.01905,-4.02305 -1.32264,-0.86663 -2.4048,-2.42861 -2.4048,-3.47107 0,-1.08747 -1.49189,-2.81743 -3.5,-4.05851 -1.925,-1.18972 -3.5,-2.50283 -3.5,-2.91804 0,-0.41521 -2.36896,-1.9535 -5.26436,-3.41844 -3.88023,-1.96322 -6.77238,-2.66352 -11,-2.66352 -3.1546,0 -5.73564,0.37024 -5.73564,0.82274 0,0.45251 -2.025,1.83408 -4.5,3.07016 -2.475,1.23607 -4.5,2.63551 -4.5,3.10987 0,0.47435 -0.79292,1.11412 -1.76204,1.42171 -2.47269,0.78479 -16.23796,14.51074 -16.23796,16.19156 0,0.76118 -0.675,1.38396 -1.5,1.38396 -0.82501,0 -1.5,0.45117 -1.5,1.0026 0,0.55143 -1.8,2.6288 -4,4.61636 -2.20001,1.98757 -4,4.03111 -4,4.54121 0,0.51009 -2.13751,3.5692 -4.75,6.79802 -2.6125,3.22882 -6.55,8.40721 -8.75,11.50752 -2.20001,3.10031 -6.19042,8.20134 -8.86758,11.33561 -2.67717,3.13427 -5.8813,7.27368 -7.12029,9.19868 -1.23899,1.925 -3.21108,4.35724 -4.38242,5.40499 -1.17134,1.04774 -2.12971,2.49437 -2.12971,3.21472 0,0.72036 -0.91401,2.33811 -2.03113,3.59501 -5.4588,6.14184 -8.91053,10.72718 -11.50637,15.28528 -1.56613,2.75 -3.68488,6.125 -4.70834,7.5 -3.7897,5.09143 -6.75416,10.12879 -6.75416,11.47702 0,0.76351 -0.7875,1.6397 -1.75,1.94708 -0.9625,0.30738 -3.73061,4.2752 -6.15136,8.81739 -2.42074,4.54218 -5.88198,10.1022 -7.69164,12.35559 -3.00404,3.74065 -17.18222,31.65514 -26.81876,52.8017 -2.15146,4.72121 -4.73896,9.33263 -5.75,10.24761 -1.01103,0.91497 -1.83824,2.43874 -1.83824,3.38615 0,0.94742 -0.675,2.28277 -1.5,2.96746 -0.825,0.68469 -1.5,2.10391 -1.5,3.15383 0,1.04992 -0.675,2.16796 -1.5,2.48454 -0.825,0.31659 -1.5,1.23923 -1.5,2.05032 0,0.81109 -1.575,3.3968 -3.5,5.74601 -1.925,2.3492 -3.5,4.71521 -3.5,5.25778 0,0.54257 -1.125,1.49907 -2.5,2.12557 -1.375,0.62649 -2.5,1.68222 -2.5,2.34606 0,1.60204 -4.0278,5.83589 -5.55187,5.83589 -0.66178,0 -1.76344,0.675 -2.44813,1.5 -1.25447,1.51155 -7.42745,2.04067 -10.41821,0.89301 -0.86999,-0.33384 -1.58456,-1.34634 -1.58795,-2.25 -0.003,-0.90365 -0.76087,-2.99301 -1.68329,-4.64301 -1.32509,-2.37028 -1.76442,-6.49802 -2.093,-19.66479 -0.24031,-9.6297 0.0218,-18.49491 0.62081,-21 0.57018,-2.38437 1.52284,-6.36021 2.11704,-8.83521 0.5942,-2.475 1.48732,-5.4 1.98473,-6.5 0.4974,-1.1 1.17042,-3.91718 1.4956,-6.2604 0.32518,-2.34322 1.6751,-7.58073 2.99982,-11.6389 1.32472,-4.05818 2.68745,-9.566 3.02828,-12.2396 0.34084,-2.67361 1.24219,-7.1111 2.00301,-9.8611 0.76082,-2.75 2.12123,-8.6 3.02314,-13 0.90191,-4.4 2.04247,-9.35 2.53458,-11 0.49211,-1.65 1.17375,-6.15 1.51476,-10 0.34101,-3.85 1.03315,-8.125 1.53809,-9.5 2.53775,-6.91051 5.31996,-73 3.07313,-73 -0.50465,0 -1.23028,-2.92027 -1.61251,-6.48948 -0.38223,-3.56921 -1.05773,-6.71368 -1.50111,-6.9877 -0.44338,-0.27403 -1.11064,-2.52876 -1.48281,-5.01052 -0.37216,-2.48177 -1.06876,-4.5123 -1.548,-4.5123 -0.47923,0 -1.17838,-1.0125 -1.55366,-2.25 -0.37527,-1.2375 -1.47473,-3.15 -2.44323,-4.25 -0.9685,-1.1 -2.55319,-3.70887 -3.52154,-5.79748 -0.96834,-2.08862 -3.27421,-5.22514 -5.12415,-6.97005 -1.84994,-1.74491 -3.36723,-3.63604 -3.37176,-4.20252 -0.008,-1.0086 -4.93575,-6.67176 -15.13706,-17.3963 l -5.10453,-5.36634 -8.67498,0.41475 c -7.56992,0.36192 -9.72033,0.91583 -16.88131,4.34828 -4.51349,2.16344 -8.45886,4.72916 -8.7675,5.70159 -0.30864,0.97244 -1.21341,1.76807 -2.0106,1.76807 -2.05514,0 -10.26347,8.82944 -12.08551,13 -2.25997,5.17297 -5.43331,11.05524 -8.03254,14.88955 -1.26377,1.86425 -2.29775,4.3435 -2.29775,5.50945 0,1.16595 -0.9,2.68197 -2,3.36893 -1.1,0.68696 -2,2.15644 -2,3.26551 0,1.10907 -1.51284,5.04275 -3.36188,8.74152 -1.84903,3.69877 -3.93644,8.52504 -4.63868,10.72504 -0.70225,2.2 -3.0144,7.47751 -5.13812,11.7278 -2.12373,4.25029 -3.86132,8.16799 -3.86132,8.706 0,0.538 -1.35,3.26779 -3,6.0662 -1.65,2.79841 -3,5.74821 -3,6.55511 0,0.80691 -3.76153,8.99961 -8.35895,18.206 -4.59742,9.20639 -8.92786,18.53889 -9.62318,20.73889 -0.69531,2.2 -2.01542,4.9 -2.93356,6 -2.20386,2.64039 -10.27219,21.32447 -12.0912,28 -1.21367,4.45397 -3.0124,9.47087 -5.11871,14.27675 -1.03092,2.35221 -1.88871,5.27721 -1.9062,6.5 -0.0175,1.22279 -0.6925,3.09676 -1.5,4.16438 -0.80751,1.06762 -1.48251,3.09262 -1.5,4.5 -0.0175,1.40738 -0.6925,3.43238 -1.5,4.5 -0.80751,1.06762 -1.4682,2.70002 -1.4682,3.62755 0,0.92754 -0.675,2.24663 -1.5,2.93132 -0.825,0.68469 -1.500004,2.38481 -1.500004,3.77805 0,1.39324 -1.125,4.00812 -2.5,5.81084 -1.375,1.80272 -2.5,3.78104 -2.5,4.39627 0,0.61523 -0.97707,3.00776 -2.17126,5.31672 -1.1942,2.30897 -2.46483,4.87312 -2.82364,5.69812 -0.35881,0.825 -1.35853,2.85 -2.2216,4.5 -5.99444,11.46002 -10.7835,21.58996 -10.7835,22.80951 0,1.53579 -3.94954,9.00151 -7.71319,14.58004 -1.25774,1.86425 -2.28681,4.49478 -2.28681,5.84563 0,1.35084 -0.83607,3.65055 -1.85794,5.11045 -2.8788,4.11284 -13.14206,24.64171 -13.14206,26.28713 0,0.80698 -0.41747,1.89474 -0.9277,2.41724 -1.9952,2.04315 -8.0723,13.74676 -8.0723,15.54607 0,1.04716 -0.37308,1.90393 -0.82906,1.90393 -0.45599,0 -1.87114,2.3625 -3.14478,5.25 -1.27364,2.8875 -3.60057,7.78799 -5.17094,10.88998 -1.57037,3.10199 -2.85522,6.59559 -2.85522,7.76357 0,1.16797 -0.4171,2.90498 -0.9269,3.86002 -2.84084,5.32199 -7.0731,15.72659 -7.0731,17.38854 0,1.06016 -0.9,3.69171 -2,5.84789 -1.09999,2.15618 -2.01595,5.17575 -2.03544,6.71016 -0.0195,1.53441 -0.67854,3.91484 -1.46456,5.28984 -0.78602,1.375 -1.44507,3.8725 -1.46456,5.55 -0.0195,1.6775 -0.47845,3.49301 -1.0199,4.03446 -0.54146,0.54146 -1.45722,3.89396 -2.03502,7.45 -2.47156,15.21104 -2.9229298,17.66841 -3.9427498,21.46554 -3.753282,13.97466 -4.818972,56.80169 -1.754282,70.5 0.922882,4.125 2.073812,9.3 2.557602,11.5 0.48381,2.2 1.3425098,5.125 1.9082298,6.5 0.5657,1.375 2.06714,6.01739 3.33652,10.31643 1.26936,4.29903 3.34434,8.93472 4.61106,10.30152 1.26671,1.3668 2.30311,2.91191 2.30311,3.43357 0,0.52166 0.9,0.94848 2,0.94848 1.09999,0 2,0.45 2,1 0,0.55 0.86786,1 1.92857,1 1.06072,0 2.64825,0.71969 3.52787,1.59931 1.07623,1.07623 1.99902,1.28486 2.82144,0.63788 0.67217,-0.52878 2.51398,-1.27068 4.09292,-1.64867 2.95157,-0.7066 5.6292,-2.76624 5.6292,-4.33 0,-0.48639 1.31359,-2.14284 2.91909,-3.68101 1.6055,-1.53817 3.20031,-3.98486 3.54401,-5.43709 0.55543,-2.34679 4.33216,-10.79763 8.176,-18.29471 0.74849,-1.45986 1.36089,-3.33589 1.36089,-4.16896 0,-0.83307 0.75114,-3.01364 1.6692,-4.84571 2.99782,-5.98242 3.33075,-6.78791 3.33456,-8.06747 0.002,-0.69496 1.35038,-3.96357 2.99624,-7.26357 1.64586,-3.3 2.99417,-6.60699 2.99624,-7.34887 0.004,-1.39139 2.04227,-6.51853 4.56494,-11.48217 0.79135,-1.55707 1.43882,-3.51264 1.43882,-4.34571 0,-0.83307 0.65646,-2.7091 1.4588,-4.16896 2.46469,-4.4845 5.5412,-11.967 5.5412,-13.47698 0,-0.78783 0.60085,-1.93108 1.33522,-2.54055 0.73437,-0.60947 1.96698,-3.02707 2.73914,-5.37245 0.77216,-2.34537 2.19631,-5.82196 3.16478,-7.72575 0.96848,-1.90379 1.76086,-3.97427 1.76086,-4.60106 0,-0.62679 1.125,-3.25546 2.5,-5.84148 1.375,-2.58601 2.5,-5.52294 2.5,-6.52649 0,-1.00355 0.675,-2.38484 1.5,-3.06953 0.825,-0.68469 1.500004,-1.80255 1.500004,-2.48413 0,-1.07668 1.68234,-5.14512 7.44972,-18.01587 0.73936,-1.65 2.38235,-5.475 3.65108,-8.5 1.26873,-3.025 3.56507,-7.27615 5.10299,-9.447 1.53792,-2.17085 2.79621,-4.55212 2.79621,-5.2917 0,-0.73959 1.35,-4.23217 3,-7.7613 1.65,-3.52913 3,-7.05541 3,-7.83618 0,-0.78076 0.675,-3.03507 1.5,-5.00958 0.825,-1.9745 1.5,-4.9279 1.5,-6.5631 0,-1.63521 0.39899,-3.21969 0.88664,-3.52108 0.48765,-0.30138 1.20292,-2.24044 1.58948,-4.30901 0.38657,-2.06858 1.05042,-4.21105 1.47522,-4.76105 0.4248,-0.55 1.06012,-3.2046 1.41182,-5.89911 0.3517,-2.69451 1.0369,-5.39451 1.52268,-6 0.48577,-0.60549 1.21214,-2.67589 1.61416,-4.60089 0.40202,-1.925 1.03689,-3.95 1.41083,-4.5 0.96971,-1.42628 4.48506,-10.66654 7.60878,-20 1.47259,-4.4 4.85538,-12.95 7.51731,-19 2.66192,-6.05 5.12381,-12.125 5.47085,-13.5 0.88052,-3.48863 8.43028,-13.04163 12.44504,-15.74718 2.50934,-1.69105 4.78288,-2.25282 9.11733,-2.25282 4.97934,0 6.35745,0.44748 10.00921,3.25 2.32916,1.7875 5.08618,4.39934 6.12673,5.8041 2.42603,3.27518 9.38863,23.79127 10.69558,31.51574 0.55185,3.26159 1.64415,9.08016 2.42735,12.93016 0.78319,3.85 1.98526,10.375 2.67126,14.5 3.1744,19.08818 5.56192,24.49803 12.85203,29.12128 3.67951,2.33348 5.6568,2.87872 10.43957,2.87872 14.25644,0 20.84466,-3.86391 58.70813,-34.43159 5.775,-4.66223 14.0225,-10.2974 18.32778,-12.5226 6.7143,-3.47031 8.72323,-4.04581 14.12288,-4.04581 17.09506,0 22.9875,8.52094 27.02449,39.07959 2.60621,19.72807 2.24546,23.27524 -4.00905,39.42041 -1.49146,3.85 -3.11246,9.67714 -3.60223,12.9492 -0.48976,3.27207 -1.34949,6.23289 -1.9105,6.57962 -0.56101,0.34672 -1.3921,2.98416 -1.84686,5.86096 -0.45477,2.8768 -1.33977,5.74348 -1.96668,6.37039 -0.6269,0.6269 -1.13983,2.57339 -1.13983,4.32552 0,1.75213 -0.67223,4.47463 -1.49384,6.05 -0.8216,1.57537 -1.51092,3.76431 -1.53179,4.86431 -0.0209,1.1 -0.69867,2.87351 -1.50617,3.94113 -0.8075,1.06762 -1.4682,2.98623 -1.4682,4.26357 0,1.27734 -0.39566,3.10383 -0.87924,4.05887 -1.69736,3.35214 -6.33844,18.68452 -8.24439,27.23643 -0.91794,4.11877 -2.18029,12.6476 -4.67569,31.59039 -0.51373,3.89972 -1.42846,9.29972 -2.03275,12 -2.70255,12.07635 -5.1452,59.71503 -3.24401,63.26744 0.56044,1.04719 1.3177,6.34507 1.68281,11.77307 0.36511,5.42801 0.99153,10.3191 1.39204,10.8691 0.40051,0.55 1.02309,2.93215 1.38352,5.29367 0.36042,2.36153 1.06065,5.06153 1.55607,6 0.49541,0.93848 1.87477,3.70524 3.06524,6.14835 1.19046,2.44311 3.92666,6.44397 6.08045,8.89079 2.15378,2.44682 3.91596,4.80242 3.91596,5.23466 0,2.10374 9.84349,2.50396 10.63836,0.43253 z M 1048.035,614.58945 c -2.2,-0.2251 -4.9,-0.82094 -6,-1.32409 -1.1,-0.50315 -4.025,-1.34843 -6.5,-1.87841 -4.1039,-0.87876 -8.1313,-2.14087 -13.5,-4.23062 -1.1,-0.42817 -3.6423,-1.04778 -5.6495,-1.37692 -2.0073,-0.32913 -4.1999,-1.26152 -4.8725,-2.07196 -0.6726,-0.81045 -1.7794,-1.47354 -2.4597,-1.47354 -1.0933,0 -3.429,-1.14905 -16.03399,-7.88778 -6.2004,-3.3148 -24.4694,-21.43568 -24.497,-24.29845 -0.01,-0.72257 -1.3136,-3.87871 -2.9036,-7.01364 -1.59,-3.13493 -3.2144,-7.63493 -3.6098,-10 -0.3954,-2.36507 -1.2095,-4.61091 -1.8093,-4.99074 -1.4841,-0.93994 -2.1593,-66.68766 -0.7887,-76.80939 0.5585,-4.125 1.7312,-11.325 2.606,-16 0.8748,-4.675 2.2225,-13.225 2.9949,-19 0.7723,-5.775 2.1202,-15.45 2.9952,-21.5 2.205,-15.24568 3.3902,-30.00874 3.4647,-43.15828 l 0.063,-11.15829 -14.8232,-0.34171 c -12.4869,-0.28786 -15.0988,-0.61754 -16.5714,-2.09172 -0.9616,-0.9625 -2.4155,-1.75 -3.2311,-1.75 -0.8155,0 -2.9209,-1.34792 -4.6785,-2.99537 -1.7577,-1.64746 -3.5033,-2.99746 -3.8791,-3 -1.1381,-0.008 -10.8167,-9.79638 -10.8167,-10.93971 0,-0.5857 -0.675,-1.06492 -1.5,-1.06492 -0.825,0 -1.5,-0.50796 -1.5,-1.1288 0,-0.62084 -1.5976,-2.98334 -3.5502,-5.25 -5.05884,-5.87249 -5.44984,-6.41621 -5.44984,-7.57899 0,-0.57322 -0.675,-1.04221 -1.5,-1.04221 -0.825,0 -1.5,-0.61844 -1.5,-1.37431 0,-0.75587 -1.5578,-3.11837 -3.4617,-5.25 -5.3259,-5.96293 -5.5383,-6.23558 -5.5383,-7.11062 0,-0.45064 -1.2779,-2.21846 -2.8398,-3.92848 -3.1852,-3.48767 -7.1599,-10.63053 -7.1599,-12.86738 0,-0.80807 -0.45,-1.46921 -1,-1.46921 -0.6032,0 -1,-4.16667 -1,-10.5 0,-5.775 0.3849,-10.5 0.8554,-10.5 0.4705,0 1.1212,-2.84621 1.446,-6.32491 0.8608,-9.21824 2.6227,-12.02824 16.4921,-26.30285 4.0114,-4.12863 8.62394,-7.97039 10.25004,-8.53725 1.6261,-0.56685 2.9565,-1.41623 2.9565,-1.8875 0,-0.47128 1.6875,-1.16093 3.75,-1.53257 2.0625,-0.37163 4.2678,-1.08501 4.9006,-1.58527 0.6416,-0.50719 10.1529,-0.74451 21.5,-0.53646 20.5163,0.37618 30.5838,1.74361 32.1491,4.36673 0.4398,0.73704 1.2619,1.34008 1.8269,1.34008 1.4858,0 6.8706,5.60711 6.8887,7.17308 0.011,0.98697 0.2637,0.94263 0.9847,-0.17308 0.5332,-0.825 0.9763,-4.28594 0.9847,-7.69098 0.01,-3.40504 0.4653,-6.4691 1.0153,-6.80902 0.5721,-0.35357 1,-5.49874 1,-12.02407 0,-7.04826 0.5334,-13.04314 1.396,-15.69098 0.7679,-2.35672 1.6164,-7.32683 1.8857,-11.04468 0.2692,-3.71785 0.9391,-7.31785 1.4885,-8 0.5493,-0.68215 1.3324,-2.81527 1.74,-4.74027 0.4076,-1.925 1.022,-3.725 1.3654,-4 0.852,-0.68229 2.9404,-4.0699 4.00709,-6.5 1.131,-2.57679 9.6657,-11.5 10.9992,-11.5 0.5603,0 1.3786,-0.5625 1.8184,-1.25 2.2376,-3.4976 7.3476,-4.75 19.3807,-4.75 6.5555,0 11.919,0.39891 11.919,0.88646 0,0.48755 2.1375,1.20466 4.75,1.59358 2.6125,0.38892 5.2,1.06306 5.75,1.49807 0.55,0.43502 2.4625,1.10366 4.25,1.48587 1.7875,0.38221 3.25,1.10918 3.25,1.61548 0,0.50629 0.517,0.92054 1.149,0.92054 1.7094,0 7.4927,6.28441 8.3499,9.0733 0.4102,1.33469 1.1336,2.91416 1.6075,3.50995 0.474,0.59578 1.1615,5.65828 1.528,11.25 0.3664,5.59171 1.0486,10.16675 1.5159,10.16675 1.2251,0 1.0828,33.75516 -0.1441,34.16667 -0.5466,0.18333 -1.2255,4.60833 -1.5088,9.83333 -0.2832,5.225 -0.2485,8.9375 0.077,8.25 0.6824,-1.44046 17.4255,-1.81755 17.4255,-0.39246 0,0.47165 2.6343,1.13289 5.854,1.46941 5.5604,0.58117 16.7749,5.29397 19.9674,8.3911 0.7268,0.70507 1.7857,1.28195 2.3532,1.28195 1.3559,0 14.8254,13.61929 14.8254,14.99033 0,0.58254 1.125,1.4869 2.5,2.00967 1.375,0.52277 2.5,1.60449 2.5,2.40382 0,0.79933 0.7875,2.24157 1.75,3.20499 1.4959,1.49729 1.75,3.73647 1.75,15.41898 0,8.70118 -0.4122,14.1769 -1.1345,15.06976 -0.624,0.77135 -1.464,2.94121 -1.8667,4.82193 -0.4027,1.88071 -1.8096,4.58071 -3.1265,6 -1.3169,1.41928 -2.6447,3.36802 -2.9507,4.33052 -0.306,0.9625 -1.2011,1.75 -1.989,1.75 -0.7879,0 -1.4326,0.45 -1.4326,1 0,1.23268 -3.6751,5 -4.8776,5 -0.4826,0 -1.3986,0.62793 -2.0356,1.39539 -0.6369,0.76747 -2.717,1.68786 -4.6224,2.04532 -1.9054,0.35745 -3.4644,1.07953 -3.4644,1.6046 0,0.52508 -1.0125,0.969 -2.25,0.98649 -1.2375,0.0175 -3.1235,0.6925 -4.1911,1.5 -1.3949,1.05501 -4.6524,1.4682 -11.5751,1.4682 -10.295,0 -9.7526,0.22125 -15.5493,-6.34244 -3.0404,-3.44267 -5.4345,-2.89111 -5.4345,1.25204 0,1.6348 -0.3844,3.20996 -0.8543,3.50035 -0.4699,0.2904 -1.1471,3.32927 -1.5049,6.75306 -0.3579,3.42379 -1.1683,6.54494 -1.8008,6.93588 -3.6866,2.27844 -0.8149,123.40948 2.9555,124.66628 0.6625,0.22082 1.2045,1.039 1.2045,1.81816 0,0.77917 0.6269,1.41667 1.393,1.41667 0.7662,0 1.652,0.675 1.9686,1.5 0.3166,0.825 1.2273,1.5 2.0237,1.5 0.7964,0 1.6323,0.55267 1.8574,1.22816 0.2815,0.8445 3.9782,1.34635 11.8334,1.60648 6.2831,0.20807 11.8739,0.72093 12.4239,1.13969 0.55,0.41876 5.725,1.07161 11.5,1.45077 5.775,0.37917 10.65,1.11364 10.8333,1.63215 0.1834,0.51851 2.0251,0.94275 4.0927,0.94275 2.1534,0 5.6422,1.06084 8.1667,2.48327 2.424,1.3658 5.4198,2.92966 6.6573,3.47525 1.2375,0.54559 2.25,1.45312 2.25,2.01673 0,0.56361 0.6134,1.02475 1.3632,1.02475 1.151,0 5.5345,4.41685 12.1572,12.25 0.8138,0.9625 1.4796,2.27707 1.4796,2.92126 0,0.64419 0.6239,1.88169 1.3864,2.75 0.7625,0.86831 2.7875,4.22959 4.5,7.46951 3.0517,5.77359 3.1136,6.16646 3.1136,19.75 0,7.77533 -0.4041,13.85923 -0.9205,13.85923 -0.5063,0 -1.2373,1.4625 -1.6244,3.25 -0.3871,1.7875 -1.4877,4.375 -2.4458,5.75 -0.958,1.375 -2.9936,5.07414 -4.5233,8.2203 -1.5406,3.16844 -5.9498,9.06676 -9.8837,13.22179 -3.9063,4.12582 -9.1273,9.75546 -11.6023,12.51032 -2.475,2.75485 -5.0625,5.01755 -5.75,5.02821 -0.6875,0.0107 -1.25,0.69438 -1.25,1.51938 0,0.825 -0.5748,1.5 -1.2773,1.5 -0.7025,0 -2.4094,1.29011 -3.793,2.86691 -1.3836,1.5768 -3.5088,3.18212 -4.7227,3.56739 -1.2138,0.38526 -2.207,1.06218 -2.207,1.50426 0,0.44208 -2.2162,1.09776 -4.9248,1.45708 -2.7087,0.35932 -5.1086,1.20479 -5.3332,1.87883 -0.3097,0.92951 -8.1178,1.25751 -32.3252,1.35793 -17.5542,0.0728 -33.7168,-0.0518 -35.9168,-0.27686 z m 63.6463,-6.06168 c 0.7991,-0.66338 3.3431,-1.50839 5.6533,-1.87781 2.3102,-0.36942 4.2004,-1.03383 4.2004,-1.47647 0,-0.44264 0.9444,-1.10455 2.0987,-1.47091 1.1543,-0.36636 2.8974,-1.40919 3.8736,-2.31739 7.2176,-6.71486 10.124,-9.15128 10.9163,-9.15128 0.5029,0 2.1962,-1.61288 3.7629,-3.58417 1.5667,-1.97129 6.0594,-7.03379 9.9839,-11.25 3.9244,-4.21621 8.3696,-10.14083 9.8782,-13.16583 1.5086,-3.025 3.5292,-6.625 4.4903,-8 0.9611,-1.375 2.063,-3.95734 2.4487,-5.73853 0.3857,-1.7812 1.1167,-3.49525 1.6243,-3.80902 0.5077,-0.31377 0.9231,-4.75558 0.9231,-9.8707 0,-8.48643 -0.2715,-9.80908 -3.1034,-15.11576 -1.7068,-3.19855 -3.7318,-6.44404 -4.5,-7.2122 -0.7681,-0.76816 -1.3966,-2.0395 -1.3966,-2.82522 0,-0.78571 -0.4197,-1.42857 -0.9326,-1.42857 -0.5129,0 -1.2391,-0.96551 -1.6136,-2.14558 -0.8904,-2.80525 -8.3293,-10.85442 -10.0315,-10.85442 -0.7276,0 -1.6828,-0.59644 -2.1226,-1.32541 -0.4398,-0.72898 -1.4747,-1.6348 -2.2997,-2.01294 -0.825,-0.37813 -3.4833,-1.8067 -5.9073,-3.17458 -2.459,-1.38767 -6.0175,-2.48707 -8.05,-2.48707 -2.0035,0 -4.0702,-0.42606 -4.5927,-0.9468 -0.5225,-0.52075 -5.225,-1.2298 -10.45,-1.57568 -5.225,-0.34589 -10.4,-1.01665 -11.5,-1.49059 -1.1,-0.47395 -7.1499,-1.03964 -13.4443,-1.2571 -7.5187,-0.25975 -11.5777,-0.79575 -11.8333,-1.5626 -0.214,-0.64198 -0.8686,-1.16723 -1.4547,-1.16723 -0.5861,0 -2.6477,-1.62901 -4.5814,-3.62003 -3.38,-3.48026 -3.549,-4.01117 -4.3781,-13.75 -2.9786,-34.98937 -3.6237,-119.73756 -0.9359,-122.97606 0.6919,-0.83368 1.518,-4.03505 1.8358,-7.11416 0.3177,-3.07911 0.9634,-5.83675 1.4348,-6.12808 0.4714,-0.29134 0.8571,-1.78429 0.8571,-3.31768 0,-4.37111 3.0197,-7.09399 7.8673,-7.09399 2.273,0 4.1327,0.36297 4.1327,0.80659 0,0.44362 1.9668,2.91862 4.3707,5.5 4.1298,4.43471 4.6587,4.69341 9.5957,4.69341 2.8738,0 6.4194,-0.6347 7.8793,-1.41045 4.8382,-2.57097 9.9344,-4.58955 11.5868,-4.58955 0.8967,0 1.8893,-0.675 2.2059,-1.5 0.3166,-0.825 0.9875,-1.5 1.491,-1.5 1.3582,0 11.8706,-11.28791 11.8706,-12.74624 0,-0.68957 0.4142,-1.25376 0.9205,-1.25376 0.5063,0 1.2333,-1.4625 1.6155,-3.25 0.3822,-1.7875 1.1813,-3.85253 1.7757,-4.58896 0.5945,-0.73643 1.2686,-5.26572 1.4981,-10.0651 0.3338,-6.98244 0.1046,-9.03867 -1.147,-10.29023 -0.8602,-0.86026 -1.8601,-2.74347 -2.2218,-4.18491 -0.3618,-1.44144 -1.2737,-2.6208 -2.0264,-2.6208 -0.7527,0 -2.1633,-1.21296 -3.1346,-2.69546 -2.3103,-3.52593 -11.1054,-12.30454 -12.3276,-12.30454 -0.5238,0 -0.9524,-0.44143 -0.9524,-0.98095 0,-0.53952 -1.125,-1.2633 -2.5,-1.60841 -1.375,-0.3451 -2.5,-1.02867 -2.5,-1.51905 0,-0.49037 -0.675,-0.89159 -1.5,-0.89159 -0.825,0 -1.5,-0.36978 -1.5,-0.82174 0,-1.54143 -9.9335,-5.3159 -15.5029,-5.89072 -3.0557,-0.31537 -5.7941,-0.95908 -6.0854,-1.43047 -0.7437,-1.20323 -7.4117,-1.07464 -7.4117,0.14293 0,0.55 -2.5388,1 -5.6418,1 h -5.6418 l 0.518,-13.57623 c 0.3061,-8.02237 0.9778,-14.03596 1.6418,-14.7 1.3243,-1.32428 1.5853,-24.72377 0.2758,-24.72377 -0.4665,0 -1.1425,-4.81157 -1.5023,-10.69238 -0.3598,-5.8808 -1.0425,-10.9433 -1.5172,-11.25 -0.4746,-0.30669 -1.2042,-1.64963 -1.6212,-2.98432 -0.8737,-2.79606 -6.659,-9.0733 -8.3623,-9.0733 -0.632,0 -1.149,-0.45 -1.149,-1 0,-0.55 -0.5625,-1.00277 -1.25,-1.00616 -0.6875,-0.003 -2.4851,-0.65046 -3.9947,-1.43793 -1.5095,-0.78747 -4.7776,-1.73662 -7.2623,-2.10922 -2.4847,-0.37261 -4.7636,-1.07554 -5.0643,-1.56208 -0.766,-1.23945 -16.4287,-1.12944 -16.4287,0.11539 0,0.55 -0.6794,1 -1.5098,1 -0.8304,0 -2.2804,0.9 -3.2222,2 -0.9419,1.1 -2.0878,2 -2.5465,2 -1.6284,0 -10.303,9.56222 -12.2469,13.5 -1.086,2.2 -2.2979,4.14525 -2.6929,4.32278 -0.3951,0.17753 -1.0225,1.97753 -1.39429,4 -0.3717,2.02247 -1.1082,3.95799 -1.6367,4.30115 -0.5284,0.34316 -1.1853,3.71816 -1.4597,7.5 -0.2744,3.78184 -1.1271,8.8043 -1.895,11.16102 -0.8626,2.64784 -1.396,8.64272 -1.396,15.69098 0,6.27332 -0.3824,11.64238 -0.8498,11.93123 -0.4674,0.28886 -1.12,4.69545 -1.4502,9.79242 -0.3302,5.09696 -1.0728,9.42468 -1.6502,9.61715 -0.5774,0.19246 -1.0498,1.88744 -1.0498,3.7666 0,2.93705 -0.3359,3.41667 -2.393,3.41667 -2.4386,0 -3.607,-1.64613 -3.607,-5.08179 0,-1.05501 -0.4012,-1.91821 -0.8916,-1.91821 -0.4904,0 -1.1884,-1.18266 -1.5512,-2.62813 -0.6929,-2.76084 -5.6731,-8.37187 -7.4306,-8.37187 -0.565,0 -1.3871,-0.5874 -1.8269,-1.30534 -1.5499,-2.52989 -10.7665,-4.02705 -27.1401,-4.40869 -9.2386,-0.21534 -16.8443,0.0242 -17.5,0.55111 -0.6378,0.51259 -2.6221,1.24469 -4.4096,1.6269 -1.7875,0.38221 -3.25,1.06039 -3.25,1.50707 0,0.44667 -1.2147,1.11701 -2.6994,1.48963 -1.4846,0.37262 -3.6511,1.65891 -4.8144,2.85841 -1.1633,1.1995 -2.956,2.66098 -3.98384,3.24774 -1.0278,0.58676 -2.3488,1.91813 -2.9356,2.9586 -0.5867,1.04047 -2.3043,3.0231 -3.8168,4.40585 -1.5125,1.38275 -2.75,2.92478 -2.75,3.42673 0,0.50196 -1.125,1.95526 -2.5,3.22957 -1.375,1.27431 -2.5,2.75627 -2.5,3.29324 0,0.53698 -0.6682,1.64457 -1.485,2.46131 -0.8686,0.86866 -1.7583,4.42611 -2.1436,8.57143 -0.3622,3.89754 -1.044,7.08644 -1.515,7.08644 -0.471,0 -0.8564,2.475 -0.8564,5.5 0,3.025 0.45,5.5 1,5.5 0.55,0 1,0.90163 1,2.00362 0,2.02313 3.2514,8.84174 4.7281,9.91547 0.4394,0.3195 2.5551,3.16841 4.7016,6.33091 2.1465,3.1625 4.1717,5.75 4.5004,5.75 0.3288,0 1.7102,1.8 3.0699,4 1.3597,2.2 2.77734,4 3.15034,4 0.373,0 2.0371,2.1375 3.6979,4.75 2.4468,3.84867 8.2914,10.89922 12.8766,15.53354 4.3004,4.34651 12.0337,10.70544 13.0252,10.71031 0.6875,0.003 1.25,0.40737 1.25,0.89774 0,0.49038 1.233,1.20106 2.74,1.57929 1.507,0.37823 3.0663,1.21451 3.4652,1.8584 0.502,0.81022 5.3551,1.17072 15.7604,1.17072 h 15.035 l -0.1063,16.5 c -0.1187,18.43911 -1.0229,31.22158 -3.3597,47.5 -0.8685,6.05 -2.2313,15.725 -3.0284,21.5 -2.7485,19.91422 -3.7234,25.50786 -4.8629,27.90242 -1.603,3.3685 -1.6089,73.21615 -0.01,75.19423 0.6253,0.77184 1.4562,3.33841 1.8464,5.70348 0.3902,2.36507 2.0104,6.86507 3.6004,10 1.59,3.13493 2.8967,6.16208 2.9036,6.72701 0.01,0.56493 1.2502,2.48099 2.7627,4.25791 1.5125,1.77693 4.0318,4.80222 5.5985,6.72286 1.5667,1.92065 3.3068,3.49209 3.867,3.49209 0.5602,0 2.6925,1.6875 4.7384,3.75 2.0459,2.0625 4.5919,4.25298 5.6576,4.86774 2.4324,1.40301 15.37529,7.97181 17.38849,8.82501 0.825,0.34963 2.625,1.28641 4,2.08173 1.375,0.79532 3.9625,1.45267 5.75,1.46078 1.7875,0.008 3.25,0.46474 3.25,1.01474 0,0.55 0.9223,1 2.0497,1 1.1273,0 3.2648,0.62179 4.75,1.38175 1.4851,0.75997 4.7253,1.71085 7.2003,2.11307 2.475,0.40222 4.9588,1.09949 5.5196,1.54949 1.7449,1.40018 9.0648,1.71249 37.077,1.58196 19.5191,-0.091 27.503,-0.46357 28.5497,-1.33241 z M 589.53497,589.23391 c -0.82501,-0.53316 -3.75,-0.99221 -6.5,-1.02012 -2.75,-0.0279 -6.125,-0.69386 -7.5,-1.47988 -1.375,-0.78602 -3.98043,-1.44508 -5.78984,-1.46456 -1.80941,-0.0195 -5.05399,-0.93544 -7.21016,-2.03544 -2.15618,-1.1 -5.06326,-2 -6.46016,-2 -1.39691,0 -3.35497,-0.81513 -4.35125,-1.81141 -0.99628,-0.99628 -5.38378,-3.72929 -9.75,-6.07336 -4.36622,-2.34407 -8.91885,-5.49605 -10.11691,-7.00439 -1.19808,-1.50835 -3.95856,-3.54522 -6.13441,-4.52639 -2.17584,-0.98117 -4.5269,-2.85054 -5.22458,-4.15416 -0.69767,-1.30362 -3.11219,-3.60031 -5.36559,-5.10376 -2.25341,-1.50345 -8.1471,-6.51787 -13.0971,-11.14315 -4.95,-4.62529 -9.36202,-8.69621 -9.80449,-9.04649 -2.19876,-1.74067 -8.78194,-11.6871 -9.26583,-13.99959 -0.30353,-1.45051 -1.19937,-4.11507 -1.99077,-5.92123 -2.04885,-4.67594 -2.02392,-40.00864 0.0323,-45.71607 0.79258,-2.2 1.46081,-5.45253 1.48495,-7.22785 0.0241,-1.77531 1.14521,-5.60031 2.49127,-8.5 1.34606,-2.89968 2.6831,-6.42388 2.97121,-7.83155 0.28811,-1.40767 1.66001,-4.10767 3.04867,-6 1.38866,-1.89233 3.68915,-5.9156 5.11221,-8.9406 1.42306,-3.025 3.39441,-6.4 4.38078,-7.5 0.98637,-1.1 2.29965,-3.58424 2.9184,-5.52054 0.61875,-1.93629 2.961,-5.74236 5.20501,-8.45792 2.24401,-2.71556 4.68852,-6.11409 5.43224,-7.55229 0.74373,-1.43821 2.11024,-3.24401 3.0367,-4.0129 0.92645,-0.76889 3.95665,-4.78612 6.73376,-8.92717 13.83152,-20.62464 34.36226,-41.23237 50.71364,-50.90383 3.025,-1.78921 7.02905,-4.34937 8.89788,-5.68923 1.86884,-1.33987 4.42978,-2.43612 5.69099,-2.43612 1.2612,0 2.57121,-0.45 2.91113,-1 0.77297,-1.2507 38.5,-1.36848 38.5,-0.12019 0,0.48389 2.73576,1.0777 6.07946,1.31956 3.34371,0.24186 6.38121,0.91258 6.75,1.49048 0.41196,0.64553 7.97652,1.23015 19.61572,1.51598 13.15963,0.32317 19.06371,0.82085 19.33333,1.62971 0.21349,0.64045 0.91316,1.17973 1.55482,1.19839 0.64167,0.0187 2.96667,0.90339 5.16667,1.96607 2.2,1.06268 4.7875,1.94741 5.75,1.96607 0.9625,0.0187 1.75,0.44818 1.75,0.95447 0,0.5063 1.35,1.21706 3,1.57946 1.65,0.3624 3,1.07316 3,1.57946 0,0.50629 0.60526,0.92054 1.34501,0.92054 0.73976,0 2.1595,0.9 3.15499,2 0.99549,1.1 2.41523,2 3.15499,2 0.73975,0 1.34501,0.45 1.34501,1 0,0.55 0.6199,1 1.37756,1 0.75765,0 1.93775,0.675 2.62244,1.5 1.84565,2.22387 2.44169,1.89304 4.33957,-2.40859 2.28323,-5.17505 13.18915,-14.75663 21.43982,-18.83631 6.14366,-3.03785 7.27171,-3.2551 16.90179,-3.2551 6.21251,0 10.31877,0.39794 10.31877,1 0,0.55 1.09286,1 2.42857,1 1.33572,0 3.10353,0.675 3.92853,1.5 0.825,0.825 1.8697,1.50129 2.3215,1.50288 0.4518,0.002 1.7214,1.35028 2.8214,2.99712 1.1,1.64684 2.3375,2.99554 2.75,2.99712 0.4125,0.002 0.75,0.62974 0.75,1.39589 0,0.76616 0.5676,1.61082 1.2613,1.87703 0.6938,0.26621 2.3003,2.56435 3.5702,5.10699 1.2698,2.54263 2.6286,4.62297 3.0194,4.62297 0.3909,0 1.2266,1.2375 1.8572,2.75 1.8081,4.3366 5.6714,10.67291 7.0419,11.54969 0.6875,0.43983 1.25,1.85418 1.25,3.14301 0,1.28883 0.675,2.60234 1.5,2.91893 0.825,0.31658 1.5,1.44343 1.5,2.50412 0,1.54705 6.2744,15.35333 11.0755,24.37068 0.5085,0.95504 0.9245,2.29634 0.9245,2.98067 0,1.0618 1.8259,6.20481 5.0709,14.2829 0.4419,1.1 1.0876,3.125 1.4349,4.5 0.6296,2.49228 2.5881,7.1181 5.1461,12.15429 0.7414,1.45986 1.3481,3.57081 1.3481,4.69099 0,1.12018 0.45,2.3148 1,2.65472 0.54999,0.33992 1,1.533 1,2.65129 0,1.11829 0.9,3.17742 2,4.57584 1.09999,1.39842 2,3.40425 2,4.45739 0,1.05314 0.73319,3.3326 1.6293,5.06547 1.4006,2.70844 1.5644,6.07471 1.1675,23.98277 -0.3098,13.97851 -0.8458,21.21622 -1.6292,21.99967 -0.6422,0.64216 -1.1676,1.9955 -1.1676,3.00741 0,1.01191 -0.90001,3.60398 -2,5.76016 -1.1,2.15618 -2,4.86967 -2,6.02999 0,1.16031 -1.35,4.07182 -3,6.47001 -1.65001,2.39819 -3,4.78667 -3,5.30773 0,0.52106 -0.675,1.50758 -1.5,2.19227 -0.82501,0.68469 -1.5,1.87803 -1.5,2.65186 0,0.77384 -1.80231,3.68705 -4.00511,6.47382 -2.2028,2.78676 -4.27659,6.14852 -4.6084,7.47058 -0.3318,1.32206 -1.1749,2.40374 -1.8736,2.40374 -0.69859,0 -1.7843,1.2375 -2.41249,2.75 -0.62831,1.5125 -2.4871,3.51902 -4.1308,4.45894 -1.6437,0.93992 -3.9288,3.30242 -5.0779,5.25 -1.1491,1.94758 -2.5153,3.54106 -3.0359,3.54106 -0.5207,0 -2.1638,1.2375 -3.6513,2.75 -2.7004,2.74585 -2.7256,2.74992 -16.7045,2.70018 -12.65886,-0.0451 -14.40714,-0.27026 -18.25,-2.35097 -2.3375,-1.26563 -4.25,-2.70571 -4.25,-3.20018 0,-0.49447 -1.125,-0.89903 -2.5,-0.89903 -1.5119,0 -2.5,-0.57045 -2.5,-1.4433 0,-0.79381 -0.82346,-2.03131 -1.82992,-2.75 -1.00645,-0.71868 -2.68357,-2.6567 -3.7269,-4.3067 -1.04334,-1.65 -2.13239,-3.225 -2.42008,-3.5 -1.67685,-1.6028 -6.42097,-17.80553 -7.38708,-25.22933 l -1.13602,-8.72933 -1.75,3.06037 c -0.9625,1.6832 -1.75,3.8864 -1.75,4.896 0,1.00959 -0.35554,1.98562 -0.79009,2.16896 -0.43455,0.18333 -1.67205,1.73908 -2.75,3.45722 -5.31253,8.46762 -8.12408,12.11743 -13.31183,17.2807 -6.32445,6.29464 -13.68387,12.59907 -16.81089,14.40103 -3.55842,2.05056 -7.66656,4.96513 -12.33719,8.75277 -3.04922,2.47276 -7.72396,4.70357 -14.5,6.91948 -5.5,1.79861 -13.71777,4.78939 -18.26171,6.64617 -5.88706,2.40561 -9.82224,3.37596 -13.69098,3.37596 -2.9861,0 -5.70739,0.45 -6.04731,1 -0.80951,1.30982 -39.4732,1.30982 -41.5,0 z m 44,-5.77539 c 4.125,-0.53593 9.975,-2.0903 13,-3.45415 3.025,-1.36386 10.67499,-4.18599 17,-6.27141 8.11666,-2.67615 12.82392,-4.86526 16,-7.4408 4.55011,-3.68976 8.69317,-6.64155 12.16324,-8.6659 1.04427,-0.60921 2.67226,-1.83927 3.61773,-2.73347 0.94547,-0.89419 4.42087,-3.80756 7.72312,-6.47415 3.30225,-2.66659 7.57725,-6.97709 9.5,-9.57889 1.92274,-2.6018 4.43265,-5.93999 5.57755,-7.41819 5.13036,-6.62393 13.19042,-25.711 15.49239,-36.68765 0.46137,-2.2 0.85847,-6.33594 0.88242,-9.19098 0.024,-2.85504 0.49355,-5.4691 1.04355,-5.80902 0.54999,-0.33992 1,-1.31097 1,-2.15789 0,-0.84692 0.72627,-3.07036 1.61393,-4.94098 1.17066,-2.46696 2.26932,-3.40113 4,-3.40113 2.05246,0 2.38607,0.48109 2.38607,3.44098 0,1.89254 -0.38873,3.68123 -0.86383,3.97486 -0.47511,0.29364 -1.08224,3.58628 -1.34917,7.317 -0.26693,3.73071 -1.2282,8.21967 -2.13616,9.97547 -1.27601,2.46753 -1.63426,5.87154 -1.57784,14.99203 0.0402,6.48981 0.4424,14.04966 0.89389,16.79966 0.90112,5.48873 5.48955,18.50404 7.96424,22.59099 2.67288,4.41426 7.93452,9.90901 9.48863,9.90901 0.81447,0 1.84072,0.5625 2.28054,1.25 1.97806,3.09191 7.56303,4.9257 16.59419,5.44858 9.1161,0.52781 9.24441,0.50289 13.20551,-2.56464 2.2,-1.7037 4.45,-3.61235 5,-4.24145 0.54999,-0.62911 3.25,-3.55721 6,-6.50691 7.1006,-7.6162 8.1973,-8.94276 9.55649,-11.55989 0.6643,-1.27913 2.72341,-4.20142 4.57571,-6.49399 1.8523,-2.29256 3.3678,-4.82496 3.3678,-5.62755 0,-0.80259 0.67499,-2.01946 1.5,-2.70415 0.825,-0.68469 1.5,-1.62416 1.5,-2.08772 0,-0.46355 1.34999,-2.97155 3,-5.57333 1.65,-2.60178 3,-5.53037 3,-6.50798 0,-0.97761 0.84349,-3.70201 1.87439,-6.05422 3.7736,-8.60995 4.2999,-11.58015 4.8413,-27.31779 0.46881,-13.62782 0.30601,-16.51634 -1.082,-19.20034 -0.8985,-1.73762 -1.6337,-4.01279 -1.6337,-5.05595 0,-1.04316 -0.9,-2.93436 -2,-4.20267 -1.1,-1.26831 -2,-3.33561 -2,-4.59399 0,-1.25839 -0.45,-2.56609 -1,-2.90601 -0.55,-0.33992 -1,-1.68433 -1,-2.98759 0,-1.30325 -0.675,-3.04455 -1.5,-3.86955 -0.825,-0.825 -1.5,-2.33202 -1.5,-3.34893 0,-1.0169 -0.6175,-2.73655 -1.3722,-3.82142 -0.7547,-1.08488 -1.712,-3.53274 -2.1272,-5.43969 -0.4152,-1.90694 -1.0948,-4.15694 -1.5103,-5 -1.87349,-3.80173 -4.99029,-12.73434 -4.99029,-14.30215 0,-0.95187 -0.45001,-1.73067 -1,-1.73067 -0.55,0 -1.0039,-0.7875 -1.0086,-1.75 0,-0.9625 -2.2548,-6.17802 -5,-11.59005 -2.7453,-5.41203 -4.9914,-10.65139 -4.9914,-11.64302 0,-0.99162 -0.675,-2.06197 -1.5,-2.37856 -0.82501,-0.31658 -1.5,-1.71472 -1.5,-3.10699 0,-1.39226 -0.4254,-2.53138 -0.9454,-2.53138 -0.9333,0 -3.3991,-3.84751 -4.6463,-7.25 -0.3529,-0.9625 -1.0391,-1.75 -1.5249,-1.75 -0.4859,0 -0.8834,-0.64286 -0.8834,-1.42857 0,-0.78572 -0.67331,-2.10183 -1.4961,-2.92469 -0.8229,-0.82287 -1.9468,-2.54251 -2.4976,-3.82143 -1.358,-3.15309 -3.1146,-5.79072 -5.5063,-8.26803 -1.1,-1.13939 -2.4801,-2.93832 -3.0668,-3.99762 -0.5868,-1.0593 -1.9368,-2.40607 -3,-2.99283 -1.06327,-0.58676 -2.29306,-1.62933 -2.73289,-2.31683 -0.43983,-0.6875 -1.87577,-1.25 -3.19098,-1.25 -1.31521,0 -2.66941,-0.45 -3.00933,-1 -0.77622,-1.25594 -13.5,-1.33083 -13.5,-0.0795 0,0.5063 -1.35,1.21706 -3,1.57946 -1.65,0.3624 -3,1.0374 -3,1.5 0,0.4626 -1.26469,1.11886 -2.81042,1.45836 -1.54573,0.3395 -4.69803,2.51276 -7.00511,4.82946 -2.30708,2.3167 -4.97989,4.96743 -5.93958,5.8905 -3.54767,3.41234 -4.46605,5.05167 -4.98106,8.89134 -0.49126,3.66261 -0.74933,3.93034 -3.78851,3.93034 -1.97648,0 -3.48811,-0.59095 -3.83695,-1.5 -0.31658,-0.825 -1.20962,-1.5 -1.98454,-1.5 -0.77492,0 -1.96914,-0.675 -2.65383,-1.5 -0.68469,-0.825 -2.05229,-1.5 -3.03911,-1.5 -0.98682,0 -1.94422,-0.40782 -2.12756,-0.90628 -0.55856,-1.51859 -11.16853,-8.09368 -13.06054,-8.09368 -0.97503,0 -1.77279,-0.45 -1.77279,-1 0,-0.55 -0.5625,-1.00277 -1.25,-1.00616 -0.6875,-0.003 -2.40499,-0.6089 -3.81665,-1.34558 -1.41166,-0.73667 -3.88215,-1.66958 -5.48998,-2.07312 -1.60784,-0.40354 -3.23616,-1.23987 -3.61851,-1.85852 -0.4595,-0.74348 -7.07375,-1.26609 -19.51002,-1.54152 -10.36518,-0.22956 -19.08694,-0.8456 -19.42072,-1.37173 -0.33323,-0.52526 -2.47073,-1.20515 -4.75,-1.51087 -2.27927,-0.30571 -4.14412,-0.94659 -4.14412,-1.42417 0,-1.23735 -32.73342,-1.1087 -33.5,0.13167 -0.33992,0.55 -1.64994,1 -2.91113,1 -1.26121,0 -3.82215,1.09625 -5.69099,2.43612 -1.86883,1.33986 -5.87288,3.90002 -8.89788,5.68923 -9.90923,5.86108 -20.37433,14.65479 -29.96938,25.18298 -0.59734,0.65542 -1.51261,1.64167 -2.03396,2.19167 -4.19565,4.42621 -13.56538,16.34436 -17.71185,22.52918 -2.77626,4.14105 -5.80577,8.15828 -6.73221,8.92717 -0.92647,0.76889 -2.29297,2.57469 -3.0367,4.0129 -0.74373,1.4382 -3.18823,4.83673 -5.43224,7.55229 -2.24401,2.71556 -4.58627,6.52163 -5.20501,8.45792 -0.61875,1.9363 -1.93204,4.42054 -2.9184,5.52054 -0.98637,1.1 -2.90571,4.52989 -4.26518,7.62198 -1.35948,3.09209 -2.97845,5.93513 -3.59772,6.31785 -1.60946,0.9947 -5.09735,8.12346 -5.09735,10.41826 0,1.06577 -1.11959,3.8962 -2.48795,6.28984 -1.36838,2.39364 -2.49338,5.79884 -2.5,7.56712 -0.007,1.76828 -0.70844,5.26622 -1.55958,7.7732 -1.20508,3.54947 -1.47433,8.03831 -1.21675,20.28494 0.33374,15.86748 0.74006,18.03362 5.08534,27.11032 2.36744,4.94525 21.48073,24.23421 28.83483,29.09985 2.56075,1.69425 5.37982,4.1853 6.26463,5.53568 0.8848,1.35038 3.35961,3.34847 5.49958,4.4402 2.13997,1.09173 4.77593,3.11016 5.8577,4.48541 1.08177,1.37525 5.51181,4.38863 9.84453,6.6964 4.33272,2.30777 8.6827,5.02012 9.66663,6.02745 0.98392,1.00732 2.91435,1.8315 4.28983,1.8315 1.37549,0 4.26503,0.9 6.42121,2 2.15618,1.1 5.40075,2.01595 7.21016,2.03544 1.80941,0.0195 4.41484,0.67854 5.78984,1.46456 1.375,0.78602 4.75,1.45197 7.5,1.47988 2.75,0.0279 5.675,0.49882 6.5,1.04646 1.77886,1.18082 28.92895,0.63665 40,-0.80173 z m -22.4392,-87.12621 c -0.30647,-0.49589 -3.25883,-1.21517 -6.5608,-1.5984 -3.30197,-0.38323 -6.25434,-1.10251 -6.56081,-1.5984 -0.30648,-0.49588 -1.23354,-0.9016 -2.06013,-0.9016 -1.93107,0 -12.37906,-4.92518 -12.37906,-5.83549 0,-0.37964 -0.97569,-1.13446 -2.1682,-1.67738 -1.19252,-0.54292 -2.65502,-1.87676 -3.25,-2.96409 -0.59499,-1.08733 -1.69325,-2.46709 -2.44059,-3.06613 -1.07575,-0.8623 -1.2713,-4.40819 -0.93877,-17.02304 0.41884,-15.88895 0.42963,-15.95155 3.82521,-22.20498 4.3107,-7.93874 11.78615,-15.84449 17.97235,-19.0069 1.375,-0.7029 3.40916,-1.8279 4.52035,-2.5 9.03058,-5.46208 11.71997,-6.72199 14.3487,-6.72199 1.65711,0 3.29103,-0.45 3.63095,-1 0.75248,-1.21753 20.5,-1.35657 20.5,-0.14434 0,0.47062 3.37222,1.1107 7.49384,1.42242 4.86437,0.36789 8.04741,1.12031 9.07143,2.14434 0.86767,0.86767 2.22043,1.57758 3.00615,1.57758 0.78571,0 1.42858,0.45 1.42858,1 0,0.55 0.67499,1 1.5,1 0.825,0 1.5,0.57499 1.5,1.27776 0,1.59455 3.56046,4.72224 5.37566,4.72224 1.77459,0 11.5242,9.47062 14.66274,14.24317 1.35388,2.05874 2.7991,3.74624 3.2116,3.75 0.4125,0.004 0.75,3.83183 0.75,8.50683 0,4.675 -0.41426,8.5 -0.92054,8.5 -0.5063,0 -1.21706,1.35 -1.57946,3 -0.3624,1.65 -1.02307,3 -1.46816,3 -0.4451,0 -1.10474,1.575 -1.46587,3.5 -0.36113,1.925 -1.07763,3.5 -1.59223,3.5 -0.5146,0 -1.21799,1.125 -1.5631,2.5 -0.3451,1.375 -1.02867,2.5 -1.51905,2.5 -0.49037,0 -0.89692,0.7875 -0.90344,1.75 -0.0163,2.40841 -8.72016,11.25 -11.07474,11.25 -1.05238,0 -1.91341,0.41425 -1.91341,0.92054 0,0.5063 -1.4625,1.23327 -3.25,1.61548 -1.7875,0.38221 -3.70001,1.04258 -4.25,1.46748 -0.55,0.42491 -3.362,1.0901 -6.24888,1.47821 -2.88689,0.38811 -5.50095,1.1135 -5.80902,1.61197 -0.72974,1.18075 -32.15167,1.18526 -32.8813,0.005 z m 28.8813,-5.00472 c 0.30807,-0.49847 2.90417,-1.2287 5.7691,-1.62273 2.86495,-0.39403 5.90194,-1.05757 6.74889,-1.47454 0.84694,-0.41697 3.7899,-1.77249 6.5399,-3.01227 6.30663,-2.8432 12.5,-8.6338 12.5,-11.68709 0,-1.26338 0.41968,-2.29705 0.93261,-2.29705 0.51294,0 1.24731,-0.99151 1.63193,-2.20336 0.38463,-1.21185 1.31495,-2.81899 2.06739,-3.57143 0.75244,-0.75244 1.36807,-2.20937 1.36807,-3.23762 0,-1.02826 0.41538,-2.12627 0.92306,-2.44004 0.50769,-0.31377 1.21844,-1.91532 1.57946,-3.55902 0.36101,-1.64369 1.07064,-2.98853 1.57694,-2.98853 1.09558,0 1.25466,-6.68484 0.17054,-7.16667 -0.86102,-0.38267 -5.25,-6.47946 -5.25,-7.29284 0,-0.7567 -3.86282,-4.54049 -4.63533,-4.54049 -0.34943,0 -1.62615,-1.06911 -2.83714,-2.37581 -1.21101,-1.30669 -3.83357,-3.15011 -5.82791,-4.09649 -1.99436,-0.94638 -3.87708,-2.5115 -4.18385,-3.47803 -0.30677,-0.96654 -2.23581,-2.61062 -4.28676,-3.65351 -2.05095,-1.04289 -4.01543,-2.29009 -4.36552,-2.77156 -0.35008,-0.48147 -3.8489,-1.10525 -7.77514,-1.38617 -3.92624,-0.28092 -7.37886,-0.89949 -7.6725,-1.3746 -0.74487,-1.20523 -11.16038,-1.08621 -11.91584,0.13617 -0.33992,0.55 -2.13433,1 -3.98759,1 -1.85325,0 -3.9642,0.5625 -4.69098,1.25 -0.72679,0.6875 -3.45893,2.29407 -6.07143,3.57015 -2.6125,1.27609 -4.75,2.70283 -4.75,3.17055 0,0.46771 -1.35,1.1469 -3,1.5093 -1.65,0.3624 -3,1.29816 -3,2.07946 0,0.78129 -0.5625,1.42094 -1.25,1.42143 -1.42838,10e-4 -8.50173,7.02797 -10.37715,10.30908 -5.584,9.76944 -5.62382,9.91533 -6.12454,22.44003 -0.34011,8.50695 -0.15516,12.25 0.60529,12.25 0.60227,0 1.79315,1.35 2.6464,3 0.85325,1.65 2.22893,3 3.05706,3 0.82813,0 1.75418,0.6475 2.05786,1.43889 0.30368,0.79139 1.86456,1.72715 3.46861,2.07946 1.60406,0.35231 2.91647,1.03441 2.91647,1.51579 0,0.48138 1.57997,1.17164 3.51104,1.53391 1.93107,0.36227 3.73581,1.02235 4.01053,1.46685 0.27471,0.44449 3.41974,1.1209 6.98895,1.50313 3.56921,0.38223 6.48948,1.09254 6.48948,1.57847 0,1.16897 23.71921,1.14684 24.4421,-0.0228 z M 1289.535,573.6506 c -1.375,-0.76296 -3.2964,-1.39384 -4.2699,-1.40195 -3.8841,-0.0324 -17.7301,-10.74492 -17.7301,-13.71769 0,-0.71338 -0.4001,-1.29705 -0.8891,-1.29705 -1.5243,0 -14.1109,-26.72318 -14.1109,-29.95941 0,-1.67232 -0.45,-3.04059 -1,-3.04059 -1.2565,0 -1.3846,-61.64427 -0.1297,-62.41983 0.4786,-0.29583 1.0802,-4.16393 1.3367,-8.59578 0.2566,-4.43184 0.99,-8.58136 1.6298,-9.22115 0.6397,-0.63978 1.1632,-3.00134 1.1632,-5.2479 0,-2.24656 0.9,-6.64532 2,-9.77502 1.1,-3.12969 2,-6.58633 2,-7.68141 0,-1.09508 0.6318,-3.46882 1.4039,-5.27498 0.7721,-1.80616 1.9404,-5.30893 2.5961,-7.78393 0.6557,-2.475 1.824,-5.97777 2.5961,-7.78393 0.7721,-1.80616 1.4039,-3.93162 1.4039,-4.72325 0,-0.79162 0.859,-3.36386 1.9089,-5.71607 1.05,-2.35221 2.4339,-6.30175 3.0755,-8.77675 0.6416,-2.475 1.8076,-5.77397 2.5911,-7.33104 0.7835,-1.55707 1.4245,-3.49095 1.4245,-4.2975 0,-0.80656 2.25,-6.23646 5,-12.06646 2.75,-5.83 5,-11.25813 5,-12.06252 0,-0.80439 1.2941,-4.00051 2.8758,-7.1025 3.023,-5.92865 7.2232,-14.91051 10.1195,-21.63998 0.9468,-2.2 2.8781,-6.49346 4.2916,-9.54103 1.4136,-3.04756 2.8944,-6.87256 3.2908,-8.5 0.3964,-1.62743 1.3286,-3.8466 2.0715,-4.93148 0.7429,-1.08487 1.3508,-2.76447 1.3508,-3.73244 0,-2.28913 11.4688,-13.79505 13.7506,-13.79505 0.5955,0 1.2623,-0.5387 1.4818,-1.1971 0.2744,-0.82316 3.6693,-1.21363 10.8682,-1.25 l 10.4693,-0.0529 3.715,3.60102 c 2.4456,2.37045 3.7151,4.50625 3.7151,6.25 0,1.45694 0.45,2.64898 1,2.64898 0.6133,0 1,4.83333 1,12.5 0,6.875 -0.3854,12.5 -0.8564,12.5 -0.471,0 -1.1578,3.24324 -1.5262,7.2072 -0.3685,3.96396 -1.0536,7.45146 -1.5226,7.75 -0.469,0.29854 -1.1574,3.0178 -1.5298,6.0428 -0.3723,3.025 -1.0862,6.4 -1.5863,7.5 -0.9127,2.00727 -2.103,7.40684 -4.2986,19.5 -0.649,3.575 -1.4843,6.96564 -1.8561,7.53476 -0.3718,0.56912 -0.9936,3.84169 -1.3817,7.27238 -0.3881,3.43069 -1.0607,6.45701 -1.4946,6.72516 -0.4338,0.26815 -1.1075,4.98308 -1.4971,10.47762 -0.3895,5.49454 -1.1003,9.99008 -1.5794,9.99008 -0.4792,0 -0.891,1.9125 -0.9151,4.25 -0.024,2.3375 -0.7081,6.05 -1.5198,8.25 -0.8118,2.2 -1.7532,7.825 -2.092,12.5 -0.3389,4.675 -1.0736,9.0788 -1.6327,9.78623 -0.5591,0.70742 -1.2289,4.75742 -1.4884,9 -0.2594,4.24257 -0.9459,8.30639 -1.5254,9.0307 -0.5796,0.72431 -1.2561,6.22812 -1.5034,12.2307 -0.3682,8.9348 -0.1546,11.36421 1.1779,13.39789 0.8953,1.36626 1.6277,3.53894 1.6277,4.82817 0,1.28923 0.6607,3.21756 1.4682,4.28518 0.8075,1.06762 1.4825,2.73026 1.5,3.69475 0.017,0.9645 0.9318,3.43283 2.0318,5.4852 1.1,2.05236 2,4.25352 2,4.89147 0,1.89488 8.7391,10.60089 9.4639,9.4281 0.3598,-0.58211 1.3304,-1.05839 2.157,-1.05839 1.2663,0 7.5425,-2.7612 13.3791,-5.88606 4.616,-2.47135 6.1078,-3.041 9.6269,-3.67592 2.1302,-0.38434 4.3231,-1.04986 4.8731,-1.47892 0.55,-0.42907 2.6925,-1.09641 4.761,-1.48298 2.0686,-0.38656 4.0077,-1.10183 4.3091,-1.58948 0.7181,-1.16198 34.4299,-1.15713 34.4299,0.005 0,0.49038 1.2147,1.19647 2.6994,1.56909 1.4846,0.37262 3.7131,1.77141 4.9522,3.10841 1.2391,1.337 2.5664,2.43091 2.9496,2.43091 0.3832,0 2.2047,1.5527 4.0478,3.45043 l 3.351,3.45044 v 12.54956 c 0,6.90227 -0.4012,12.54957 -0.8916,12.54957 -0.4904,0 -1.1684,1.10312 -1.5068,2.45137 -0.6856,2.73161 -9.7912,12.15665 -12.6085,13.05083 -0.9946,0.31566 -2.0608,1.2318 -2.3693,2.03587 -0.3086,0.80406 -1.166,1.46193 -1.9053,1.46193 -0.7394,0 -2.6178,1.32924 -4.1743,2.95386 -1.5565,1.62463 -4.3407,3.67074 -6.1871,4.54692 -1.8464,0.87618 -3.3571,2.02194 -3.3571,2.54614 0,0.52419 -1.039,0.95308 -2.3089,0.95308 -1.2698,0 -3.1823,0.66019 -4.25,1.46709 -1.0676,0.8069 -4.0786,1.76487 -6.6911,2.12883 -2.6125,0.36396 -4.75,1.01795 -4.75,1.45332 0,0.43536 -2.9313,1.10548 -6.5139,1.48915 -3.5826,0.38367 -6.7592,1.09449 -7.059,1.5796 -0.3018,0.48834 -18.4837,0.83825 -40.7361,0.78396 -32.264,-0.0787 -40.6841,-0.37165 -42.691,-1.48526 z m 79.4186,-4.28499 c 0.2952,-0.47757 3.233,-1.17336 6.5286,-1.54621 3.2955,-0.37285 6.2183,-1.04427 6.495,-1.49203 0.2768,-0.44777 2.4729,-1.0841 4.8802,-1.41407 3.8268,-0.52451 6.6994,-1.61673 12.6776,-4.82029 0.825,-0.4421 2.8982,-1.51201 4.6071,-2.37759 1.7089,-0.86558 4.3806,-2.90302 5.9371,-4.52765 1.5565,-1.62462 3.4208,-2.95386 4.1429,-2.95386 0.7221,0 1.3129,-0.675 1.3129,-1.5 0,-0.825 0.6848,-1.5 1.5217,-1.5 2.0466,0 11.7275,-9.78857 13.8105,-13.96411 1.0793,-2.16342 1.6678,-5.81042 1.6678,-10.3349 v -6.99172 l -6.2267,-5.92497 c -3.4247,-3.25874 -7.4747,-6.17457 -9,-6.47964 -1.5253,-0.30506 -2.7733,-0.94841 -2.7733,-1.42966 0,-0.48125 -5.625,-0.875 -12.5,-0.875 -6.875,0 -12.5,0.39891 -12.5,0.88646 0,0.48755 -2.025,1.19012 -4.5,1.56127 -2.475,0.37115 -4.5,1.03608 -4.5,1.47762 0,0.44154 -2.0152,1.07901 -4.4781,1.4166 -4.0401,0.55375 -5.465,1.06457 -10.5219,3.77199 -5.9155,3.16713 -12.1229,5.88606 -13.4381,5.88606 -0.859,0 -1.5619,0.45 -1.5619,1 0,0.55 -2.3094,1 -5.1319,1 -4.5873,0 -5.4629,-0.36744 -8.25,-3.4621 -5.0631,-5.62173 -5.6181,-6.38832 -5.6181,-7.7605 0,-0.71886 -0.9,-2.98622 -2,-5.03858 -1.1,-2.05237 -2,-4.5957 -2,-5.65186 0,-1.05616 -0.4606,-2.07383 -1.0236,-2.26149 -0.5629,-0.18765 -1.3075,-2.13765 -1.6546,-4.33333 -0.3471,-2.19568 -1.124,-4.31367 -1.7264,-4.70665 -1.5532,-1.01317 -1.4788,-31.7073 0.085,-34.88621 0.6489,-1.3196 1.3759,-5.65521 1.6154,-9.63468 0.2395,-3.97946 0.8849,-7.80446 1.4341,-8.5 0.5493,-0.69553 1.2759,-5.0896 1.6148,-9.7646 0.3388,-4.675 1.2802,-10.3 2.092,-12.5 0.8117,-2.2 1.4957,-5.8375 1.5198,-8.08333 0.024,-2.24584 0.3814,-4.41757 0.7939,-4.82608 0.4125,-0.40851 1.278,-5.09601 1.9233,-10.41666 1.2593,-10.38301 3.084,-20.74208 4.0819,-23.17393 0.3386,-0.825 1.1757,-4.425 1.8603,-8 2.6474,-13.8249 3.4852,-17.56905 4.3632,-19.5 0.5001,-1.1 1.2099,-4.475 1.5773,-7.5 0.3674,-3.025 1.0796,-6.01068 1.5828,-6.63484 0.5032,-0.62416 1.1943,-4.12616 1.5357,-7.78221 0.3414,-3.65606 1.0043,-6.88444 1.4731,-7.17418 1.215,-0.75114 1.0746,-15.40877 -0.148,-15.40877 -0.55,0 -1,-1.19204 -1,-2.64898 0,-1.74254 -1.2699,-3.8812 -3.7111,-6.25 -3.4046,-3.30365 -4.1653,-3.5897 -9.2123,-3.46396 -3.033,0.0756 -5.6678,0.6364 -5.8723,1.25 -0.204,0.61212 -0.8505,1.11294 -1.4366,1.11294 -0.5861,0 -2.5953,1.575 -4.4648,3.5 -1.8696,1.925 -4.1677,3.5 -5.1069,3.5 -1.7136,0 -3.509,3.1195 -4.7485,8.25 -0.3654,1.5125 -1.0093,2.75 -1.4309,2.75 -0.4216,0 -1.0384,1.35905 -1.3706,3.0201 -0.3322,1.66106 -1.8022,5.59856 -3.2666,8.75 -1.4644,3.15145 -3.4373,7.5299 -4.3841,9.7299 -2.8963,6.72947 -7.0965,15.71133 -10.1195,21.63998 -1.5817,3.10199 -2.8758,6.35704 -2.8758,7.23345 0,1.38237 -4.4301,11.51812 -8.6458,19.78086 -0.7448,1.45986 -1.3542,3.82236 -1.3542,5.25 0,1.42764 -0.4197,2.59571 -0.9326,2.59571 -0.5129,0 -1.2037,1.0125 -1.535,2.25 -0.3313,1.2375 -1.0776,4.05 -1.6585,6.25 -0.5808,2.2 -1.915,5.92454 -2.965,8.27675 -1.0499,2.35221 -1.9089,4.92445 -1.9089,5.71607 0,0.79163 -0.6318,2.91709 -1.4039,4.72325 -0.7721,1.80616 -1.9404,5.30893 -2.5961,7.78393 -0.6557,2.475 -1.824,5.97777 -2.5961,7.78393 -0.7721,1.80616 -1.4039,4.1799 -1.4039,5.27498 0,1.09508 -0.9,4.55172 -2,7.68141 -1.1,3.1297 -2,7.52846 -2,9.77502 0,2.24656 -0.5235,4.60812 -1.1632,5.2479 -0.6398,0.63979 -1.3732,4.78931 -1.6298,9.22115 -0.2565,4.43185 -0.8581,8.29995 -1.3367,8.59578 -1.2466,0.77041 -1.1206,53.14712 0.1297,53.91983 0.55,0.33992 1,1.95467 1,3.58833 0,3.15416 10.2271,25.08018 13.2236,28.35023 0.977,1.06621 1.7764,2.36835 1.7764,2.89364 0,1.41821 6.3021,7.64482 7.75,7.65715 0.6875,0.006 1.25,0.35832 1.25,0.78325 0,1.10317 5.92,3.98484 9.7385,4.74045 1.7812,0.35245 3.4953,1.0562 3.809,1.56389 0.7303,1.18154 73.1415,1.23522 73.8711,0.0548 z m -27.6365,-375.53058 c -1.4948,-0.79705 -5.1938,-1.75853 -8.2201,-2.13663 -3.0262,-0.37811 -6.0207,-1.31229 -6.6545,-2.07598 -0.6338,-0.76368 -1.6143,-1.38851 -2.1789,-1.38851 -1.0989,0 -7.7286,-6.4703 -7.7286,-7.5427 0,-0.35301 -0.9,-1.78601 -2,-3.18443 -1.1,-1.39842 -2,-3.40339 -2,-4.45548 0,-1.05209 -1.125,-2.9555 -2.5,-4.22981 -1.375,-1.27431 -2.5,-2.77272 -2.5,-3.32981 0,-0.55708 -0.675,-1.57308 -1.5,-2.25777 -1.7527,-1.45465 -2.1853,-17.45844 -0.5,-18.5 0.55,-0.33992 1,-2.10579 1,-3.92416 0,-1.81837 0.9,-4.45029 2,-5.84871 1.1,-1.39842 2,-2.97253 2,-3.49802 0,-2.0171 14.882,-14.22911 17.3401,-14.22911 0.838,0 2.485,-1.35 3.6599,-3 1.6631,-2.3356 2.8962,-3 5.5681,-3 1.8875,0 3.4319,-0.45 3.4319,-1 0,-0.55 1.8,-1 4,-1 3.5478,0 4,0.26944 4,2.38337 0,2.81217 2.0861,3.58304 9.75,3.60298 2.8875,0.008 5.25,0.40614 5.25,0.88584 0,0.47971 1.8,1.16003 4,1.51182 2.2,0.35179 4,1.04245 4,1.5348 0,0.98739 11.9148,15.29065 15.6469,18.78344 1.2942,1.21124 2.3531,3.12374 2.3531,4.25 0,1.12626 0.6262,2.04775 1.3916,2.04775 0.7654,0 1.701,1.23299 2.0793,2.73998 0.3782,1.50699 0.9895,2.96983 1.3584,3.25076 0.3689,0.28092 1.4582,2.0094 2.4207,3.84106 1.3071,2.48741 1.75,5.71415 1.75,12.74924 0,5.18043 -0.3999,9.41896 -0.8887,9.41896 -0.4888,0 -1.1842,1.575 -1.5453,3.5 -0.3931,2.09508 -1.2405,3.5 -2.1113,3.5 -0.8001,0 -1.4547,0.48553 -1.4547,1.07895 0,0.59342 -2.1009,3.18092 -4.6687,5.75 l -4.6688,4.67105 -19.5812,0.27515 c -15.5873,0.21903 -20.1357,-0.0204 -22.2992,-1.17403 z m 43.0631,-10.3592 c 3.3664,-3.44194 6.4033,-7.3837 6.7486,-8.75945 0.3452,-1.37575 1.0279,-2.74867 1.517,-3.05094 1.5642,-0.96671 0.9736,-10.12108 -0.8608,-13.34417 -0.9625,-1.69109 -2.0875,-3.07756 -2.5,-3.08104 -0.4125,-0.003 -0.75,-0.91072 -0.75,-2.01611 0,-1.10538 -0.9,-2.78039 -2,-3.72224 -1.1,-0.94185 -2,-2.31614 -2,-3.05399 0,-0.73784 -1.1187,-2.55033 -2.486,-4.02775 -4.4992,-4.86146 -8.9602,-10.10199 -12.514,-14.70069 -2.7223,-3.52273 -4.3332,-4.66373 -7.25,-5.13511 -2.0625,-0.33333 -3.75,-0.99853 -3.75,-1.47824 0,-0.4797 -2.7421,-0.87219 -6.0936,-0.87219 -5.2526,0 -6.1658,-0.27603 -6.6167,-2 -0.2876,-1.1 -1.3007,-2 -2.2513,-2 -0.9507,0 -2.5429,0.9 -3.5384,2 -0.9955,1.1 -2.6137,2 -3.596,2 -0.9823,0 -2.0641,0.45 -2.404,1 -0.3399,0.55 -1.3078,1 -2.1509,1 -2.407,0 -16.3491,11.27334 -16.3491,13.21963 0,0.5307 -0.9,2.10908 -2,3.5075 -1.2165,1.54651 -2,4.05678 -2,6.40773 0,2.12583 -0.45,3.86514 -1,3.86514 -0.55,0 -1,1.83002 -1,4.06672 0,3.93045 3.4051,10.1069 6.7441,12.23297 0.6907,0.43983 1.2559,1.81368 1.2559,3.053 0,3.14424 8.5425,14.64731 10.8776,14.64731 0.4826,0 1.4105,0.64217 2.0618,1.42703 0.6606,0.79587 4.0319,1.73198 7.6225,2.1165 3.5409,0.37921 6.4381,1.05404 6.4381,1.49964 0,1.49528 3.4182,1.79367 18.6122,1.6248 l 15.1122,-0.16797 z"
       id="path576" /></g></svg>
