<?xml version="1.0" encoding="UTF-8" standalone="no"?>
<!-- Created with Inkscape (http://www.inkscape.org/) -->

<svg
   version="1.1"
   id="svg62"
   width="1815.8809"
   height="863.4234"
   viewBox="0 0 1815.8809 863.4234"
   sodipodi:docname="projects.bmp"
   inkscape:export-filename="projects.svg"
   inkscape:export-xdpi="96"
   inkscape:export-ydpi="96"
   xml:space="preserve"
   xmlns:inkscape="http://www.inkscape.org/namespaces/inkscape"
   xmlns:sodipodi="http://sodipodi.sourceforge.net/DTD/sodipodi-0.dtd"
   xmlns="http://www.w3.org/2000/svg"
   xmlns:svg="http://www.w3.org/2000/svg"><defs
     id="defs66" /><sodipodi:namedview
     id="namedview64"
     pagecolor="#ffffff"
     bordercolor="#000000"
     borderopacity="0.25"
     inkscape:showpageshadow="2"
     inkscape:pageopacity="0.0"
     inkscape:pagecheckerboard="0"
     inkscape:deskcolor="#d1d1d1"
     showgrid="false" /><g
     inkscape:groupmode="layer"
     inkscape:label="Image"
     id="g68"><path
       style="fill:#000000"
       d="m 817.05656,862.4713 c -12.1535,-2.1705 -15.98599,-3.4618 -25.91651,-8.7325 -25.36963,-13.4652 -32.72334,-22.0321 -35.03905,-40.82007 -1.51,-12.25096 -1.34074,-31.38772 0.31229,-35.30835 1.95386,-4.63413 10.67145,-12.38592 15.27525,-13.58295 11.12257,-2.89197 25.49914,-2.14316 47.62538,2.4806 14.42345,3.01408 19.25238,2.75534 30.65681,-1.64268 7.8811,-3.03927 19.85903,-10.57122 25.93644,-16.30931 7.18198,-6.78099 16.68815,-23.73293 20.59692,-36.72957 2.18661,-7.27046 4.09131,-22.41358 6.53228,-51.93397 1.11421,-13.475 2.68138,-27.65 3.4826,-31.5 0.80122,-3.85 3.04563,-16.675 4.98759,-28.5 1.94195,-11.825 4.5005,-26.675 5.68566,-33 1.44358,-7.70418 2.1894,-15.81477 2.25958,-24.57224 0.10429,-13.01351 0.0914,-13.08988 -2.86219,-17 -5.68282,-7.52313 -21.08345,-22.10842 -28.43425,-26.92888 -16.84168,-11.04432 -25.05402,-12.19131 -40.38632,-5.64064 -12.19675,5.21103 -18.1411,6.50783 -27.13705,5.92015 -7.87108,-0.51419 -13.56861,-2.91783 -17.62805,-7.43681 -4.09981,-4.5639 -7.7069,-10.58932 -8.43091,-14.08328 -0.62337,-3.00828 -0.2066,-3.69233 5.78801,-9.5 3.55286,-3.44207 10.13403,-10.5333 14.62481,-15.7583 4.49078,-5.225 10.25284,-11.92586 12.80457,-14.89079 7.21286,-8.38084 11.67954,-9.96476 36.76614,-13.03756 4.4,-0.53895 13.625,-1.89543 20.5,-3.01442 24.35676,-3.96434 49.88805,-2.27934 66.94917,4.41848 11.1013,4.35812 13.0904,7.47382 19.0121,29.78016 5.4921,20.68831 5.8473,25.58702 5.936,81.87073 0.071,45.32792 -0.1186,52.22118 -1.5575,56.5 -1.3337,3.96605 -1.7732,11.576 -2.3606,40.8734 -0.8738,43.57981 -1.3117,46.45257 -11.9828,78.60258 -2.6658,8.03142 -6.033,17.42059 -7.4826,20.86483 -1.4497,3.44423 -5.7126,15.32307 -9.4731,26.39742 -8.40312,24.74629 -11.32903,31.77879 -19.64845,47.22541 -8.854,16.43918 -11.61257,18.94305 -35.89779,32.58336 -35.47397,19.9247 -41.34181,22.3455 -56.42134,23.2768 -4.20062,0.2595 -10.91301,-0.1287 -15.07309,-0.8716 z M 1649.5185,758.52691 c -6.1511,-2.86434 -13.1628,-10.52329 -14.0723,-15.37129 -1.2234,-6.52114 0.2367,-18.76705 2.9422,-24.67659 7.6418,-16.69191 29.527,-29.98531 62.8428,-38.17165 10.079,-2.47661 20.5754,-5.22222 23.3254,-6.10136 14.7613,-4.719 33.5442,-19.93242 39.5901,-32.06641 3.1321,-6.28589 3.3878,-7.54869 3.7405,-18.47333 0.3208,-9.93428 0.042,-12.83775 -1.8215,-19 -6.662,-22.02553 -15.5944,-34.17395 -44.0091,-59.85458 -16.0013,-14.46163 -20.8726,-19.92284 -24.6713,-27.65863 -2.7355,-5.57079 -2.8287,-6.27122 -2.8287,-21.26057 0,-15.11241 0.072,-15.64281 2.8932,-21.21103 6.0856,-12.01268 17.3886,-21.75916 33.5771,-28.95324 12.005,-5.33493 20.9032,-7.13972 32.2647,-6.5441 18.7995,0.98555 19.6453,1.13412 22.4559,3.94473 5.0749,5.0749 4.1345,20.88023 -1.6606,27.91074 -1.7837,2.16389 -6.8189,5.58732 -12.989,8.83121 -12.851,6.75624 -16.0413,10.2013 -16.0413,17.32209 0,3.10536 0.7111,6.52108 1.75,8.40623 1.883,3.41683 18.9537,19.84894 28.75,27.67451 8.4422,6.74393 16.5597,16.38829 20.9073,24.84017 2.0427,3.97094 4.1129,7.70051 4.6004,8.28795 2.231,2.68821 5.5817,38.85983 4.6598,50.30384 -1.7075,21.19496 -10.4717,52.94859 -18.5442,67.1869 -3.3871,5.97423 -25.7433,32.53405 -32.929,39.1207 -6.911,6.33477 -15.4657,11.96553 -29.2811,19.27299 -11.4154,6.03801 -22.4206,9.94965 -42.7062,15.17933 -11.6171,2.99492 -14.832,3.42575 -25.5,3.41721 -10.6965,-0.009 -12.8304,-0.30007 -17.2451,-2.35582 z m -513.9619,-10.67538 c -24.486,-0.72617 -33.7821,-1.77767 -44.9983,-5.08989 -8.5779,-2.5331 -20.9014,-8.62149 -27.8302,-13.74939 -10.8475,-8.02812 -25.9924,-26.23899 -32.1178,-38.61975 -6.0864,-12.30169 -6.8018,-16.54744 -6.6561,-39.5 0.1253,-19.74373 0.8392,-29.44974 5.0379,-68.5 1.0644,-9.9 2.4026,-22.80814 2.9736,-28.68476 1.9524,-20.09179 9.8104,-51.28268 14.6727,-58.24016 2.8077,-4.01757 18.988,-19.83974 24.9182,-24.36673 3.3,-2.51913 9.8991,-8.39704 14.6646,-13.06201 7.9859,-7.8174 21.7193,-18.14634 24.1275,-18.14634 0.5605,0 2.4732,-1.1091 4.2505,-2.46466 1.7772,-1.35556 10.8197,-6.52863 20.0943,-11.4957 14.3881,-7.70555 20.1654,-10.12468 39.3631,-16.48237 12.375,-4.09823 25.3063,-7.89917 28.7363,-8.44652 8.6224,-1.37599 32.0773,0.22004 43.0461,2.92914 4.7947,1.1842 11.6426,3.55141 15.2176,5.26047 11.319,5.41116 24.2019,20.49476 30.4911,35.69964 3.8366,9.27546 1.4163,28.12469 -5.9521,46.35603 -6.3475,15.7052 -17.8279,31.18075 -29.8188,40.19568 -13.5233,10.16692 -33.7376,17.87854 -57.6961,22.01064 -16.7407,2.88726 -33.4376,7.08134 -50.47,12.67751 -26.9928,8.86883 -33.1374,15.25208 -32.9792,34.26014 0.085,10.15051 2.0544,18.11521 6.5541,26.5 3.9133,7.29222 6.5882,10.20427 13.3416,14.52435 16.4311,10.51085 32.146,11.74394 69.0294,5.41647 17.3824,-2.98201 31.0643,-3.94115 42.8094,-3.00107 11.8092,0.94519 16.8081,2.95307 21.4884,8.63112 5.1994,6.30781 6.5294,12.66665 5.9151,28.28048 -0.7608,19.33404 -3.7635,27.50813 -13.5892,36.99245 -12.3329,11.90443 -19.132,15.78668 -32.6237,18.62791 -4.4,0.9266 -11.375,2.53094 -15.5,3.56519 -19.7693,4.95676 -43.8031,9.1518 -50.3224,8.78366 -1.7477,-0.0987 -13.5276,-0.48638 -26.1776,-0.86153 z m 40.46,-241.85185 c 9.5009,-3.61003 17.04,-11.84257 17.04,-18.60718 0,-1.41882 -0.8562,-4.24925 -1.9027,-6.28984 -3.7686,-7.34867 -9.4222,-10.71913 -20.5844,-12.27164 -7.4721,-1.03928 -7.6383,-1.01358 -12.8946,1.99377 -6.7931,3.88662 -14.0396,11.62714 -17.1604,18.33028 -2.9605,6.35884 -3.022,7.75061 -0.4851,10.97572 5.4264,6.89859 24.9135,10.07659 35.9872,5.86889 z M 248.55656,735.00587 c -13.41962,-3.90095 -19.32941,-9.4332 -22.95755,-21.49092 -4.84552,-16.10356 -6.01163,-24.15604 -6.02748,-41.62245 -0.0166,-18.29978 -0.2676,-17.13872 8.75531,-40.5 8.68348,-22.48246 8.77014,-22.99887 9.98378,-59.49076 1.41982,-42.69178 -0.18306,-56.1044 -8.48532,-71.00354 -10.32335,-18.52619 -18.90092,-35.66511 -19.90072,-39.76385 -0.63617,-2.60802 -1.47988,-5.19185 -1.87491,-5.74185 -0.39503,-0.55 -0.97323,-3.27257 -1.28489,-6.05016 -1.49813,-13.35167 10.89307,-23.40864 29.8973,-24.2653 15.31939,-0.69057 23.93794,2.96686 33.15445,14.06964 10.67223,12.85643 15.41793,24.51737 17.75704,43.63186 1.82675,14.92763 4.00092,23.36771 6.63316,25.74986 1.81901,1.64618 2.12743,1.62776 6.24569,-0.37304 2.3827,-1.15761 6.75587,-4.07563 9.71816,-6.4845 2.96229,-2.40887 9.66098,-7.69689 14.88598,-11.75115 5.225,-4.05426 12.65,-10.13066 16.5,-13.50311 9.08557,-7.9586 13.65745,-11.38219 21,-15.72554 6.58146,-3.89314 35.05282,-15.04182 43,-16.83773 7.57999,-1.71293 39.10291,-1.77769 43.88071,-0.0901 9.74711,3.44274 16.66186,13.88124 17.40548,26.27526 0.39821,6.63725 0.15545,8.18558 -1.84014,11.73626 -2.91785,5.19161 -6.99702,7.94319 -33.76864,22.77848 -7.42712,4.11568 -17.77155,10.71321 -22.98763,14.66118 -5.21607,3.94797 -13.68517,10.34046 -18.82022,14.20553 -5.13505,3.86507 -13.9564,9.66034 -19.60301,12.87837 -12.49829,7.12286 -22.31671,14.85115 -27.03654,21.28104 -7.01157,9.55195 -20.16601,37.53418 -25.53261,54.31315 -1.67117,5.225 -4.45715,13.325 -6.19107,18 -6.13809,16.54952 -8.03137,27.38202 -9.00105,51.5 -1.18824,29.55366 -2.76921,35.71885 -10.36313,40.41215 -8.36529,5.17003 -30.6746,6.82542 -43.14215,3.20122 z m 370.5,-4.22581 c -44.03487,-5.01624 -61.33244,-11.28563 -90.70436,-32.8752 -28.43229,-20.8989 -39.69206,-32.53518 -43.58781,-45.04536 -2.49364,-8.00764 -5.46631,-23.04656 -6.81295,-34.467 -1.50035,-12.72417 -0.59797,-45.75758 1.58292,-57.94577 5.25739,-29.38153 20.86392,-55.20803 42.57477,-70.45497 5.71901,-4.0163 8.08811,-5.09926 11.15525,-5.09926 2.29426,0 7.67353,-1.60723 13.09317,-3.912 14.49083,-6.16241 33.8026,-9.09639 64.60685,-9.81552 24.34763,-0.56839 38.99984,0.1481 66.60268,3.25689 24.44271,2.75288 36.12442,7.7885 49.3027,21.25287 14.6469,14.96487 18.9996,23.35432 24.75737,47.71776 3.12399,13.21884 4.29436,39.09433 2.60077,57.5 -2.62251,28.50115 -17.52656,72.71969 -31.17474,92.49176 -4.77114,6.91194 -21.81217,25.79566 -27.78155,30.78564 -8.74917,7.31368 -11.13846,7.74416 -42.14657,7.59356 -14.61268,-0.071 -29.9435,-0.5135 -34.0685,-0.9834 z m 21.61733,-86.28986 c 7.0101,-3.26408 18.35792,-14.19787 22.18211,-21.37278 4.14293,-7.77295 8.29469,-25.31713 8.92745,-37.72492 0.61101,-11.98128 -1.56911,-24.49154 -5.55628,-31.88388 -3.44085,-6.37944 -11.79444,-13.13098 -19.00982,-15.36412 -8.02947,-2.4851 -24.20061,-2.24155 -34.28409,0.51635 -8.9048,2.43552 -23.3317,9.30992 -27.48203,13.09516 -1.59207,1.45201 -4.79697,3.87637 -7.12201,5.38745 -5.42667,3.52689 -15.00347,15.12097 -16.27718,19.70586 -1.50904,5.43196 -1.21262,22.95639 0.48397,28.61168 2.55673,8.52248 8.9941,15.37081 23.2538,24.73832 15.73999,10.33996 15.94404,10.44953 25.76675,13.83685 10.81962,3.73109 21.7145,3.90098 29.11733,0.45403 z M 57.056559,705.28861 c -16.890903,-4.52144 -27.863776,-16.01574 -33.7904,-35.39611 -5.350057,-17.49497 -6.955929,-30.91727 -9.212437,-77 -0.60596,-12.375 -1.778873,-28.64265 -2.606472,-36.15032 C 9.7129887,541.0096 8.2271717,496.66207 8.7719707,476.8925 c 0.476978,-17.30851 1.7866053,-37.93177 3.8101473,-60 1.310215,-14.28887 1.62679,-33.18866 1.72527,-103 l 0.120611,-85.5 -2.326691,-9.5 c -1.27968,-5.225 -3.1704653,-11.95391 -4.2017453,-14.95314 -2.948601,-8.57528 -4.734739,-26.43832 -5.354187,-53.54686 -0.314197,-13.75 -1.020877,-29.275 -1.57040097,-34.5 -1.336955,-12.71209 -1.289416,-39.393245 0.08411,-47.205225 C 2.8276867,58.628282 5.0872317,51.053362 9.2971277,41.069982 17.17362,22.391632 24.280753,13.368952 35.447342,7.8716622 c 5.89366,-2.90144 7.824767,-3.25334 28.217917,-5.14208 31.41469,-2.90950005 95.456601,-3.67330005 118.276721,-1.41062 9.01198,0.89356 20.67065,2.55309 25.90817,3.68784 19.78657,4.28693 45.96711,15.3101798 56.57084,23.8190198 18.41623,14.77789 38.25998,40.296803 54.37915,69.931183 11.93104,21.934685 17.66343,37.719175 25.46319,70.114425 2.80647,11.65631 3.04932,14.19184 3.51631,36.71251 0.77028,37.14706 -1.02801,47.75972 -11.86052,69.99527 -6.16982,12.66462 -15.88757,23.57086 -27.82577,31.22889 -17.78218,11.4068 -47.60276,22.67273 -66.4638,25.1094 -17.80238,2.29989 -49.55842,3.94666 -76.37265,3.96045 -32.16262,0.0165 -32.83771,0.15173 -35.63217,7.13579 -0.92386,2.30894 -2.083,7.83873 -2.57586,12.28842 -0.49287,4.44969 -1.10579,57.81534 -1.36204,118.59034 -0.8113,192.41872 -0.86323,195.41335 -3.51929,202.95982 -7.03231,19.9804 -23.660591,30.13345 -49.090881,29.97437 -5.88592,-0.0368 -12.94288,-0.71436 -16.0201,-1.53808 z M 193.36439,250.63845 c 10.86811,-3.58295 26.75123,-17.18341 30.94207,-26.49519 2.64634,-5.87998 3.52519,-20.94049 1.80533,-30.93706 -1.77671,-10.32699 -6.76845,-26.67156 -10.46612,-34.26945 -6.97937,-14.34106 -27.5883,-40.97885 -37.42944,-48.37891 -10.20851,-7.67631 -12.2423,-8.07651 -43.0181,-8.46494 -27.03533,-0.34121 -27.38607,-0.31933 -29.69813,1.85274 -1.28683,1.20891 -2.62379,3.49151 -2.97102,5.07244 -0.34723,1.58093 -1.00602,2.87442 -1.46398,2.87442 -0.45795,0 -1.128731,1.7525 -1.490611,3.89444 -1.27292,7.53438 -6.08792,15.63023 -15.01734,25.24987 -10.19173,10.97952 -13.049,16.07385 -14.60063,26.03198 -1.69466,10.87604 -0.72658,30.19485 1.79516,35.82371 4.24447,9.47425 19.70946,21.51524 39.630241,30.85596 5.95389,2.79174 13.60389,7.05602 17,9.47617 3.39611,2.42016 7.97474,5.62333 10.17474,7.11816 l 4,2.71786 23,-0.41858 c 17.39523,-0.31659 24.1716,-0.80484 27.80783,-2.00362 z M 1415.5566,691.84471 c -13.5748,-2.09644 -43.6659,-13.22338 -55.512,-20.52696 -9.0626,-5.58749 -20.5778,-15.73624 -25.5675,-22.53361 -4.2716,-5.81908 -10.6383,-21.42467 -14.0308,-34.39164 -7.6982,-29.42378 -4.5765,-79.65516 7.0481,-113.41003 6.0312,-17.51305 18.1416,-33.14436 40.6965,-52.52834 10.3556,-8.89968 11.2416,-9.42865 21.0877,-12.58959 5.6529,-1.81476 13.203,-4.52547 16.778,-6.0238 17.0626,-7.15114 27.6321,-7.66248 42.8638,-2.07369 20.748,7.61277 29.1913,16.61359 27.8426,29.68095 -1.4349,13.90349 -10.515,22.03053 -44.1062,39.47689 -9.7558,5.06687 -19.0338,10.30305 -20.6179,11.63596 -6.8347,5.75105 -11.6726,22.73238 -10.6355,37.33165 1.0933,15.38939 4.9852,24.73036 15.1689,36.40694 7.2506,8.31354 18.2426,16.2365 27.149,19.5688 3.1746,1.18778 9.8363,3.06333 14.8037,4.16788 27.9279,6.21007 37.0831,11.89798 44.211,27.46718 2.4772,5.41106 2.6052,6.48439 2.4351,20.42008 -0.1953,16.00287 -0.9266,20.07574 -4.2377,23.60023 -2.6862,2.85933 -4.9547,3.57566 -21.8768,6.90802 -7.425,1.46216 -17.55,3.78 -22.5,5.15076 -10.1366,2.80703 -30.2769,3.91834 -41,2.26232 z m 201,-16.97079 c -14.6094,-0.77864 -20.2879,-2.44585 -30.1458,-8.85075 -11.6626,-7.57745 -15.9956,-14.13477 -23.8669,-36.11921 -6.6459,-18.56202 -9.921,-25.13341 -22.6819,-45.51146 -19.6015,-31.30182 -18.8113,-29.43327 -18.7737,-44.39077 0.017,-6.93508 0.693,-17.33423 1.5013,-23.10923 0.8083,-5.775 1.9148,-18.15651 2.459,-27.51447 0.7863,-13.52281 1.6844,-19.88455 4.3764,-31 1.8628,-7.69204 3.6908,-16.01053 4.0622,-18.48553 2.2599,-15.06204 3.5638,-37.45523 3.5664,-61.25 v -26.75 h -7.8434 c -5.0462,0 -9.7717,-0.66391 -13.25,-1.86155 -18.0487,-6.2144 -40.7919,-21.87937 -48.0334,-33.08423 -2.5625,-3.96499 -2.8732,-5.32262 -2.8732,-12.55366 0,-6.78142 0.4368,-8.98438 2.6698,-13.46547 3.6692,-7.36317 14.2889,-18.38783 20.6763,-21.46477 5.8688,-2.82712 29.3213,-7.89248 44.0964,-9.52409 5.4684,-0.60388 10.0197,-1.19882 10.1141,-1.32209 0.6013,-0.78576 3.5743,-20.12492 3.6217,-23.55915 0.032,-2.3061 0.4197,-4.41651 0.8619,-4.68981 0.4422,-0.2733 1.741,-3.30452 2.8862,-6.73604 2.6131,-7.82996 4.0815,-9.57052 17.3794,-20.60096 12.5975,-10.44692 15.7283,-12.13818 22.4726,-12.13818 10.5931,0 18.0553,4.87788 23.3295,15.24998 4.0441,7.95303 5.7437,16.16606 6.9021,33.35315 1.2391,18.38669 3.5352,32.92826 5.8158,36.83314 3.3779,5.78372 6.7163,6.80942 25.0507,7.69663 24.9286,1.2063 30.8154,2.98975 37.7326,11.43131 3.2232,3.93346 3.8423,5.48669 4.2093,10.56061 0.7272,10.0529 -3.6017,27.61923 -8.7038,35.3197 -5.0873,7.67809 -6.3616,7.99106 -34.8358,8.55548 -23.5465,0.46675 -25.3538,0.63302 -27.1727,2.5 -1.0717,1.1 -3.5584,6.96979 -5.5258,13.04398 -3.422,10.56462 -3.5773,11.66523 -3.5773,25.35707 0,14.84161 2.9626,42.00644 5.6158,51.49303 0.7855,2.80825 2.9687,10.95592 4.8517,18.10592 6.6702,25.32802 17.2482,52.68198 24.3543,62.97865 3.1462,4.55885 11.0653,9.03851 26.5191,15.00135 11.1617,4.30672 15.9427,8.32888 24.7746,20.84246 11.7767,16.68606 14.3693,25.19361 13.6147,44.67754 -0.5685,14.68117 -2.3023,24.48486 -6.8374,38.66311 -3.7563,11.74308 -8.5394,17.37714 -19.6287,23.1206 -17.6512,9.1421 -32.9538,11.1596 -69.7641,9.19771 z M 905.05656,354.89594 c -5.225,-0.37889 -11.20327,-1.41829 -13.28504,-2.30978 -5.06504,-2.16903 -19.51753,-16.88853 -23.0403,-23.46597 -6.58831,-12.30115 -3.75465,-29.7273 6.82868,-41.99436 2.60304,-3.01717 6.50933,-5.65282 13.33885,-9 l 9.65781,-4.73333 13,0.086 c 14.80103,0.098 22.0392,1.59699 33.22997,6.88195 9.3381,4.41001 16.747,11.31679 20.4155,19.03202 5.2286,10.99635 3.5166,29.14388 -3.7876,40.14818 -6.4937,9.7831 -13.7252,13.3957 -30.56846,15.27078 -10.32685,1.14965 -11.06692,1.15207 -25.78941,0.0845 z"
       id="path497" /></g></svg>
