<?xml version="1.0" encoding="UTF-8" standalone="no"?>
<!-- Created with Inkscape (http://www.inkscape.org/) -->

<svg
   version="1.1"
   id="svg62"
   width="1815.8807"
   height="863.4234"
   viewBox="0 0 1815.8807 863.4234"
   sodipodi:docname="projects.bmp"
   inkscape:export-filename="projects.svg"
   inkscape:export-xdpi="96"
   inkscape:export-ydpi="96"
   xmlns:inkscape="http://www.inkscape.org/namespaces/inkscape"
   xmlns:sodipodi="http://sodipodi.sourceforge.net/DTD/sodipodi-0.dtd"
   xmlns="http://www.w3.org/2000/svg"
   xmlns:svg="http://www.w3.org/2000/svg">
  <defs
     id="defs66" />
  <sodipodi:namedview
     id="namedview64"
     pagecolor="#ffffff"
     bordercolor="#000000"
     borderopacity="0.25"
     inkscape:showpageshadow="2"
     inkscape:pageopacity="0.0"
     inkscape:pagecheckerboard="0"
     inkscape:deskcolor="#d1d1d1"
     showgrid="false" />
  <g
     inkscape:groupmode="layer"
     inkscape:label="Image"
     id="g68">
    <path
       style="fill:#000000"
       d="m 817.05657,862.47131 c -12.1535,-2.1705 -15.98599,-3.4618 -25.91651,-8.7325 -25.36963,-13.4652 -32.72334,-22.0321 -35.03905,-40.82007 -1.51,-12.25096 -1.34074,-31.38772 0.31229,-35.30835 1.95386,-4.63413 10.67145,-12.38592 15.27525,-13.58295 11.12257,-2.89197 25.49914,-2.14316 47.62538,2.4806 14.42345,3.01408 19.25238,2.75534 30.65681,-1.64268 7.8811,-3.03927 19.85903,-10.57122 25.93644,-16.30931 7.18198,-6.78099 16.68815,-23.73293 20.59692,-36.72957 2.18661,-7.27046 4.09131,-22.41358 6.53228,-51.93397 1.11421,-13.475 2.68138,-27.65 3.4826,-31.5 0.80122,-3.85 3.04563,-16.675 4.98759,-28.5 1.94195,-11.825 4.5005,-26.675 5.68566,-33 1.44358,-7.70418 2.1894,-15.81477 2.25958,-24.57224 0.10429,-13.01351 0.0914,-13.08988 -2.86219,-17 -5.68282,-7.52313 -21.08345,-22.10842 -28.43425,-26.92888 -16.84168,-11.04432 -25.05402,-12.19131 -40.38632,-5.64064 -12.19675,5.21103 -18.1411,6.50783 -27.13705,5.92015 -7.87108,-0.51419 -13.56861,-2.91783 -17.62805,-7.43681 -4.09981,-4.5639 -7.7069,-10.58932 -8.43091,-14.08328 -0.62337,-3.00828 -0.2066,-3.69233 5.78801,-9.5 3.55286,-3.44207 10.13403,-10.5333 14.62481,-15.7583 4.49078,-5.225 10.25284,-11.92586 12.80457,-14.89079 7.21286,-8.38084 11.67954,-9.96476 36.76614,-13.03756 4.4,-0.53895 13.625,-1.89543 20.5,-3.01442 24.35676,-3.96434 49.88805,-2.27934 66.9492,4.41848 11.1013,4.35812 13.09041,7.47382 19.01211,29.78016 5.4921,20.68831 5.8473,25.58702 5.936,81.87073 0.071,45.32792 -0.1186,52.22118 -1.5575,56.5 -1.3337,3.96605 -1.7732,11.576 -2.3606,40.8734 -0.8738,43.57981 -1.3117,46.45257 -11.98289,78.60258 -2.66577,8.03142 -6.03294,17.42059 -7.4826,20.86483 -1.44966,3.44423 -5.71253,15.32307 -9.47305,26.39742 -8.40312,24.74629 -11.32903,31.77879 -19.64845,47.22541 -8.854,16.43918 -11.61257,18.94305 -35.89779,32.58336 -35.47397,19.9247 -41.34181,22.3455 -56.42134,23.2768 -4.20062,0.2595 -10.91301,-0.1287 -15.07309,-0.8716 z m 24.5,-4.2021 c 7.19653,-1.7303 16.44713,-6.2922 42.98662,-21.1988 11.67624,-6.5582 21.72965,-12.93659 24.17863,-15.34008 4.41236,-4.33041 14.91066,-22.78422 20.39549,-35.85101 1.72844,-4.11774 6.2194,-16.54764 9.97993,-27.62198 3.76052,-11.07435 8.02339,-22.95319 9.47305,-26.39742 1.44966,-3.44424 4.81683,-12.83341 7.4826,-20.86483 10.67119,-32.15001 11.10909,-35.02277 11.98289,-78.60258 0.5876,-29.30692 1.0267,-36.90668 2.3616,-40.87675 1.4384,-4.27775 1.6268,-10.97179 1.5335,-54.5 -0.1158,-54.08051 -0.5213,-59.55736 -5.913,-79.86738 -3.94881,-14.87464 -6.48898,-21.46351 -9.28889,-24.09389 -3.27871,-3.08019 -13.57974,-6.89286 -24.8295,-9.19003 -12.50517,-2.55352 -26.80512,-2.52505 -42.84292,0.0853 -6.875,1.11899 -16.1,2.47547 -20.5,3.01442 -25.04695,3.06794 -29.65738,4.69437 -36.57971,12.90424 -11.67467,13.84613 -26.08066,29.98127 -28.84521,32.30748 -1.69129,1.42313 -3.07508,3.4397 -3.07508,4.48128 0,2.74848 6.97072,12.29901 10.91862,14.95949 8.46256,5.70292 16.21568,5.26238 32.59616,-1.85215 9.51245,-4.13155 10.43501,-4.33479 19.48522,-4.29273 11.16598,0.0519 17.16941,2.09798 29.0988,9.91745 7.33103,4.80534 23.72532,20.36022 29.43776,27.93052 l 2.96344,3.92724 -0.0912,15.07276 c -0.0662,10.93874 -0.68592,18.22689 -2.25959,26.57277 -1.19262,6.325 -3.75727,21.175 -5.69922,33 -1.94196,11.825 -4.18637,24.65 -4.98759,28.5 -0.80122,3.85 -2.36839,18.025 -3.4826,31.5 -3.54999,42.93265 -4.88762,50.2707 -11.95037,65.55799 -7.12497,15.42198 -13.63647,23.23947 -26.94425,32.34844 -17.09988,11.70458 -31.316,14.27994 -53.67988,9.72451 -23.09725,-4.70482 -35.92704,-5.039 -43.36694,-1.1296 -3.59602,1.88957 -9.72641,8.48617 -10.97883,11.81376 -1.3554,3.60118 -1.36336,19.77244 -0.0151,30.71113 2.28205,18.51485 9.24502,26.66035 34.03905,39.82005 10.07192,5.3457 14.11782,6.6911 25.91651,8.6179 8.06955,1.3178 11.18295,1.1526 20.5,-1.0875 z m 807.96183,-99.74229 c -6.1511,-2.86434 -13.1628,-10.52329 -14.0723,-15.37129 -1.2234,-6.52114 0.2367,-18.76705 2.9422,-24.67659 7.6418,-16.69191 29.527,-29.98531 62.8428,-38.17165 10.079,-2.47661 20.5754,-5.22222 23.3254,-6.10136 14.7613,-4.719 33.5442,-19.93242 39.5901,-32.06641 3.1321,-6.28589 3.3878,-7.54869 3.7405,-18.47333 0.3208,-9.93428 0.042,-12.83775 -1.8215,-19 -6.662,-22.02553 -15.5944,-34.17395 -44.0091,-59.85458 -16.0013,-14.46163 -20.8726,-19.92284 -24.6713,-27.65863 -2.7355,-5.57079 -2.8287,-6.27122 -2.8287,-21.26057 0,-15.11241 0.072,-15.64281 2.8932,-21.21103 10.0906,-19.91844 38.3146,-35.81538 63.5168,-35.77532 9.9311,0.0158 13.09,0.65262 13.09,2.63891 0,1.16417 -1.5729,1.30943 -8.75,0.80809 -10.2773,-0.7179 -19.0337,1.19024 -31.4121,6.84513 -15.3837,7.02782 -25.6203,15.98824 -31.4759,27.55173 -2.7228,5.37694 -2.8574,6.27783 -2.8597,19.14249 0,12.79643 0.1451,13.80022 2.8264,19.26057 3.8401,7.82022 8.4464,12.91338 27.1713,30.04321 16.3447,14.95244 22.4382,21.36042 28.7139,30.19622 15.1496,21.32943 19.7001,50.74149 10.684,69.05575 -5.1033,10.36635 -18.4056,22.31455 -33.1475,29.77326 -2.9975,1.51661 -15.1824,5.18582 -27.2355,8.20136 -16.942,4.23869 -24.0955,6.54807 -32.0432,10.34463 -23.8599,11.39762 -34.4192,22.76219 -36.1012,38.85422 -0.8821,8.43998 0.082,12.27081 4.3387,17.24412 8.5355,9.97188 20.5426,11.5176 43.4978,5.59968 20.2856,-5.22968 31.2908,-9.14132 42.7062,-15.17933 13.3558,-7.06438 22.2567,-12.87409 28.8112,-18.80535 5.9755,-5.40734 27.6655,-30.99798 31.6112,-37.296 7.689,-12.27321 16.9237,-44.3098 19.2807,-66.88803 0.6265,-6.00084 -0.8532,-27.80122 -2.7339,-40.27987 -1.1245,-7.46141 -2.042,-9.40591 -10.5298,-22.31815 -4.8497,-7.37776 -8.2213,-11.19298 -14.1123,-15.96906 -12.3801,-10.03702 -30.1016,-27.06142 -31.7367,-30.48836 -0.9008,-1.88782 -1.5036,-5.99596 -1.5036,-10.24712 0,-6.70518 0.1928,-7.30936 3.5002,-10.97027 2.0772,-2.29927 7.5974,-6.02838 13.5789,-9.17306 11.1229,-5.84777 14.1284,-8.90389 15.9729,-16.24199 2.2041,-8.76895 -0.088,-15.75579 -5.6256,-17.14555 -1.3345,-0.33494 -2.4264,-1.33466 -2.4264,-2.2216 0,-2.54256 7.6916,-1.11227 10.8149,2.0111 4.9512,4.95115 3.9298,20.85417 -1.7846,27.78672 -1.7837,2.16389 -6.8189,5.58732 -12.989,8.83121 -12.851,6.75624 -16.0413,10.2013 -16.0413,17.32209 0,3.10536 0.7111,6.52108 1.75,8.40623 1.883,3.41683 18.9537,19.84894 28.75,27.67451 8.4422,6.74393 16.5597,16.38829 20.9073,24.84017 2.0427,3.97094 4.1129,7.70051 4.6004,8.28795 2.231,2.68821 5.5817,38.85983 4.6598,50.30384 -1.7075,21.19496 -10.4717,52.94859 -18.5442,67.1869 -3.3871,5.97423 -25.7433,32.53405 -32.929,39.1207 -6.911,6.33477 -15.4657,11.96553 -29.2811,19.27299 -11.4154,6.03801 -22.4206,9.94965 -42.7062,15.17933 -11.6171,2.99492 -14.832,3.42575 -25.5,3.41721 -10.6965,-0.009 -12.8304,-0.30007 -17.2451,-2.35582 z m -513.9619,-10.67538 c -24.486,-0.72617 -33.7821,-1.77767 -44.9983,-5.08989 -8.5779,-2.5331 -20.9014,-8.62149 -27.8301,-13.74939 -10.8475,-8.02812 -25.9924,-26.23899 -32.1178,-38.61975 -6.0863,-12.30169 -6.8017,-16.54744 -6.656,-39.5 0.1253,-19.74373 0.8392,-29.44974 5.0378,-68.5 1.0644,-9.9 2.4026,-22.80814 2.9736,-28.68476 1.9524,-20.09179 9.8104,-51.28268 14.6727,-58.24016 2.8077,-4.01757 18.988,-19.83974 24.9181,-24.36673 3.3,-2.51913 9.8991,-8.39704 14.6646,-13.06201 7.9859,-7.8174 21.7193,-18.14634 24.1275,-18.14634 0.5605,0 2.4732,-1.1091 4.2505,-2.46466 1.7772,-1.35556 10.8197,-6.52863 20.0943,-11.4957 14.3881,-7.70555 20.1654,-10.12468 39.3631,-16.48237 12.375,-4.09823 25.3063,-7.89917 28.7363,-8.44652 8.6224,-1.37599 32.0773,0.22004 43.0461,2.92914 4.7947,1.1842 11.6426,3.55141 15.2176,5.26047 11.319,5.41116 24.2019,20.49476 30.4911,35.69964 3.8366,9.27546 1.4163,28.12469 -5.9521,46.35603 -6.3475,15.7052 -17.8279,31.18075 -29.8188,40.19568 -13.5233,10.16692 -33.7376,17.87854 -57.6961,22.01064 -16.7407,2.88726 -33.4376,7.08134 -50.47,12.67751 -26.9928,8.86883 -33.1374,15.25208 -32.9792,34.26014 0.085,10.15051 2.0544,18.11521 6.5541,26.5 3.9133,7.29222 6.5882,10.20427 13.3416,14.52435 16.4311,10.51085 32.146,11.74394 69.0294,5.41647 17.3824,-2.98201 31.0643,-3.94115 42.8094,-3.00107 11.8092,0.94519 16.8081,2.95307 21.4884,8.63112 5.1994,6.30781 6.5294,12.66665 5.9151,28.28048 -0.7608,19.33404 -3.7635,27.50813 -13.5892,36.99245 -12.3329,11.90443 -19.132,15.78668 -32.6237,18.62791 -4.4,0.9266 -11.375,2.53094 -15.5,3.56519 -19.7693,4.95676 -43.8031,9.1518 -50.3224,8.78366 -1.7477,-0.0987 -13.5276,-0.48638 -26.1776,-0.86153 z m 53,-6.53178 c 6.6,-1.38043 15.375,-3.35609 19.5,-4.39035 4.125,-1.03425 11.1,-2.63859 15.5,-3.56519 13.3784,-2.81736 20.1936,-6.69011 32.1881,-18.29089 8.9477,-8.65397 12.185,-17.20272 13.0158,-34.37063 0.4586,-9.47685 0.2392,-12.69508 -1.1588,-17 -2.236,-6.88531 -5.644,-11.29301 -10.853,-14.03667 -6.7674,-3.56448 -24.9625,-3.7085 -45.5342,-0.36042 -22.8568,3.72001 -35.9277,4.86401 -49.6579,4.34621 -13.7329,-0.5179 -20.5497,-2.60193 -31.8455,-9.73588 -13.6675,-8.6318 -21.8877,-28.29186 -20.3585,-48.69075 1.2587,-16.79124 8.5902,-23.65931 34.2581,-32.09282 17.0324,-5.59617 33.7293,-9.79025 50.47,-12.67751 31.6575,-5.45994 55.0509,-16.46139 68.7719,-32.34213 18.3978,-21.29358 29.8378,-55.76138 23.6384,-71.22022 -5.9347,-14.79856 -18.2882,-29.36021 -29.4344,-34.69563 -11.8425,-5.66873 -22.472,-7.73383 -40,-7.77127 l -15.5,-0.0331 -23,7.75675 c -18.9958,6.40634 -25.7855,9.24623 -39,16.31233 -8.8,4.70556 -16.9,9.39722 -18,10.4259 -1.1,1.02868 -4.1317,2.78215 -6.7371,3.89661 -6.557,2.80475 -13.7859,8.3398 -25.9094,19.83848 -5.6944,5.40094 -11.9285,10.8967 -13.8535,12.2128 -1.925,1.3161 -8.2365,7.15486 -14.0256,12.97502 -9.2614,9.31106 -10.8482,11.4229 -13.2103,17.58211 -3.5906,9.36259 -9.5675,37.06708 -10.8549,50.31524 -0.571,5.87662 -1.9089,18.78476 -2.973,28.68476 -4.2188,39.24934 -4.9123,48.53803 -4.9589,66.41709 -0.054,20.9054 0.8321,25.97217 6.5765,37.58291 6.0745,12.27783 20.6128,29.85542 31.1178,37.62316 11.1922,8.27591 26.3505,14.34523 42.3284,16.94819 9.4911,1.54619 51.2261,2.68249 60.5,1.64721 3.85,-0.42979 12.4,-1.91088 19,-3.29131 z m -39.2328,-231.48173 c -9.9173,-1.9572 -16.2745,-7.34265 -16.2574,-13.77225 0.034,-12.63138 18.2829,-31.20352 30.6119,-31.15346 7.8842,0.032 18.1845,1.8395 22.1724,3.89079 10.579,5.44163 15.1224,17.45232 10.2297,27.04281 -2.5184,4.93641 -9.4778,10.65131 -15.979,13.12158 -3.9515,1.50142 -7.4294,1.9009 -15.8055,1.81544 -5.9066,-0.0603 -12.6441,-0.48547 -14.9721,-0.94491 z m 26.6928,-3.83834 c 9.5009,-3.61003 17.04,-11.84257 17.04,-18.60718 0,-1.41882 -0.8562,-4.24925 -1.9027,-6.28984 -3.7686,-7.34867 -9.4222,-10.71913 -20.5844,-12.27164 -7.4721,-1.03928 -7.6383,-1.01358 -12.8946,1.99377 -6.7931,3.88662 -14.0396,11.62714 -17.1604,18.33028 -2.9605,6.35884 -3.022,7.75061 -0.4851,10.97572 5.4264,6.89859 24.9135,10.07659 35.9872,5.86889 z M 248.55657,735.00588 c -13.41962,-3.90095 -19.32941,-9.4332 -22.95755,-21.49092 -4.84552,-16.10356 -6.01163,-24.15604 -6.02748,-41.62245 -0.0166,-18.29978 -0.2676,-17.13872 8.75531,-40.5 8.68348,-22.48246 8.77014,-22.99887 9.98378,-59.49076 1.41982,-42.69178 -0.18306,-56.1044 -8.48532,-71.00354 -10.32335,-18.52619 -18.90092,-35.66511 -19.90072,-39.76385 -0.63617,-2.60802 -1.47988,-5.19185 -1.87491,-5.74185 -0.39503,-0.55 -0.97323,-3.27257 -1.28489,-6.05016 -1.49813,-13.35167 10.89307,-23.40864 29.8973,-24.2653 15.31939,-0.69057 23.93794,2.96686 33.15445,14.06964 10.67223,12.85643 15.41793,24.51737 17.75704,43.63186 1.82675,14.92763 4.00092,23.36771 6.63316,25.74986 1.81901,1.64618 2.12743,1.62776 6.24569,-0.37304 2.3827,-1.15761 6.75587,-4.07563 9.71816,-6.4845 2.96229,-2.40887 9.66098,-7.69689 14.88598,-11.75115 5.225,-4.05426 12.65,-10.13066 16.5,-13.50311 9.08557,-7.9586 13.65745,-11.38219 21,-15.72554 6.58146,-3.89314 35.05282,-15.04182 43,-16.83773 7.57999,-1.71293 39.10291,-1.77769 43.88071,-0.0901 9.74711,3.44274 16.66186,13.88124 17.40548,26.27526 0.39821,6.63725 0.15545,8.18558 -1.84014,11.73626 -2.91785,5.19161 -6.99702,7.94319 -33.76864,22.77848 -7.42712,4.11568 -17.77155,10.71321 -22.98763,14.66118 -5.21607,3.94797 -13.68517,10.34046 -18.82022,14.20553 -5.13505,3.86507 -13.9564,9.66034 -19.60301,12.87837 -12.49829,7.12286 -22.31671,14.85115 -27.03654,21.28104 -7.01157,9.55195 -20.16601,37.53418 -25.53261,54.31315 -1.67117,5.225 -4.45715,13.325 -6.19107,18 -6.13809,16.54952 -8.03137,27.38202 -9.00105,51.5 -1.18824,29.55366 -2.76921,35.71885 -10.36313,40.41215 -8.36529,5.17003 -30.6746,6.82542 -43.14215,3.20122 z m 29.92261,-2.63523 c 14.91301,-3.88434 17.10949,-8.33004 18.05788,-36.54939 0.9354,-27.83265 2.75096,-39.07425 9.17044,-56.78146 1.92362,-5.30601 4.86537,-13.88973 6.53724,-19.07494 5.38106,-16.68907 18.69453,-45.22343 25.32929,-54.28752 4.88888,-6.67896 15.23521,-14.90844 27.69443,-22.02818 5.89153,-3.36667 14.93789,-9.3017 20.103,-13.18894 5.16512,-3.88724 13.61977,-10.26538 18.78812,-14.17365 5.16834,-3.90826 13.67199,-9.47642 18.89699,-12.37369 37.50536,-20.79673 39.75373,-22.77144 38.73382,-34.0192 -0.9008,-9.93419 -7.03241,-19.14005 -14.9517,-22.44812 -4.38839,-1.83314 -30.3702,-2.16511 -37.78212,-0.48274 -7.56277,1.7166 -36.13324,12.96211 -42.5,16.72825 -7.34255,4.34335 -11.91443,7.76694 -21,15.72554 -3.85,3.37245 -11.275,9.44885 -16.5,13.50311 -5.225,4.05426 -11.87931,9.30613 -14.78736,11.67082 -7.54104,6.13203 -12.28081,8.30197 -18.13385,8.30197 -3.76748,0 -5.47592,-0.5099 -6.92698,-2.06742 -2.6879,-2.88513 -4.8291,-11.29091 -6.6348,-26.04654 -0.84899,-6.93767 -2.60358,-15.71267 -3.89908,-19.5 -4.05267,-11.84766 -13.40429,-25.57933 -21.44375,-31.48741 -5.19526,-3.81793 -14.30217,-6.26844 -20.80239,-5.59755 -10.63774,1.09791 -22.27721,8.4896 -23.96643,15.21997 -1.93264,7.70026 5.9629,27.28191 22.20035,55.05886 6.07108,10.38562 9.58849,27.96927 9.48586,47.42009 -0.0363,6.875 -0.50279,23.525 -1.03669,37 -1.08116,27.28664 -1.29241,28.37479 -9.80433,50.5 -8.90721,23.1527 -8.75318,22.47307 -8.72555,38.5 0.0264,15.30167 1.37519,24.19382 6.00286,39.57461 3.55534,11.81674 8.78523,16.70545 21.97214,20.53876 7.53608,2.19067 18.32942,2.34255 25.92261,0.36477 z m 340.57739,-1.59058 c -44.03487,-5.01624 -61.33244,-11.28563 -90.70436,-32.8752 -28.43229,-20.8989 -39.69206,-32.53518 -43.58781,-45.04536 -2.49364,-8.00764 -5.46631,-23.04656 -6.81295,-34.467 -1.50035,-12.72417 -0.59797,-45.75758 1.58292,-57.94577 5.25739,-29.38153 20.86392,-55.20803 42.57477,-70.45497 5.71901,-4.0163 8.08811,-5.09926 11.15525,-5.09926 2.29426,0 7.67353,-1.60723 13.09317,-3.912 14.49083,-6.16241 33.8026,-9.09639 64.60685,-9.81552 24.34763,-0.56839 38.99984,0.1481 66.60268,3.25689 24.44271,2.75288 36.12442,7.7885 49.3027,21.25287 14.6469,14.96487 18.9996,23.35432 24.75737,47.71776 3.12399,13.21884 4.29436,39.09433 2.60077,57.5 -2.62251,28.50115 -17.52656,72.71969 -31.17474,92.49176 -4.77114,6.91194 -21.81217,25.79566 -27.78155,30.78564 -8.74917,7.31368 -11.13846,7.74416 -42.14657,7.59356 -14.61268,-0.071 -29.9435,-0.5135 -34.0685,-0.9834 z m 61.5685,-3.36376 c 6.43394,-1.92594 13.08388,-7.52419 24.97334,-21.0238 12.37712,-14.05331 14.36289,-16.99054 21.49411,-31.79274 11.44603,-23.75839 20.06398,-53.22903 22.13868,-75.70726 1.72766,-18.71821 0.54712,-40.16326 -3.02771,-55 -4.11971,-17.09818 -6.33559,-23.01062 -11.58124,-30.9012 -10.6973,-16.09104 -25.73273,-27.97164 -40.55516,-32.04561 -15.70933,-4.31774 -55.78476,-7.57579 -83.1864,-6.76288 -27.67527,0.82103 -47.05668,4.06057 -61.72225,10.3167 -6.35365,2.71038 -11.64379,4.3518 -13.60068,4.22001 -2.4292,-0.1636 -4.83142,0.94666 -9.94797,4.59775 -20.79533,14.83924 -35.95135,40.35365 -41.06417,69.12946 -2.17417,12.23665 -3.04524,42.46543 -1.5689,54.44577 2.72158,22.08533 6.83986,37.05279 12.56932,45.682 7.36967,11.09952 43.38613,39.01716 63.69116,49.36928 16.18132,8.24973 32.27234,12.2426 63.81937,15.83628 13.55349,1.54394 52.00719,1.30097 57.5685,-0.36376 z m -73.29332,-80.43526 c -8.76214,-2.99773 -13.73152,-5.74929 -29.05624,-16.08854 -11.13039,-7.50944 -18.49445,-15.82129 -20.75184,-23.42273 -1.69954,-5.723 -2.00845,-27.08848 -0.47162,-32.62045 2.4561,-8.84102 20.60114,-25.42031 36.34274,-33.20669 12.87382,-6.36787 20.87395,-8.1062 37.66178,-8.18343 17.50561,-0.0805 23.4025,1.38343 31.24504,7.75686 7.35391,5.97634 11.1252,12.71157 13.25375,23.67021 3.45082,17.76623 -0.16966,46.10399 -7.69394,60.22099 -3.85974,7.24161 -16.13454,19.09907 -23.15528,22.36801 -4.55456,2.12065 -6.53612,2.39318 -17.14957,2.35868 -10.47998,-0.0341 -13.04183,-0.39545 -20.22482,-2.85291 z m 33.34215,-2.49084 c 7.0101,-3.26408 18.35792,-14.19787 22.18211,-21.37278 4.14293,-7.77295 8.29469,-25.31713 8.92745,-37.72492 0.61101,-11.98128 -1.56911,-24.49154 -5.55628,-31.88388 -3.44085,-6.37944 -11.79444,-13.13098 -19.00982,-15.36412 -8.02947,-2.4851 -24.20061,-2.24155 -34.28409,0.51635 -8.9048,2.43552 -23.3317,9.30992 -27.48203,13.09516 -1.59207,1.45201 -4.79697,3.87637 -7.12201,5.38745 -5.42667,3.52689 -15.00347,15.12097 -16.27718,19.70586 -1.50904,5.43196 -1.21262,22.95639 0.48397,28.61168 2.55673,8.52248 8.9941,15.37081 23.2538,24.73832 15.73999,10.33996 15.94404,10.44953 25.76675,13.83685 10.81962,3.73109 21.7145,3.90098 29.11733,0.45403 z M 57.056564,705.28862 c -16.890908,-4.52144 -27.863781,-16.01574 -33.790405,-35.39611 -5.350057,-17.49497 -6.955929,-30.91727 -9.212437,-77 -0.60596,-12.375 -1.778873,-28.64265 -2.606472,-36.15032 -1.7342613,-15.73258 -3.2200783,-60.08011 -2.6752793,-79.84968 0.476978,-17.30851 1.7866053,-37.93177 3.8101473,-60 1.310215,-14.28887 1.62679,-33.18866 1.72527,-103 l 0.120611,-85.50001 -2.326691,-9.5 c -1.27968,-5.225 -3.1704653,-11.95391 -4.2017453,-14.95314 -2.948601,-8.57528 -4.734739,-26.43832 -5.354187,-53.54686 -0.314197,-13.75 -1.020877,-29.275 -1.57040097,-34.5 -1.336955,-12.71209 -1.289416,-39.393253 0.08411,-47.205233 1.768602,-10.05899 4.028147,-17.63391 8.238043,-27.617291 C 17.17362,22.391631 24.280753,13.368951 35.447342,7.8716609 c 5.89366,-2.90144 7.824767,-3.25334 28.21792,-5.14208 31.41469,-2.90950004 95.456608,-3.67329704 118.276728,-1.41062 9.01198,0.89356 20.67065,2.55309 25.90817,3.68784 19.78657,4.28693 45.96711,15.3101801 56.57084,23.8190201 18.41623,14.777885 38.25998,40.296796 54.37915,69.931176 11.93104,21.934693 17.66343,37.719183 25.46319,70.114433 2.80647,11.65631 3.04932,14.19184 3.51631,36.71251 0.77028,37.14707 -1.02801,47.75973 -11.86052,69.99528 -6.16982,12.66462 -15.88757,23.57086 -27.82577,31.22889 -17.78218,11.4068 -47.60276,22.67273 -66.4638,25.1094 -17.80238,2.29989 -49.55842,3.94666 -76.37265,3.96045 -32.16263,0.0165 -32.83772,0.15173 -35.63218,7.13579 -0.92386,2.30894 -2.083,7.83873 -2.57586,12.28842 -0.49287,4.44969 -1.10579,57.81534 -1.36204,118.59034 -0.8113,192.41872 -0.86323,195.41335 -3.51929,202.95982 -7.03231,19.9804 -23.660588,30.13345 -49.090878,29.97437 -5.88592,-0.0368 -12.942886,-0.71436 -16.020098,-1.53808 z m 29.858738,-3.42418 c 14.014338,-3.88357 22.036938,-9.91234 27.477348,-20.64846 5.41134,-10.67878 5.0328,2.14426 6.1646,-208.82347 0.32752,-61.05 1.00935,-114.72732 1.51517,-119.28293 0.50583,-4.55561 1.79475,-10.26116 2.86428,-12.679 3.27316,-7.39953 3.92929,-7.53597 36.32021,-7.55262 26.81423,-0.0138 58.57027,-1.66056 76.37265,-3.96045 12.37749,-1.59906 30.52021,-7.19761 45.43487,-14.02049 26.18618,-11.97916 38.92663,-22.99142 47.89308,-41.39657 10.6682,-21.89828 12.62869,-33.17239 11.81795,-67.96087 -0.46952,-20.14693 -0.78755,-23.27789 -3.52147,-34.66815 C 331.50649,138.59312 325.73887,122.70581 313.80015,100.757 297.79659,71.335167 278.32525,46.190636 260.421,31.825246 249.81613,23.316481 223.63552,12.293461 203.85016,8.0068009 c -5.23752,-1.13475 -16.89619,-2.79591 -25.90817,-3.69147 -22.22172,-2.20827 -78.776728,-1.4776 -110.276728,1.42473 -20.329655,1.87312 -22.337175,2.23651 -28.141695,5.0940701 -10.8533,5.34306 -17.343211,13.6247 -25.261644,32.235845 -6.6288623,15.580201 -8.3919363,24.028681 -8.9364313,42.822521 -0.267219,9.22332 0.02972,21.351123 0.673307,27.500003 0.63324,6.05 1.386514,22.025 1.673943,35.5 0.551724,25.8655 2.3384473,44.78765 4.9193063,52.09753 0.854896,2.42136 2.771643,8.90247 4.259436,14.40247 l 2.70508,10 -0.114832,87.50001 c -0.09751,74.30238 -0.374447,90.29035 -1.836076,106 -2.886311,31.0222 -3.46982,43.30155 -3.513563,73.93937 -0.03778,26.46058 1.343456,60.24679 2.542284,62.18653 0.252939,0.40927 0.906059,8.98587 1.451379,19.05911 0.545319,10.07324 1.440347,26.63999 1.98895,36.81499 1.337272,24.80251 2.548842,34.60992 6.011885,48.66496 6.349325,25.76925 16.095774,37.67881 34.969973,42.73115 7.829988,2.09597 17.326608,1.94019 25.858738,-0.42418 z M 140.46927,255.93691 c -3.68108,-0.86473 -3.71109,-0.88239 -14.04943,-8.2657 -4.47519,-3.19604 -13.02519,-8.1032 -19,-10.90481 -20.089058,-9.41984 -36.323508,-22.13384 -40.699628,-31.8739 -2.51514,-5.59804 -3.525638,-28.45896 -1.76028,-39.82371 1.54275,-9.93168 4.40342,-15.0504 14.47393,-25.89886 8.64946,-9.31764 12.50098,-15.39795 14.53237,-22.94199 1.61887,-6.012 4.97055,-13.21566 7.174238,-15.41935 1.80089,-1.800893 3.677,-1.916093 31.20599,-1.916093 31.81576,0 37.01139,0.64388 45.54582,5.644393 11.43691,6.70112 33.89697,34.25935 42.80497,52.52119 3.64269,7.46771 8.64376,23.85519 10.40574,34.09754 1.81636,10.55843 0.86498,29.16466 -1.79041,35.01538 -4.3448,9.57303 -21.34838,24.12479 -31.94818,27.34144 -2.64431,0.80244 -8.18283,1.65756 -12.30783,1.90025 -15.56055,0.91549 -41.61756,1.22184 -44.5873,0.52422 z m 52.89513,-5.29845 c 10.86811,-3.58295 26.75123,-17.18341 30.94207,-26.4952 2.64634,-5.87998 3.52519,-20.94049 1.80533,-30.93706 -1.77671,-10.32699 -6.76845,-26.67156 -10.46612,-34.26945 -6.97937,-14.34106 -27.5883,-40.97885 -37.42944,-48.37891 -10.20851,-7.67631 -12.2423,-8.07651 -43.01811,-8.46494 -27.03533,-0.34121 -27.38607,-0.31933 -29.69813,1.85274 -1.28683,1.20891 -2.62379,3.49151 -2.97102,5.07244 -0.34723,1.58093 -1.00602,2.87442 -1.46398,2.87442 -0.45795,0 -1.128728,1.7525 -1.490608,3.89444 -1.27292,7.53438 -6.08792,15.63023 -15.01734,25.24987 -10.19173,10.97952 -13.049,16.07385 -14.60063,26.03198 -1.69466,10.87604 -0.72658,30.19485 1.79516,35.82371 4.24447,9.47425 19.70946,21.51524 39.630238,30.85597 5.95389,2.79174 13.60389,7.05602 17,9.47617 3.39611,2.42016 7.97474,5.62333 10.17474,7.11816 l 4,2.71786 23.00001,-0.41858 c 17.39523,-0.31659 24.1716,-0.80484 27.80783,-2.00362 z m 1222.1921,441.20626 c -13.5748,-2.09644 -43.6659,-13.22338 -55.512,-20.52696 -9.0626,-5.58749 -20.5778,-15.73624 -25.5675,-22.53361 -4.2716,-5.81908 -10.6383,-21.42467 -14.0308,-34.39164 -7.6982,-29.42378 -4.5765,-79.65516 7.0481,-113.41003 6.0312,-17.51305 18.1416,-33.14436 40.6965,-52.52834 10.3556,-8.89968 11.2416,-9.42865 21.0877,-12.58959 5.6529,-1.81476 13.203,-4.52547 16.778,-6.0238 17.0626,-7.15114 27.6321,-7.66248 42.8638,-2.07369 20.748,7.61277 29.1913,16.61359 27.8426,29.68095 -1.4349,13.90349 -10.515,22.03053 -44.1062,39.47689 -9.7558,5.06687 -19.0338,10.30305 -20.6179,11.63596 -6.8347,5.75105 -11.6726,22.73238 -10.6355,37.33165 1.0933,15.38939 4.9852,24.73036 15.1689,36.40694 7.2506,8.31354 18.2426,16.2365 27.149,19.5688 3.1746,1.18778 9.8363,3.06333 14.8037,4.16788 27.9279,6.21007 37.0831,11.89798 44.211,27.46718 2.4772,5.41106 2.6052,6.48439 2.4351,20.42008 -0.1953,16.00287 -0.9266,20.07574 -4.2377,23.60023 -2.6862,2.85933 -4.9547,3.57566 -21.8768,6.90802 -7.425,1.46216 -17.55,3.78 -22.5,5.15076 -10.1366,2.80703 -30.2769,3.91834 -41,2.26232 z m 35.5,-4.94575 c 4.125,-1.13143 15.15,-3.62358 24.5,-5.53812 10.1836,-2.08522 18.0024,-4.21769 19.5,-5.31832 3.8799,-2.85146 4.8819,-7.37763 4.9436,-22.33058 l 0.056,-13.68056 -3.75,-7.2679 c -6.583,-12.75859 -15.6763,-17.92257 -41.7816,-23.72736 -18.9214,-4.20737 -30.8127,-10.9852 -42.4574,-24.2 -11.1089,-12.60674 -14.7409,-21.61886 -15.6946,-38.94362 -0.9505,-17.26487 3.45,-33.07564 11.0671,-39.76355 1.8168,-1.59519 11.2109,-7.00736 20.8758,-12.02704 26.6167,-13.82396 35.1632,-19.90977 40.2369,-28.65189 8.2793,-14.26558 0.4718,-25.89942 -23.1324,-34.4692 -14.5424,-5.27981 -17.6895,-5.06333 -35.8638,2.46699 -4.4,1.82309 -9.35,3.62311 -11,4.00004 -11.8897,2.71614 -15.3896,4.57329 -26.318,13.96534 -22.0123,18.91764 -33.74,34.13469 -39.7442,51.56928 -11.3065,32.8314 -14.5232,79.87116 -7.3978,108.18467 3.0285,12.03426 9.5243,28.44889 13.6626,34.52514 4.6201,6.78364 15.7637,16.75492 25.2854,22.62547 11.8359,7.29734 41.9082,18.41992 55.512,20.53178 8.5524,1.32768 22.7543,0.44825 31.5,-1.95057 z m 165.5,-12.02504 c -14.6094,-0.77864 -20.2879,-2.44585 -30.1458,-8.85075 -11.6626,-7.57745 -15.9956,-14.13477 -23.8669,-36.11921 -6.6459,-18.56202 -9.921,-25.13341 -22.6819,-45.51146 -19.6015,-31.30182 -18.8113,-29.43327 -18.7737,-44.39077 0.017,-6.93508 0.693,-17.33423 1.5013,-23.10923 0.8083,-5.775 1.9148,-18.15651 2.459,-27.51447 0.7863,-13.52281 1.6844,-19.88455 4.3764,-31 1.8628,-7.69204 3.6908,-16.01053 4.0622,-18.48553 2.2599,-15.06204 3.5638,-37.45523 3.5664,-61.25 v -26.75 h -7.8434 c -5.0462,0 -9.7717,-0.66391 -13.25,-1.86155 -18.0487,-6.2144 -40.7919,-21.87937 -48.0334,-33.08423 -2.5625,-3.96499 -2.8732,-5.32262 -2.8732,-12.55366 0,-6.78142 0.4368,-8.98438 2.6698,-13.46547 3.6692,-7.36317 14.2889,-18.38783 20.6763,-21.46477 5.8688,-2.82712 29.3213,-7.89248 44.0964,-9.52409 5.4684,-0.60388 10.0197,-1.19882 10.1141,-1.32209 0.6013,-0.78576 3.5743,-20.12492 3.6217,-23.55915 0.032,-2.3061 0.4197,-4.41651 0.8619,-4.68981 0.4422,-0.27331 1.741,-3.30453 2.8862,-6.73605 2.6131,-7.82996 4.0815,-9.57052 17.3794,-20.60096 12.5975,-10.44692 15.7283,-12.13818 22.4726,-12.13818 10.5931,0 18.0553,4.87788 23.3295,15.24998 4.0441,7.95303 5.7437,16.16606 6.9021,33.35316 1.2391,18.38669 3.5352,32.92826 5.8158,36.83314 3.3779,5.78372 6.7163,6.80942 25.0507,7.69663 24.9286,1.2063 30.8154,2.98975 37.7326,11.43131 3.2232,3.93346 3.8423,5.48669 4.2093,10.56061 0.7272,10.0529 -3.6017,27.61923 -8.7038,35.3197 -5.0873,7.67809 -6.3616,7.99106 -34.8358,8.55548 -23.5465,0.46675 -25.3538,0.63302 -27.1727,2.5 -1.0717,1.1 -3.5584,6.96979 -5.5258,13.04398 -3.422,10.56462 -3.5773,11.66523 -3.5773,25.35707 0,14.84161 2.9626,42.00644 5.6158,51.49303 0.7855,2.80825 2.9687,10.95592 4.8517,18.10592 6.6702,25.32802 17.2482,52.68198 24.3543,62.97865 3.1462,4.55885 11.0653,9.03851 26.5191,15.00135 11.1617,4.30672 15.9427,8.32888 24.7746,20.84246 11.7767,16.68606 14.3693,25.19361 13.6147,44.67754 -0.5685,14.68117 -2.3023,24.48486 -6.8374,38.66311 -3.7563,11.74308 -8.5394,17.37714 -19.6287,23.1206 -17.6512,9.1421 -32.9538,11.1596 -69.7641,9.19771 z m 38,-3.52483 c 15.3719,-1.90352 32.6773,-9.44289 39.5213,-17.21808 9.5719,-10.87427 17.0183,-50.92862 12.6348,-67.96318 -2.8872,-11.22018 -12.3696,-26.86573 -22.0916,-36.4504 -3.833,-3.77894 -6.9103,-5.50843 -16.4137,-9.22504 -14.6796,-5.74091 -21.8099,-9.99258 -25.3232,-15.09989 -4.4977,-6.5383 -13.3372,-27.04939 -18.1079,-42.01769 -12.6371,-39.64914 -16.7197,-62.24828 -16.7197,-92.55167 0,-16.01716 0.071,-16.56266 3.5755,-27.38666 2.186,-6.75243 4.5256,-12.01545 6.0207,-13.54398 l 2.4453,-2.5 25.2293,-0.5 c 24.0799,-0.47722 25.3964,-0.60397 28.8995,-2.78229 4.3668,-2.7154 6.8104,-6.59159 9.6341,-15.28187 5.0859,-15.65267 5.27,-24.34964 0.6437,-30.41497 -5.986,-7.84809 -18.1315,-11.49455 -38.4481,-11.54336 -15.8495,-0.0381 -21.2772,-1.89169 -25.2126,-8.61039 -2.247,-3.83611 -4.5472,-18.46587 -5.7804,-36.76399 -1.1588,-17.19368 -2.8526,-25.37341 -6.9245,-33.4398 -3.59,-7.11173 -8.266,-11.39482 -14.2775,-13.07795 -4.1033,-1.14885 -4.9184,-1.06818 -8.7001,0.86108 -4.453,2.27179 -22.1115,16.57148 -25.8506,20.93361 -3.3068,3.85781 -6.2795,13.71885 -9.2308,30.61993 l -2.6192,15 -9.9522,0.68531 c -12.9398,0.89105 -38.5305,6.21744 -45.1175,9.39066 -6.3254,3.04717 -16.0166,13.13808 -19.6822,20.49404 -3.8083,7.64233 -3.7269,15.87404 0.2176,21.98421 3.6118,5.5948 7.5398,9.26196 17.63,16.45907 16.4322,11.72072 30.6625,17.48671 43.1566,17.48671 h 8.3434 v 29.75 c 0,18.98681 -0.5388,35.07956 -1.4852,44.48118 -1.9674,19.54371 -2.2073,20.99809 -6.1442,37.25435 -2.692,11.11545 -3.5901,17.47719 -4.3764,31 -0.5442,9.35796 -1.6507,21.73947 -2.459,27.51447 -0.8083,5.775 -1.4839,15.27415 -1.5013,21.10923 -0.038,12.62746 -0.4564,11.68214 18.7737,42.39077 12.7609,20.37805 16.036,26.94944 22.6819,45.51146 7.8531,21.93335 11.7438,27.90984 22.8669,35.12526 11.064,7.17709 14.9743,8.15024 35.6458,8.87098 10.175,0.35476 19.625,0.51521 21,0.35654 1.375,-0.15867 4.75,-0.56711 7.5,-0.90765 z M 905.05657,354.89595 c -5.225,-0.37889 -11.20327,-1.41829 -13.28504,-2.30978 -5.06504,-2.16903 -19.51753,-16.88853 -23.0403,-23.46597 -6.58831,-12.30115 -3.75465,-29.7273 6.82868,-41.99436 2.60304,-3.01717 6.50933,-5.65282 13.33885,-9 l 9.65781,-4.73333 13,0.086 c 14.80103,0.098 22.0392,1.59699 33.22998,6.88195 9.33812,4.41001 16.74696,11.31679 20.41553,19.03202 5.2286,10.99635 3.5166,29.14388 -3.78765,40.14818 -6.49365,9.7831 -13.72521,13.3957 -30.56845,15.27078 -10.32685,1.14965 -11.06692,1.15207 -25.78941,0.0845 z m 28.94592,-4.12301 c 17.78646,-2.77923 27.70959,-14.4348 28.81648,-33.84741 0.4526,-7.93859 0.2531,-9.24837 -2.26253,-14.85397 -6.64303,-14.80263 -26.64911,-25.23985 -48.97942,-25.55268 -8.84757,-0.12395 -9.20616,-0.0352 -18.71026,4.63188 -10.23821,5.02755 -14.37834,8.89225 -18.68411,17.44114 -3.10823,6.17122 -4.67644,16.77637 -3.24674,21.95638 2.49863,9.05294 16.58161,25.38038 25.12066,29.12424 6.41619,2.81312 23.76516,3.31624 37.94592,1.10042 z"
       id="path230" />
  </g>
</svg>
